<svg xmlns="http://www.w3.org/2000/svg" xmlns:xlink="http://www.w3.org/1999/xlink" width="500" zoomAndPan="magnify" viewBox="0 0 375 374.999991" height="500" preserveAspectRatio="xMidYMid meet" version="1.0"><defs><clipPath id="cebf701815"><path d="M 147 215 L 173 215 L 173 242 L 147 242 Z M 147 215 " clip-rule="nonzero"/></clipPath><clipPath id="55a4123272"><path d="M 100.042969 117.757812 L 223.527344 67.027344 L 301.617188 257.113281 L 178.132812 307.84375 Z M 100.042969 117.757812 " clip-rule="nonzero"/></clipPath><clipPath id="87ff19a594"><path d="M 100.042969 117.757812 L 223.527344 67.027344 L 301.617188 257.113281 L 178.132812 307.84375 Z M 100.042969 117.757812 " clip-rule="nonzero"/></clipPath><clipPath id="137157c996"><path d="M 100.042969 117.757812 L 223.527344 67.027344 L 301.617188 257.113281 L 178.132812 307.84375 Z M 100.042969 117.757812 " clip-rule="nonzero"/></clipPath><clipPath id="2a16c6f2b0"><path d="M 191 273 L 218 273 L 218 294 L 191 294 Z M 191 273 " clip-rule="nonzero"/></clipPath><clipPath id="9b5ff64d36"><path d="M 100.042969 117.757812 L 223.527344 67.027344 L 301.617188 257.113281 L 178.132812 307.84375 Z M 100.042969 117.757812 " clip-rule="nonzero"/></clipPath><clipPath id="bf692e6c16"><path d="M 100.042969 117.757812 L 223.527344 67.027344 L 301.617188 257.113281 L 178.132812 307.84375 Z M 100.042969 117.757812 " clip-rule="nonzero"/></clipPath><clipPath id="c4654742df"><path d="M 100.042969 117.757812 L 223.527344 67.027344 L 301.617188 257.113281 L 178.132812 307.84375 Z M 100.042969 117.757812 " clip-rule="nonzero"/></clipPath><clipPath id="e3d51e646d"><path d="M 189.785156 275.097656 L 207.671875 267.75 L 217.46875 291.605469 L 199.585938 298.953125 Z M 189.785156 275.097656 " clip-rule="nonzero"/></clipPath><clipPath id="bb2a8b34dd"><path d="M 159 160 L 275 160 L 275 292 L 159 292 Z M 159 160 " clip-rule="nonzero"/></clipPath><clipPath id="80bcca6465"><path d="M 100.042969 117.757812 L 223.527344 67.027344 L 301.617188 257.113281 L 178.132812 307.84375 Z M 100.042969 117.757812 " clip-rule="nonzero"/></clipPath><clipPath id="9d2e22878d"><path d="M 100.042969 117.757812 L 223.527344 67.027344 L 301.617188 257.113281 L 178.132812 307.84375 Z M 100.042969 117.757812 " clip-rule="nonzero"/></clipPath><clipPath id="1f3dcfedcb"><path d="M 100.042969 117.757812 L 223.527344 67.027344 L 301.617188 257.113281 L 178.132812 307.84375 Z M 100.042969 117.757812 " clip-rule="nonzero"/></clipPath><clipPath id="6943528a53"><path d="M 172 82 L 247 82 L 247 169 L 172 169 Z M 172 82 " clip-rule="nonzero"/></clipPath><clipPath id="aeae2e27a1"><path d="M 100.042969 117.757812 L 223.527344 67.027344 L 301.617188 257.113281 L 178.132812 307.84375 Z M 100.042969 117.757812 " clip-rule="nonzero"/></clipPath><clipPath id="53438f824d"><path d="M 100.042969 117.757812 L 223.527344 67.027344 L 301.617188 257.113281 L 178.132812 307.84375 Z M 100.042969 117.757812 " clip-rule="nonzero"/></clipPath><clipPath id="40660e1d2d"><path d="M 100.042969 117.757812 L 223.527344 67.027344 L 301.617188 257.113281 L 178.132812 307.84375 Z M 100.042969 117.757812 " clip-rule="nonzero"/></clipPath><clipPath id="4239a13ed8"><path d="M 161.296875 92.671875 L 223.570312 67.089844 L 259.441406 154.40625 L 197.167969 179.988281 Z M 161.296875 92.671875 " clip-rule="nonzero"/></clipPath><clipPath id="eeacee65d2"><path d="M 160 104 L 231 104 L 231 175 L 160 175 Z M 160 104 " clip-rule="nonzero"/></clipPath><clipPath id="1f3d47035c"><path d="M 100.042969 117.757812 L 223.527344 67.027344 L 301.617188 257.113281 L 178.132812 307.84375 Z M 100.042969 117.757812 " clip-rule="nonzero"/></clipPath><clipPath id="a406b5c719"><path d="M 100.042969 117.757812 L 223.527344 67.027344 L 301.617188 257.113281 L 178.132812 307.84375 Z M 100.042969 117.757812 " clip-rule="nonzero"/></clipPath><clipPath id="9de6499a9c"><path d="M 100.042969 117.757812 L 223.527344 67.027344 L 301.617188 257.113281 L 178.132812 307.84375 Z M 100.042969 117.757812 " clip-rule="nonzero"/></clipPath><clipPath id="d7dfd82614"><path d="M 197 118 L 208 118 L 208 127 L 197 127 Z M 197 118 " clip-rule="nonzero"/></clipPath><clipPath id="3d3dfd7ddb"><path d="M 100.042969 117.757812 L 223.527344 67.027344 L 301.617188 257.113281 L 178.132812 307.84375 Z M 100.042969 117.757812 " clip-rule="nonzero"/></clipPath><clipPath id="6270c5832c"><path d="M 100.042969 117.757812 L 223.527344 67.027344 L 301.617188 257.113281 L 178.132812 307.84375 Z M 100.042969 117.757812 " clip-rule="nonzero"/></clipPath><clipPath id="c502298d9a"><path d="M 100.042969 117.757812 L 223.527344 67.027344 L 301.617188 257.113281 L 178.132812 307.84375 Z M 100.042969 117.757812 " clip-rule="nonzero"/></clipPath><clipPath id="407068bc3e"><path d="M 172 111 L 180 111 L 180 116 L 172 116 Z M 172 111 " clip-rule="nonzero"/></clipPath><clipPath id="87f2da0ce7"><path d="M 100.042969 117.757812 L 223.527344 67.027344 L 301.617188 257.113281 L 178.132812 307.84375 Z M 100.042969 117.757812 " clip-rule="nonzero"/></clipPath><clipPath id="ea9db923f2"><path d="M 100.042969 117.757812 L 223.527344 67.027344 L 301.617188 257.113281 L 178.132812 307.84375 Z M 100.042969 117.757812 " clip-rule="nonzero"/></clipPath><clipPath id="2fa8392b0a"><path d="M 100.042969 117.757812 L 223.527344 67.027344 L 301.617188 257.113281 L 178.132812 307.84375 Z M 100.042969 117.757812 " clip-rule="nonzero"/></clipPath><clipPath id="deb8fa3463"><path d="M 259 218 L 268 218 L 268 227 L 259 227 Z M 259 218 " clip-rule="nonzero"/></clipPath><clipPath id="ecaee156ff"><path d="M 100.042969 117.757812 L 223.527344 67.027344 L 301.617188 257.113281 L 178.132812 307.84375 Z M 100.042969 117.757812 " clip-rule="nonzero"/></clipPath><clipPath id="54f97469ea"><path d="M 100.042969 117.757812 L 223.527344 67.027344 L 301.617188 257.113281 L 178.132812 307.84375 Z M 100.042969 117.757812 " clip-rule="nonzero"/></clipPath><clipPath id="40fd0fb8e8"><path d="M 100.042969 117.757812 L 223.527344 67.027344 L 301.617188 257.113281 L 178.132812 307.84375 Z M 100.042969 117.757812 " clip-rule="nonzero"/></clipPath><clipPath id="c4ca9cbc29"><path d="M 250 188 L 259 188 L 259 197 L 250 197 Z M 250 188 " clip-rule="nonzero"/></clipPath><clipPath id="e0f60f2a76"><path d="M 100.042969 117.757812 L 223.527344 67.027344 L 301.617188 257.113281 L 178.132812 307.84375 Z M 100.042969 117.757812 " clip-rule="nonzero"/></clipPath><clipPath id="7c62d6b256"><path d="M 100.042969 117.757812 L 223.527344 67.027344 L 301.617188 257.113281 L 178.132812 307.84375 Z M 100.042969 117.757812 " clip-rule="nonzero"/></clipPath><clipPath id="3a7f6cc9c3"><path d="M 100.042969 117.757812 L 223.527344 67.027344 L 301.617188 257.113281 L 178.132812 307.84375 Z M 100.042969 117.757812 " clip-rule="nonzero"/></clipPath><clipPath id="7ff27d2d69"><path d="M 236 207 L 245 207 L 245 216 L 236 216 Z M 236 207 " clip-rule="nonzero"/></clipPath><clipPath id="92db6b48a7"><path d="M 100.042969 117.757812 L 223.527344 67.027344 L 301.617188 257.113281 L 178.132812 307.84375 Z M 100.042969 117.757812 " clip-rule="nonzero"/></clipPath><clipPath id="dfc4253193"><path d="M 100.042969 117.757812 L 223.527344 67.027344 L 301.617188 257.113281 L 178.132812 307.84375 Z M 100.042969 117.757812 " clip-rule="nonzero"/></clipPath><clipPath id="187cf33652"><path d="M 100.042969 117.757812 L 223.527344 67.027344 L 301.617188 257.113281 L 178.132812 307.84375 Z M 100.042969 117.757812 " clip-rule="nonzero"/></clipPath><clipPath id="c3ac44a556"><path d="M 243 243 L 252 243 L 252 252 L 243 252 Z M 243 243 " clip-rule="nonzero"/></clipPath><clipPath id="f28dabf82e"><path d="M 100.042969 117.757812 L 223.527344 67.027344 L 301.617188 257.113281 L 178.132812 307.84375 Z M 100.042969 117.757812 " clip-rule="nonzero"/></clipPath><clipPath id="32ff23826a"><path d="M 100.042969 117.757812 L 223.527344 67.027344 L 301.617188 257.113281 L 178.132812 307.84375 Z M 100.042969 117.757812 " clip-rule="nonzero"/></clipPath><clipPath id="7fa8e6912c"><path d="M 100.042969 117.757812 L 223.527344 67.027344 L 301.617188 257.113281 L 178.132812 307.84375 Z M 100.042969 117.757812 " clip-rule="nonzero"/></clipPath><clipPath id="3f2ebe95dd"><path d="M 217 240 L 226 240 L 226 249 L 217 249 Z M 217 240 " clip-rule="nonzero"/></clipPath><clipPath id="228c14e0c4"><path d="M 100.042969 117.757812 L 223.527344 67.027344 L 301.617188 257.113281 L 178.132812 307.84375 Z M 100.042969 117.757812 " clip-rule="nonzero"/></clipPath><clipPath id="c1496a9d26"><path d="M 100.042969 117.757812 L 223.527344 67.027344 L 301.617188 257.113281 L 178.132812 307.84375 Z M 100.042969 117.757812 " clip-rule="nonzero"/></clipPath><clipPath id="2986cc3935"><path d="M 100.042969 117.757812 L 223.527344 67.027344 L 301.617188 257.113281 L 178.132812 307.84375 Z M 100.042969 117.757812 " clip-rule="nonzero"/></clipPath><clipPath id="ff2b11dc37"><path d="M 224 270 L 233 270 L 233 279 L 224 279 Z M 224 270 " clip-rule="nonzero"/></clipPath><clipPath id="d6f87b6933"><path d="M 100.042969 117.757812 L 223.527344 67.027344 L 301.617188 257.113281 L 178.132812 307.84375 Z M 100.042969 117.757812 " clip-rule="nonzero"/></clipPath><clipPath id="0791447a40"><path d="M 100.042969 117.757812 L 223.527344 67.027344 L 301.617188 257.113281 L 178.132812 307.84375 Z M 100.042969 117.757812 " clip-rule="nonzero"/></clipPath><clipPath id="25ff0651a4"><path d="M 100.042969 117.757812 L 223.527344 67.027344 L 301.617188 257.113281 L 178.132812 307.84375 Z M 100.042969 117.757812 " clip-rule="nonzero"/></clipPath><clipPath id="7f8bd16e60"><path d="M 204 274 L 211 274 L 211 283 L 204 283 Z M 204 274 " clip-rule="nonzero"/></clipPath><clipPath id="b20b8cebf0"><path d="M 100.042969 117.757812 L 223.527344 67.027344 L 301.617188 257.113281 L 178.132812 307.84375 Z M 100.042969 117.757812 " clip-rule="nonzero"/></clipPath><clipPath id="c84a446409"><path d="M 100.042969 117.757812 L 223.527344 67.027344 L 301.617188 257.113281 L 178.132812 307.84375 Z M 100.042969 117.757812 " clip-rule="nonzero"/></clipPath><clipPath id="3a1a6deff2"><path d="M 100.042969 117.757812 L 223.527344 67.027344 L 301.617188 257.113281 L 178.132812 307.84375 Z M 100.042969 117.757812 " clip-rule="nonzero"/></clipPath><clipPath id="3b61d464f9"><path d="M 224 178 L 233 178 L 233 187 L 224 187 Z M 224 178 " clip-rule="nonzero"/></clipPath><clipPath id="d502bef3c4"><path d="M 100.042969 117.757812 L 223.527344 67.027344 L 301.617188 257.113281 L 178.132812 307.84375 Z M 100.042969 117.757812 " clip-rule="nonzero"/></clipPath><clipPath id="dab6ff0ac6"><path d="M 100.042969 117.757812 L 223.527344 67.027344 L 301.617188 257.113281 L 178.132812 307.84375 Z M 100.042969 117.757812 " clip-rule="nonzero"/></clipPath><clipPath id="39e09b2fae"><path d="M 100.042969 117.757812 L 223.527344 67.027344 L 301.617188 257.113281 L 178.132812 307.84375 Z M 100.042969 117.757812 " clip-rule="nonzero"/></clipPath><clipPath id="13f57375f3"><path d="M 207 208 L 216 208 L 216 217 L 207 217 Z M 207 208 " clip-rule="nonzero"/></clipPath><clipPath id="993295546f"><path d="M 100.042969 117.757812 L 223.527344 67.027344 L 301.617188 257.113281 L 178.132812 307.84375 Z M 100.042969 117.757812 " clip-rule="nonzero"/></clipPath><clipPath id="31279ed9d7"><path d="M 100.042969 117.757812 L 223.527344 67.027344 L 301.617188 257.113281 L 178.132812 307.84375 Z M 100.042969 117.757812 " clip-rule="nonzero"/></clipPath><clipPath id="db03e2ef9a"><path d="M 100.042969 117.757812 L 223.527344 67.027344 L 301.617188 257.113281 L 178.132812 307.84375 Z M 100.042969 117.757812 " clip-rule="nonzero"/></clipPath><clipPath id="a1f1e0b424"><path d="M 180 186 L 187 186 L 187 194 L 180 194 Z M 180 186 " clip-rule="nonzero"/></clipPath><clipPath id="83d208c087"><path d="M 100.042969 117.757812 L 223.527344 67.027344 L 301.617188 257.113281 L 178.132812 307.84375 Z M 100.042969 117.757812 " clip-rule="nonzero"/></clipPath><clipPath id="84363e9af3"><path d="M 100.042969 117.757812 L 223.527344 67.027344 L 301.617188 257.113281 L 178.132812 307.84375 Z M 100.042969 117.757812 " clip-rule="nonzero"/></clipPath><clipPath id="cf6cc29ec7"><path d="M 100.042969 117.757812 L 223.527344 67.027344 L 301.617188 257.113281 L 178.132812 307.84375 Z M 100.042969 117.757812 " clip-rule="nonzero"/></clipPath><clipPath id="9b2fddfbec"><path d="M 174 217 L 183 217 L 183 226 L 174 226 Z M 174 217 " clip-rule="nonzero"/></clipPath><clipPath id="cd53c56230"><path d="M 100.042969 117.757812 L 223.527344 67.027344 L 301.617188 257.113281 L 178.132812 307.84375 Z M 100.042969 117.757812 " clip-rule="nonzero"/></clipPath><clipPath id="202c83578a"><path d="M 100.042969 117.757812 L 223.527344 67.027344 L 301.617188 257.113281 L 178.132812 307.84375 Z M 100.042969 117.757812 " clip-rule="nonzero"/></clipPath><clipPath id="420f5cd1f1"><path d="M 100.042969 117.757812 L 223.527344 67.027344 L 301.617188 257.113281 L 178.132812 307.84375 Z M 100.042969 117.757812 " clip-rule="nonzero"/></clipPath><clipPath id="8d7cd1b4c2"><path d="M 204 181 L 213 181 L 213 190 L 204 190 Z M 204 181 " clip-rule="nonzero"/></clipPath><clipPath id="a351d9f7be"><path d="M 100.042969 117.757812 L 223.527344 67.027344 L 301.617188 257.113281 L 178.132812 307.84375 Z M 100.042969 117.757812 " clip-rule="nonzero"/></clipPath><clipPath id="3e5c8e4cae"><path d="M 100.042969 117.757812 L 223.527344 67.027344 L 301.617188 257.113281 L 178.132812 307.84375 Z M 100.042969 117.757812 " clip-rule="nonzero"/></clipPath><clipPath id="00e6cc2803"><path d="M 100.042969 117.757812 L 223.527344 67.027344 L 301.617188 257.113281 L 178.132812 307.84375 Z M 100.042969 117.757812 " clip-rule="nonzero"/></clipPath><clipPath id="1c3f1ef0ba"><path d="M 166 202 L 175 202 L 175 211 L 166 211 Z M 166 202 " clip-rule="nonzero"/></clipPath><clipPath id="008469d0a3"><path d="M 100.042969 117.757812 L 223.527344 67.027344 L 301.617188 257.113281 L 178.132812 307.84375 Z M 100.042969 117.757812 " clip-rule="nonzero"/></clipPath><clipPath id="23da287e0e"><path d="M 100.042969 117.757812 L 223.527344 67.027344 L 301.617188 257.113281 L 178.132812 307.84375 Z M 100.042969 117.757812 " clip-rule="nonzero"/></clipPath><clipPath id="7fc7f13089"><path d="M 100.042969 117.757812 L 223.527344 67.027344 L 301.617188 257.113281 L 178.132812 307.84375 Z M 100.042969 117.757812 " clip-rule="nonzero"/></clipPath><clipPath id="aa58a73406"><path d="M 192 148 L 208 148 L 208 164 L 192 164 Z M 192 148 " clip-rule="nonzero"/></clipPath><clipPath id="7dc3f6cf4f"><path d="M 100.042969 117.757812 L 223.527344 67.027344 L 301.617188 257.113281 L 178.132812 307.84375 Z M 100.042969 117.757812 " clip-rule="nonzero"/></clipPath><clipPath id="004c6751a2"><path d="M 100.042969 117.757812 L 223.527344 67.027344 L 301.617188 257.113281 L 178.132812 307.84375 Z M 100.042969 117.757812 " clip-rule="nonzero"/></clipPath><clipPath id="7d579f08f7"><path d="M 100.042969 117.757812 L 223.527344 67.027344 L 301.617188 257.113281 L 178.132812 307.84375 Z M 100.042969 117.757812 " clip-rule="nonzero"/></clipPath><clipPath id="5e04e1474f"><path d="M 198 261 L 208 261 L 208 276 L 198 276 Z M 198 261 " clip-rule="nonzero"/></clipPath><clipPath id="d33d766928"><path d="M 100.042969 117.757812 L 223.527344 67.027344 L 301.617188 257.113281 L 178.132812 307.84375 Z M 100.042969 117.757812 " clip-rule="nonzero"/></clipPath><clipPath id="62a2ac46d9"><path d="M 100.042969 117.757812 L 223.527344 67.027344 L 301.617188 257.113281 L 178.132812 307.84375 Z M 100.042969 117.757812 " clip-rule="nonzero"/></clipPath><clipPath id="dc9ebe62e4"><path d="M 100.042969 117.757812 L 223.527344 67.027344 L 301.617188 257.113281 L 178.132812 307.84375 Z M 100.042969 117.757812 " clip-rule="nonzero"/></clipPath><clipPath id="c01e408e14"><path d="M 203 272 L 219 272 L 219 282 L 203 282 Z M 203 272 " clip-rule="nonzero"/></clipPath><clipPath id="4d76bb4edb"><path d="M 100.042969 117.757812 L 223.527344 67.027344 L 301.617188 257.113281 L 178.132812 307.84375 Z M 100.042969 117.757812 " clip-rule="nonzero"/></clipPath><clipPath id="095e37824a"><path d="M 100.042969 117.757812 L 223.527344 67.027344 L 301.617188 257.113281 L 178.132812 307.84375 Z M 100.042969 117.757812 " clip-rule="nonzero"/></clipPath><clipPath id="e91e955d77"><path d="M 100.042969 117.757812 L 223.527344 67.027344 L 301.617188 257.113281 L 178.132812 307.84375 Z M 100.042969 117.757812 " clip-rule="nonzero"/></clipPath><clipPath id="dd107cb344"><path d="M 218 228 L 229 228 L 229 240 L 218 240 Z M 218 228 " clip-rule="nonzero"/></clipPath><clipPath id="49656cb4f9"><path d="M 100.042969 117.757812 L 223.527344 67.027344 L 301.617188 257.113281 L 178.132812 307.84375 Z M 100.042969 117.757812 " clip-rule="nonzero"/></clipPath><clipPath id="5089e930b4"><path d="M 100.042969 117.757812 L 223.527344 67.027344 L 301.617188 257.113281 L 178.132812 307.84375 Z M 100.042969 117.757812 " clip-rule="nonzero"/></clipPath><clipPath id="815e38e3f3"><path d="M 100.042969 117.757812 L 223.527344 67.027344 L 301.617188 257.113281 L 178.132812 307.84375 Z M 100.042969 117.757812 " clip-rule="nonzero"/></clipPath><clipPath id="dbf58ca8ce"><path d="M 199 202 L 209 202 L 209 212 L 199 212 Z M 199 202 " clip-rule="nonzero"/></clipPath><clipPath id="7f312068c0"><path d="M 100.042969 117.757812 L 223.527344 67.027344 L 301.617188 257.113281 L 178.132812 307.84375 Z M 100.042969 117.757812 " clip-rule="nonzero"/></clipPath><clipPath id="fe5db78c1e"><path d="M 100.042969 117.757812 L 223.527344 67.027344 L 301.617188 257.113281 L 178.132812 307.84375 Z M 100.042969 117.757812 " clip-rule="nonzero"/></clipPath><clipPath id="9a15c1c2e5"><path d="M 100.042969 117.757812 L 223.527344 67.027344 L 301.617188 257.113281 L 178.132812 307.84375 Z M 100.042969 117.757812 " clip-rule="nonzero"/></clipPath><clipPath id="193d26a845"><path d="M 189 168 L 223 168 L 223 175 L 189 175 Z M 189 168 " clip-rule="nonzero"/></clipPath><clipPath id="cc98a0500d"><path d="M 100.042969 117.757812 L 223.527344 67.027344 L 301.617188 257.113281 L 178.132812 307.84375 Z M 100.042969 117.757812 " clip-rule="nonzero"/></clipPath><clipPath id="2bf04b43c8"><path d="M 100.042969 117.757812 L 223.527344 67.027344 L 301.617188 257.113281 L 178.132812 307.84375 Z M 100.042969 117.757812 " clip-rule="nonzero"/></clipPath><clipPath id="56cedfe8a9"><path d="M 100.042969 117.757812 L 223.527344 67.027344 L 301.617188 257.113281 L 178.132812 307.84375 Z M 100.042969 117.757812 " clip-rule="nonzero"/></clipPath><clipPath id="da48145afd"><path d="M 159 216 L 173 216 L 173 230 L 159 230 Z M 159 216 " clip-rule="nonzero"/></clipPath><clipPath id="4243099263"><path d="M 100.042969 117.757812 L 223.527344 67.027344 L 301.617188 257.113281 L 178.132812 307.84375 Z M 100.042969 117.757812 " clip-rule="nonzero"/></clipPath><clipPath id="f606620d48"><path d="M 100.042969 117.757812 L 223.527344 67.027344 L 301.617188 257.113281 L 178.132812 307.84375 Z M 100.042969 117.757812 " clip-rule="nonzero"/></clipPath><clipPath id="dabe7646be"><path d="M 100.042969 117.757812 L 223.527344 67.027344 L 301.617188 257.113281 L 178.132812 307.84375 Z M 100.042969 117.757812 " clip-rule="nonzero"/></clipPath><clipPath id="c030500e8b"><path d="M 194 134 L 203 134 L 203 145 L 194 145 Z M 194 134 " clip-rule="nonzero"/></clipPath><clipPath id="f53fc919fc"><path d="M 100.042969 117.757812 L 223.527344 67.027344 L 301.617188 257.113281 L 178.132812 307.84375 Z M 100.042969 117.757812 " clip-rule="nonzero"/></clipPath><clipPath id="131ce64a1a"><path d="M 100.042969 117.757812 L 223.527344 67.027344 L 301.617188 257.113281 L 178.132812 307.84375 Z M 100.042969 117.757812 " clip-rule="nonzero"/></clipPath><clipPath id="d24dec6f0c"><path d="M 100.042969 117.757812 L 223.527344 67.027344 L 301.617188 257.113281 L 178.132812 307.84375 Z M 100.042969 117.757812 " clip-rule="nonzero"/></clipPath><clipPath id="4834b0fd45"><path d="M 169 127 L 176 127 L 176 137 L 169 137 Z M 169 127 " clip-rule="nonzero"/></clipPath><clipPath id="c078c7172a"><path d="M 100.042969 117.757812 L 223.527344 67.027344 L 301.617188 257.113281 L 178.132812 307.84375 Z M 100.042969 117.757812 " clip-rule="nonzero"/></clipPath><clipPath id="b3d1dc7f68"><path d="M 100.042969 117.757812 L 223.527344 67.027344 L 301.617188 257.113281 L 178.132812 307.84375 Z M 100.042969 117.757812 " clip-rule="nonzero"/></clipPath><clipPath id="4e3c5638e7"><path d="M 100.042969 117.757812 L 223.527344 67.027344 L 301.617188 257.113281 L 178.132812 307.84375 Z M 100.042969 117.757812 " clip-rule="nonzero"/></clipPath><clipPath id="6388c651e4"><path d="M 196 139 L 198 139 L 198 142 L 196 142 Z M 196 139 " clip-rule="nonzero"/></clipPath><clipPath id="baf2d27e30"><path d="M 100.042969 117.757812 L 223.527344 67.027344 L 301.617188 257.113281 L 178.132812 307.84375 Z M 100.042969 117.757812 " clip-rule="nonzero"/></clipPath><clipPath id="1650240cfa"><path d="M 100.042969 117.757812 L 223.527344 67.027344 L 301.617188 257.113281 L 178.132812 307.84375 Z M 100.042969 117.757812 " clip-rule="nonzero"/></clipPath><clipPath id="423ca59c58"><path d="M 100.042969 117.757812 L 223.527344 67.027344 L 301.617188 257.113281 L 178.132812 307.84375 Z M 100.042969 117.757812 " clip-rule="nonzero"/></clipPath><clipPath id="377c0c014b"><path d="M 170 131 L 172 131 L 172 134 L 170 134 Z M 170 131 " clip-rule="nonzero"/></clipPath><clipPath id="339ca83dcb"><path d="M 100.042969 117.757812 L 223.527344 67.027344 L 301.617188 257.113281 L 178.132812 307.84375 Z M 100.042969 117.757812 " clip-rule="nonzero"/></clipPath><clipPath id="4a95a82165"><path d="M 100.042969 117.757812 L 223.527344 67.027344 L 301.617188 257.113281 L 178.132812 307.84375 Z M 100.042969 117.757812 " clip-rule="nonzero"/></clipPath><clipPath id="c4e198186b"><path d="M 100.042969 117.757812 L 223.527344 67.027344 L 301.617188 257.113281 L 178.132812 307.84375 Z M 100.042969 117.757812 " clip-rule="nonzero"/></clipPath><clipPath id="ac1a5f3d8d"><path d="M 177 142 L 186 142 L 186 148 L 177 148 Z M 177 142 " clip-rule="nonzero"/></clipPath><clipPath id="d77d32d4d4"><path d="M 100.042969 117.757812 L 223.527344 67.027344 L 301.617188 257.113281 L 178.132812 307.84375 Z M 100.042969 117.757812 " clip-rule="nonzero"/></clipPath><clipPath id="2aa18abbae"><path d="M 100.042969 117.757812 L 223.527344 67.027344 L 301.617188 257.113281 L 178.132812 307.84375 Z M 100.042969 117.757812 " clip-rule="nonzero"/></clipPath><clipPath id="1f85479a73"><path d="M 100.042969 117.757812 L 223.527344 67.027344 L 301.617188 257.113281 L 178.132812 307.84375 Z M 100.042969 117.757812 " clip-rule="nonzero"/></clipPath><clipPath id="10fdd0db42"><path d="M 170 150 L 189 150 L 189 159 L 170 159 Z M 170 150 " clip-rule="nonzero"/></clipPath><clipPath id="7f8cd528b7"><path d="M 100.042969 117.757812 L 223.527344 67.027344 L 301.617188 257.113281 L 178.132812 307.84375 Z M 100.042969 117.757812 " clip-rule="nonzero"/></clipPath><clipPath id="961dd85ae3"><path d="M 100.042969 117.757812 L 223.527344 67.027344 L 301.617188 257.113281 L 178.132812 307.84375 Z M 100.042969 117.757812 " clip-rule="nonzero"/></clipPath><clipPath id="3d7f240058"><path d="M 100.042969 117.757812 L 223.527344 67.027344 L 301.617188 257.113281 L 178.132812 307.84375 Z M 100.042969 117.757812 " clip-rule="nonzero"/></clipPath><clipPath id="c214844808"><path d="M 0.476562 0.828125 L 74.351562 0.828125 L 74.351562 74.703125 L 0.476562 74.703125 Z M 0.476562 0.828125 " clip-rule="nonzero"/></clipPath><clipPath id="353e1c3966"><path d="M 0.476562 0.828125 L 72 0.828125 L 72 74.703125 L 0.476562 74.703125 Z M 0.476562 0.828125 " clip-rule="nonzero"/></clipPath><clipPath id="06925b77d7"><path d="M 23.65625 12.578125 L 37.472656 12.578125 L 37.472656 26.398438 L 23.65625 26.398438 Z M 23.65625 12.578125 " clip-rule="nonzero"/></clipPath><clipPath id="74b29e159e"><path d="M 30.5625 12.578125 C 26.746094 12.578125 23.65625 15.671875 23.65625 19.488281 C 23.65625 23.304688 26.746094 26.398438 30.5625 26.398438 C 34.378906 26.398438 37.472656 23.304688 37.472656 19.488281 C 37.472656 15.671875 34.378906 12.578125 30.5625 12.578125 Z M 30.5625 12.578125 " clip-rule="nonzero"/></clipPath><clipPath id="27c3643a54"><path d="M 0.65625 0.578125 L 14.472656 0.578125 L 14.472656 14.398438 L 0.65625 14.398438 Z M 0.65625 0.578125 " clip-rule="nonzero"/></clipPath><clipPath id="a5dbf414ec"><path d="M 7.5625 0.578125 C 3.746094 0.578125 0.65625 3.671875 0.65625 7.488281 C 0.65625 11.304688 3.746094 14.398438 7.5625 14.398438 C 11.378906 14.398438 14.472656 11.304688 14.472656 7.488281 C 14.472656 3.671875 11.378906 0.578125 7.5625 0.578125 Z M 7.5625 0.578125 " clip-rule="nonzero"/></clipPath><clipPath id="c6d12cb7d8"><rect x="0" width="15" y="0" height="15"/></clipPath><clipPath id="2595e7d00a"><rect x="0" width="75" y="0" height="76"/></clipPath></defs><g clip-path="url(#cebf701815)"><g clip-path="url(#55a4123272)"><g clip-path="url(#87ff19a594)"><g clip-path="url(#137157c996)"><path fill="#ff8e7a" d="M 172.882812 228.289062 C 172.882812 228.289062 167.410156 240.21875 164.433594 239.308594 C 161.460938 238.394531 166 232.90625 164.976562 232.894531 C 163.949219 232.878906 158.59375 243.613281 156.042969 240.984375 C 153.496094 238.355469 160.113281 232.875 159.722656 231.882812 C 159.332031 230.894531 153.417969 239.621094 150.734375 237.113281 C 148.054688 234.609375 157.609375 228.640625 156.597656 227.601562 C 155.585938 226.566406 149.128906 232.605469 147.515625 229.839844 C 145.902344 227.074219 156.554688 221.933594 156.480469 220.757812 C 156.40625 219.582031 151.519531 219.375 152.226562 216.320312 C 152.929688 213.269531 159.925781 216.535156 159.925781 216.535156 L 172.882812 228.289062 " fill-opacity="1" fill-rule="nonzero"/></g></g></g></g><g clip-path="url(#2a16c6f2b0)"><g clip-path="url(#9b5ff64d36)"><g clip-path="url(#bf692e6c16)"><g clip-path="url(#c4654742df)"><g clip-path="url(#e3d51e646d)"><path fill="#704542" d="M 204.371094 276.082031 C 204.371094 276.082031 194.363281 270.222656 191.925781 275.222656 C 189.484375 280.21875 196.824219 287.894531 200.800781 289.816406 C 204.777344 291.734375 213.898438 295.160156 217.226562 291.121094 L 204.371094 276.082031 " fill-opacity="1" fill-rule="nonzero"/></g></g></g></g></g><g clip-path="url(#bb2a8b34dd)"><g clip-path="url(#80bcca6465)"><g clip-path="url(#9d2e22878d)"><g clip-path="url(#1f3dcfedcb)"><path fill="#f7b634" d="M 166.328125 208.4375 C 167.753906 206.746094 169.410156 204.875 171.269531 202.910156 C 172.207031 201.917969 173.199219 200.890625 174.238281 199.855469 C 176.652344 197.4375 178.425781 195.097656 180.082031 192.730469 C 181.585938 190.585938 182.964844 188.417969 184.605469 186.148438 L 184.644531 186.085938 C 186.730469 183.214844 188.210938 179.953125 188.9375 176.5 L 188.933594 176.480469 C 189.109375 175.695312 189.230469 174.914062 189.332031 174.113281 C 189.355469 173.867188 189.390625 173.605469 189.425781 173.347656 L 200.746094 161.785156 C 200.746094 161.785156 206.453125 158.3125 218.339844 162.96875 C 224.429688 165.363281 232.148438 169.878906 241.558594 178.082031 C 245.710938 181.695312 249.5625 185.179688 253.054688 188.542969 C 254.988281 190.390625 256.796875 192.214844 258.503906 194.003906 C 274.46875 210.746094 280.296875 224.824219 268.203125 239.101562 C 268.203125 239.101562 264.585938 243.117188 259.515625 246.820312 C 252.402344 252.027344 246.054688 258.144531 240.027344 264.546875 L 232.367188 273.097656 C 230.90625 274.816406 229.316406 276.695312 227.726562 278.578125 C 222.808594 284.382812 217.941406 290.167969 217.226562 291.121094 C 217.226562 291.121094 210.710938 287.523438 206.917969 282.046875 C 205.652344 280.253906 204.699219 278.234375 204.371094 276.082031 L 204.367188 276.0625 C 204.398438 275.960938 204.523438 275.410156 204.757812 274.488281 C 206.222656 268.953125 211.503906 250.1875 219.183594 239.382812 C 219.183594 239.382812 208.378906 227.375 199.722656 211.777344 C 199.675781 211.691406 199.636719 211.617188 199.589844 211.53125 C 186.925781 222.699219 173.617188 229.902344 173.617188 229.902344 C 163.398438 227.359375 160.085938 217.0625 159.9375 216.554688 L 159.933594 216.535156 C 159.933594 216.535156 162.273438 213.179688 166.328125 208.4375 " fill-opacity="1" fill-rule="nonzero"/></g></g></g></g><g clip-path="url(#6943528a53)"><g clip-path="url(#aeae2e27a1)"><g clip-path="url(#53438f824d)"><g clip-path="url(#40660e1d2d)"><g clip-path="url(#4239a13ed8)"><path fill="#422726" d="M 178.863281 96.800781 C 177.558594 84.964844 186.457031 82.359375 186.457031 82.359375 C 186.875 87.113281 186.859375 89.777344 193.472656 93.429688 C 198.273438 96.082031 207.066406 93.792969 221.25 98.726562 C 232.742188 102.722656 234.96875 112.46875 235.402344 116.027344 C 236.140625 114.402344 237.117188 110.84375 233.945312 107.183594 C 233.679688 106.875 233.714844 106.414062 234.019531 106.148438 C 234.324219 105.882812 234.792969 105.921875 235.054688 106.222656 C 238.558594 110.273438 237.671875 114.316406 236.824219 116.378906 C 238.425781 116.183594 241.097656 116.113281 243.894531 117.167969 C 244.273438 117.316406 244.464844 117.734375 244.320312 118.113281 C 244.175781 118.492188 243.753906 118.683594 243.375 118.539062 C 240.777344 117.558594 238.25 117.671875 236.84375 117.859375 C 238.707031 118.746094 242.203125 121.101562 245.273438 127.09375 C 249.710938 135.753906 242.617188 137.976562 242.617188 137.976562 C 247.765625 156.835938 237.414062 158.925781 237.414062 158.925781 C 233.542969 167.777344 221.847656 168.523438 221.847656 168.523438 C 209.949219 169.308594 195.222656 163.546875 188.285156 154.039062 C 174.308594 134.878906 174.777344 104.195312 174.777344 104.195312 C 170.261719 97.425781 174.976562 90.054688 174.976562 90.054688 C 176.285156 97.050781 178.863281 96.800781 178.863281 96.800781 " fill-opacity="1" fill-rule="nonzero"/></g></g></g></g></g><g clip-path="url(#eeacee65d2)"><g clip-path="url(#1f3d47035c)"><g clip-path="url(#a406b5c719)"><g clip-path="url(#9de6499a9c)"><path fill="#ff8e7a" d="M 167.972656 118.902344 C 165.554688 133.644531 152.0625 149.542969 167.867188 163.828125 C 183.664062 178.125 211.816406 176.195312 221.851562 168.519531 C 221.851562 168.519531 218.921875 167.78125 217.066406 164.851562 C 220.117188 165.441406 223.1875 164.949219 225.625 163.339844 C 229.066406 161.046875 232.414062 155.753906 230.117188 150.863281 C 228.507812 147.460938 224.671875 145.371094 220.53125 145.636719 L 220.53125 145.582031 C 220.398438 143.160156 221.664062 140.902344 223.722656 139.605469 C 225.398438 138.542969 226.773438 136.925781 226.050781 134.597656 C 224.707031 130.226562 217.566406 132.835938 215.632812 133.632812 C 216.917969 133.035156 220.324219 131.085938 221.273438 126.988281 C 221.28125 126.976562 221.269531 126.96875 221.277344 126.957031 C 221.792969 124.707031 221.566406 121.796875 219.820312 118.105469 C 219.304688 117.035156 218.714844 116.054688 218.035156 115.171875 C 216.757812 113.480469 215.214844 112.101562 213.484375 110.96875 C 213.441406 110.957031 213.390625 110.925781 213.355469 110.902344 C 210.546875 109.378906 206.398438 108.347656 200.550781 109.777344 C 187.84375 112.875 182.800781 108.042969 182.800781 108.042969 C 182.800781 108.042969 187.9375 108.449219 189.273438 104.382812 C 189.273438 104.382812 180.117188 110.28125 174.707031 104.265625 C 172.179688 106.75 169.226562 111.195312 167.972656 118.902344 " fill-opacity="1" fill-rule="nonzero"/></g></g></g></g><g clip-path="url(#d7dfd82614)"><g clip-path="url(#3d3dfd7ddb)"><g clip-path="url(#6270c5832c)"><g clip-path="url(#c502298d9a)"><path fill="#422726" d="M 206.433594 126.0625 C 207.628906 124.871094 207.472656 121.902344 204.410156 119.730469 C 201.46875 117.644531 198.667969 118.503906 197.917969 120.011719 C 197.148438 121.566406 198.953125 121.136719 202.128906 123.25 C 205.039062 125.1875 205.367188 127.121094 206.433594 126.0625 " fill-opacity="1" fill-rule="nonzero"/></g></g></g></g><g clip-path="url(#407068bc3e)"><g clip-path="url(#87f2da0ce7)"><g clip-path="url(#ea9db923f2)"><g clip-path="url(#2fa8392b0a)"><path fill="#422726" d="M 179.667969 114.917969 C 180.046875 113.734375 178.855469 111.570312 176.199219 111.386719 C 173.648438 111.207031 172.273438 113.1875 172.285156 114.394531 C 172.300781 115.636719 173.308594 114.695312 176.015625 114.800781 C 178.5 114.902344 179.335938 115.964844 179.667969 114.917969 " fill-opacity="1" fill-rule="nonzero"/></g></g></g></g><g clip-path="url(#deb8fa3463)"><g clip-path="url(#ecaee156ff)"><g clip-path="url(#54f97469ea)"><g clip-path="url(#40fd0fb8e8)"><path fill="#fdd06a" d="M 266.683594 219.308594 C 268.367188 220.964844 268.203125 223.832031 266.449219 225.296875 C 264.519531 226.910156 261.417969 226.195312 260.265625 224.09375 C 259.414062 222.542969 259.738281 220.4375 261.152344 219.179688 C 262.722656 217.785156 265.191406 217.84375 266.683594 219.308594 " fill-opacity="1" fill-rule="nonzero"/></g></g></g></g><g clip-path="url(#c4ca9cbc29)"><g clip-path="url(#e0f60f2a76)"><g clip-path="url(#7c62d6b256)"><g clip-path="url(#3a7f6cc9c3)"><path fill="#fdd06a" d="M 251.375 193.984375 C 252.53125 196.089844 255.625 196.796875 257.5625 195.1875 C 257.964844 194.855469 258.273438 194.449219 258.503906 194.003906 C 256.796875 192.214844 254.988281 190.390625 253.054688 188.542969 C 252.765625 188.683594 252.503906 188.859375 252.257812 189.066406 C 250.84375 190.320312 250.527344 192.441406 251.375 193.984375 " fill-opacity="1" fill-rule="nonzero"/></g></g></g></g><g clip-path="url(#7ff27d2d69)"><g clip-path="url(#92db6b48a7)"><g clip-path="url(#dfc4253193)"><g clip-path="url(#187cf33652)"><path fill="#fdd06a" d="M 242.992188 208.179688 C 244.675781 209.835938 244.511719 212.703125 242.757812 214.167969 C 240.828125 215.777344 237.726562 215.066406 236.574219 212.964844 C 235.722656 211.414062 236.042969 209.304688 237.457031 208.050781 C 239.03125 206.65625 241.5 206.710938 242.992188 208.179688 " fill-opacity="1" fill-rule="nonzero"/></g></g></g></g><g clip-path="url(#c3ac44a556)"><g clip-path="url(#f28dabf82e)"><g clip-path="url(#32ff23826a)"><g clip-path="url(#7fa8e6912c)"><path fill="#fdd06a" d="M 250.015625 244.484375 C 251.699219 246.140625 251.535156 249.007812 249.78125 250.472656 C 247.851562 252.082031 244.75 251.371094 243.597656 249.269531 C 242.746094 247.71875 243.066406 245.609375 244.480469 244.355469 C 246.054688 242.960938 248.523438 243.015625 250.015625 244.484375 " fill-opacity="1" fill-rule="nonzero"/></g></g></g></g><g clip-path="url(#3f2ebe95dd)"><g clip-path="url(#228c14e0c4)"><g clip-path="url(#c1496a9d26)"><g clip-path="url(#2986cc3935)"><path fill="#fdd06a" d="M 218.5 241.960938 C 219.074219 241.449219 219.785156 241.132812 220.511719 241.023438 C 221.769531 240.8125 223.097656 241.175781 224.035156 242.089844 C 225.730469 243.746094 225.554688 246.617188 223.800781 248.085938 C 221.871094 249.683594 218.777344 248.976562 217.621094 246.871094 C 217.507812 246.667969 217.410156 246.445312 217.347656 246.226562 C 216.878906 244.777344 217.269531 243.042969 218.5 241.960938 " fill-opacity="1" fill-rule="nonzero"/></g></g></g></g><g clip-path="url(#ff2b11dc37)"><g clip-path="url(#d6f87b6933)"><g clip-path="url(#0791447a40)"><g clip-path="url(#25ff0651a4)"><path fill="#fdd06a" d="M 225.097656 276.628906 C 225.640625 277.632812 226.628906 278.316406 227.726562 278.578125 C 229.316406 276.695312 230.90625 274.816406 232.367188 273.097656 C 232.171875 272.628906 231.890625 272.210938 231.511719 271.832031 C 230.023438 270.367188 227.550781 270.308594 225.984375 271.710938 C 224.570312 272.964844 224.238281 275.078125 225.097656 276.628906 " fill-opacity="1" fill-rule="nonzero"/></g></g></g></g><g clip-path="url(#7f8bd16e60)"><g clip-path="url(#b20b8cebf0)"><g clip-path="url(#c84a446409)"><g clip-path="url(#3a1a6deff2)"><path fill="#fdd06a" d="M 204.757812 274.488281 C 204.523438 275.410156 204.398438 275.960938 204.367188 276.0625 L 204.371094 276.082031 C 204.699219 278.234375 205.652344 280.253906 206.917969 282.046875 C 207.714844 282.015625 208.503906 281.738281 209.160156 281.1875 C 210.90625 279.730469 211.078125 276.859375 209.382812 275.207031 C 208.148438 274 206.261719 273.753906 204.757812 274.488281 " fill-opacity="1" fill-rule="nonzero"/></g></g></g></g><g clip-path="url(#3b61d464f9)"><g clip-path="url(#d502bef3c4)"><g clip-path="url(#dab6ff0ac6)"><g clip-path="url(#39e09b2fae)"><path fill="#fdd06a" d="M 231.398438 179.671875 C 232.839844 181.542969 232.28125 184.363281 230.34375 185.574219 C 228.210938 186.90625 225.238281 185.777344 224.382812 183.535156 C 223.753906 181.882812 224.359375 179.835938 225.933594 178.789062 C 227.679688 177.621094 230.121094 178.015625 231.398438 179.671875 " fill-opacity="1" fill-rule="nonzero"/></g></g></g></g><g clip-path="url(#13f57375f3)"><g clip-path="url(#993295546f)"><g clip-path="url(#31279ed9d7)"><g clip-path="url(#db03e2ef9a)"><path fill="#fdd06a" d="M 214.828125 210.214844 C 216.269531 212.085938 215.714844 214.90625 213.777344 216.117188 C 211.644531 217.449219 208.671875 216.320312 207.816406 214.082031 C 207.1875 212.425781 207.792969 210.382812 209.367188 209.332031 C 211.113281 208.164062 213.554688 208.558594 214.828125 210.214844 " fill-opacity="1" fill-rule="nonzero"/></g></g></g></g><g clip-path="url(#a1f1e0b424)"><g clip-path="url(#83d208c087)"><g clip-path="url(#84363e9af3)"><g clip-path="url(#cf6cc29ec7)"><path fill="#fdd06a" d="M 180.082031 192.730469 C 180.085938 192.753906 180.109375 192.769531 180.121094 192.777344 C 181.890625 194.394531 185.058594 194.054688 186.351562 191.90625 C 187.535156 189.945312 186.75 187.1875 184.628906 186.164062 C 184.617188 186.15625 184.617188 186.15625 184.605469 186.148438 C 182.964844 188.417969 181.585938 190.582031 180.082031 192.730469 " fill-opacity="1" fill-rule="nonzero"/></g></g></g></g><g clip-path="url(#9b2fddfbec)"><g clip-path="url(#cd53c56230)"><g clip-path="url(#202c83578a)"><g clip-path="url(#420f5cd1f1)"><path fill="#fdd06a" d="M 179.820312 218.296875 C 180.820312 218.777344 181.527344 219.644531 181.875 220.621094 C 182.257812 221.726562 182.175781 223 181.550781 224.027344 C 180.257812 226.175781 177.089844 226.515625 175.3125 224.910156 C 175.289062 224.894531 175.273438 224.867188 175.257812 224.835938 C 174 223.636719 173.636719 221.585938 174.546875 219.976562 C 175.578125 218.140625 177.921875 217.390625 179.820312 218.296875 " fill-opacity="1" fill-rule="nonzero"/></g></g></g></g><g clip-path="url(#8d7cd1b4c2)"><g clip-path="url(#a351d9f7be)"><g clip-path="url(#3e5c8e4cae)"><g clip-path="url(#00e6cc2803)"><path fill="#fdd06a" d="M 209.785156 182.253906 C 211.921875 183.273438 212.699219 186.039062 211.519531 187.992188 C 210.21875 190.144531 207.054688 190.480469 205.277344 188.867188 C 203.96875 187.679688 203.585938 185.582031 204.511719 183.9375 C 205.542969 182.105469 207.898438 181.355469 209.785156 182.253906 " fill-opacity="1" fill-rule="nonzero"/></g></g></g></g><g clip-path="url(#1c3f1ef0ba)"><g clip-path="url(#008469d0a3)"><g clip-path="url(#23da287e0e)"><g clip-path="url(#7fc7f13089)"><path fill="#fdd06a" d="M 166.328125 208.4375 C 166.535156 208.914062 166.84375 209.351562 167.238281 209.707031 C 169.011719 211.324219 172.175781 210.984375 173.46875 208.835938 C 174.65625 206.875 173.875 204.105469 171.746094 203.09375 C 171.585938 203.019531 171.433594 202.953125 171.269531 202.910156 C 169.410156 204.875 167.753906 206.746094 166.328125 208.4375 " fill-opacity="1" fill-rule="nonzero"/></g></g></g></g><g clip-path="url(#aa58a73406)"><g clip-path="url(#7dc3f6cf4f)"><g clip-path="url(#004c6751a2)"><g clip-path="url(#7d579f08f7)"><path fill="#f27070" d="M 203.859375 149.625 C 207.375 151.988281 208.449219 157.277344 205.6875 160.605469 C 203.214844 163.582031 198.578125 163.898438 195.503906 161.652344 C 192.238281 159.261719 191.21875 154.316406 193.804688 151.023438 C 196.222656 147.945312 200.800781 147.566406 203.859375 149.625 " fill-opacity="1" fill-rule="nonzero"/></g></g></g></g><g clip-path="url(#5e04e1474f)"><g clip-path="url(#d33d766928)"><g clip-path="url(#62a2ac46d9)"><g clip-path="url(#dc9ebe62e4)"><path fill="#4f302d" d="M 201.992188 261.9375 C 200.304688 262.277344 198.761719 263.765625 199.117188 266.324219 C 199.75 270.835938 202.816406 274.117188 203.785156 275.058594 C 204.660156 273.777344 207.628906 269.019531 206.519531 264.835938 C 206.230469 263.734375 205.644531 262.972656 204.9375 262.496094 C 204.042969 261.894531 202.953125 261.742188 201.992188 261.9375 Z M 203.605469 275.890625 C 203.425781 275.734375 199.183594 272.058594 198.394531 266.425781 C 197.96875 263.398438 199.824219 261.628906 201.847656 261.21875 C 203.957031 260.792969 206.480469 261.835938 207.226562 264.648438 C 208.609375 269.859375 204.316406 275.589844 204.132812 275.832031 C 204.074219 275.910156 203.980469 275.960938 203.882812 275.972656 C 203.792969 275.984375 203.707031 275.960938 203.636719 275.914062 C 203.625 275.90625 203.617188 275.898438 203.605469 275.890625 " fill-opacity="1" fill-rule="nonzero"/></g></g></g></g><g clip-path="url(#c01e408e14)"><g clip-path="url(#4d76bb4edb)"><g clip-path="url(#095e37824a)"><g clip-path="url(#e91e955d77)"><path fill="#4f302d" d="M 214.039062 272.765625 C 209.480469 272.566406 205.6875 274.980469 204.585938 275.761719 C 205.683594 276.855469 209.824219 280.632812 214.144531 280.304688 C 216.714844 280.109375 217.855469 278.132812 217.828125 276.382812 C 217.8125 275.277344 217.316406 274.144531 216.28125 273.449219 C 215.707031 273.058594 214.960938 272.804688 214.039062 272.765625 Z M 203.761719 275.964844 C 203.691406 275.890625 203.660156 275.789062 203.667969 275.691406 C 203.675781 275.589844 203.722656 275.496094 203.800781 275.433594 C 203.984375 275.285156 208.382812 271.785156 214.074219 272.035156 C 217.128906 272.167969 218.527344 274.308594 218.558594 276.371094 C 218.59375 278.519531 217.105469 280.8125 214.199219 281.035156 C 211.511719 281.238281 208.957031 280.03125 207.046875 278.742188 C 205.128906 277.449219 203.863281 276.074219 203.761719 275.964844 " fill-opacity="1" fill-rule="nonzero"/></g></g></g></g><g clip-path="url(#dd107cb344)"><g clip-path="url(#49656cb4f9)"><g clip-path="url(#5089e930b4)"><g clip-path="url(#815e38e3f3)"><path fill="#4f302d" d="M 218.976562 239.6875 C 219.144531 239.800781 219.371094 239.753906 219.484375 239.589844 C 219.53125 239.519531 224.261719 232.585938 228.46875 228.96875 C 228.621094 228.835938 228.640625 228.605469 228.507812 228.453125 C 228.375 228.300781 228.144531 228.28125 227.992188 228.414062 C 223.710938 232.09375 218.925781 239.109375 218.878906 239.179688 C 218.765625 239.34375 218.808594 239.574219 218.976562 239.6875 " fill-opacity="1" fill-rule="nonzero"/></g></g></g></g><g clip-path="url(#dbf58ca8ce)"><g clip-path="url(#7f312068c0)"><g clip-path="url(#fe5db78c1e)"><g clip-path="url(#9a15c1c2e5)"><path fill="#4f302d" d="M 199.382812 211.832031 C 199.523438 211.925781 199.710938 211.914062 199.839844 211.796875 C 199.878906 211.761719 203.710938 208.199219 207.972656 203.191406 C 208.101562 203.035156 208.085938 202.804688 207.929688 202.675781 C 207.773438 202.546875 207.546875 202.5625 207.414062 202.71875 C 203.183594 207.6875 199.378906 211.226562 199.339844 211.261719 C 199.191406 211.398438 199.183594 211.632812 199.320312 211.777344 C 199.339844 211.800781 199.363281 211.816406 199.382812 211.832031 " fill-opacity="1" fill-rule="nonzero"/></g></g></g></g><g clip-path="url(#193d26a845)"><g clip-path="url(#cc98a0500d)"><g clip-path="url(#2bf04b43c8)"><g clip-path="url(#56cedfe8a9)"><path fill="#4f302d" d="M 189.222656 173.648438 C 189.265625 173.679688 189.316406 173.699219 189.375 173.710938 C 200.976562 175.304688 209.234375 173.898438 214.117188 172.4375 C 219.4375 170.84375 221.972656 168.890625 222.078125 168.808594 C 222.238281 168.683594 222.265625 168.453125 222.140625 168.296875 C 222.015625 168.136719 221.785156 168.109375 221.625 168.234375 C 221.527344 168.3125 211.367188 175.996094 189.476562 172.984375 C 189.277344 172.957031 189.089844 173.097656 189.0625 173.296875 C 189.042969 173.4375 189.109375 173.574219 189.222656 173.648438 " fill-opacity="1" fill-rule="nonzero"/></g></g></g></g><g clip-path="url(#da48145afd)"><g clip-path="url(#4243099263)"><g clip-path="url(#f606620d48)"><g clip-path="url(#dabe7646be)"><path fill="#4f302d" d="M 167.878906 227.953125 C 170.257812 229.554688 172.085938 229.851562 172.242188 229.875 C 172.441406 229.90625 172.625 229.769531 172.65625 229.566406 C 172.6875 229.367188 172.546875 229.183594 172.347656 229.152344 C 172.273438 229.140625 164.769531 227.878906 160.273438 216.402344 C 160.199219 216.214844 159.988281 216.121094 159.800781 216.195312 C 159.609375 216.269531 159.519531 216.480469 159.589844 216.667969 C 162.027344 222.886719 165.28125 226.199219 167.878906 227.953125 " fill-opacity="1" fill-rule="nonzero"/></g></g></g></g><g clip-path="url(#c030500e8b)"><g clip-path="url(#f53fc919fc)"><g clip-path="url(#131ce64a1a)"><g clip-path="url(#d24dec6f0c)"><path fill="#3a2121" d="M 197.066406 144.089844 C 198.960938 144.792969 201.296875 143.207031 202.285156 140.550781 C 203.273438 137.890625 202.539062 135.171875 200.644531 134.46875 C 198.75 133.765625 196.417969 135.351562 195.429688 138.007812 C 194.441406 140.667969 195.175781 143.390625 197.066406 144.089844 " fill-opacity="1" fill-rule="nonzero"/></g></g></g></g><g clip-path="url(#4834b0fd45)"><g clip-path="url(#c078c7172a)"><g clip-path="url(#b3d1dc7f68)"><g clip-path="url(#4e3c5638e7)"><path fill="#3a2121" d="M 171.605469 136.042969 C 173.332031 136.3125 175.039062 134.570312 175.421875 132.152344 C 175.804688 129.730469 174.71875 127.554688 172.992188 127.28125 C 171.269531 127.015625 169.558594 128.757812 169.175781 131.175781 C 168.792969 133.59375 169.882812 135.773438 171.605469 136.042969 " fill-opacity="1" fill-rule="nonzero"/></g></g></g></g><g clip-path="url(#6388c651e4)"><g clip-path="url(#baf2d27e30)"><g clip-path="url(#1650240cfa)"><g clip-path="url(#423ca59c58)"><path fill="#f4ebd3" d="M 196.707031 141.351562 C 197.085938 141.523438 197.585938 141.238281 197.828125 140.707031 C 198.070312 140.179688 197.964844 139.613281 197.585938 139.441406 C 197.210938 139.265625 196.707031 139.554688 196.464844 140.082031 C 196.222656 140.613281 196.332031 141.179688 196.707031 141.351562 " fill-opacity="1" fill-rule="nonzero"/></g></g></g></g><g clip-path="url(#377c0c014b)"><g clip-path="url(#339ca83dcb)"><g clip-path="url(#4a95a82165)"><g clip-path="url(#c4e198186b)"><path fill="#f4ebd3" d="M 171.023438 133.648438 C 171.371094 133.730469 171.746094 133.398438 171.859375 132.910156 C 171.976562 132.421875 171.789062 131.960938 171.441406 131.878906 C 171.089844 131.796875 170.714844 132.128906 170.597656 132.617188 C 170.484375 133.105469 170.671875 133.566406 171.023438 133.648438 " fill-opacity="1" fill-rule="nonzero"/></g></g></g></g><g clip-path="url(#ac1a5f3d8d)"><g clip-path="url(#d77d32d4d4)"><g clip-path="url(#2aa18abbae)"><g clip-path="url(#1f85479a73)"><path fill="#4f302d" d="M 179.429688 146.882812 C 179.589844 146.992188 179.757812 147.089844 179.9375 147.179688 C 181.78125 148.101562 184.066406 147.71875 185.632812 146.226562 C 185.777344 146.089844 185.785156 145.855469 185.644531 145.710938 C 185.507812 145.566406 185.273438 145.558594 185.128906 145.699219 C 183.785156 146.976562 181.832031 147.308594 180.265625 146.527344 C 178.269531 145.53125 178.007812 143.238281 178 143.140625 C 177.980469 142.941406 177.800781 142.796875 177.597656 142.816406 C 177.398438 142.835938 177.25 143.015625 177.273438 143.214844 C 177.28125 143.320312 177.539062 145.609375 179.429688 146.882812 " fill-opacity="1" fill-rule="nonzero"/></g></g></g></g><g clip-path="url(#10fdd0db42)"><g clip-path="url(#7f8cd528b7)"><g clip-path="url(#961dd85ae3)"><g clip-path="url(#3d7f240058)"><path fill="#4f302d" d="M 174.867188 156.234375 C 175.554688 156.695312 176.332031 157.113281 177.214844 157.445312 C 182.742188 159.519531 187.5625 156.386719 188.09375 156.023438 C 188.261719 155.910156 188.304688 155.679688 188.191406 155.515625 C 188.078125 155.347656 187.847656 155.304688 187.679688 155.417969 C 187.183594 155.761719 182.652344 158.703125 177.472656 156.761719 C 173.652344 155.324219 171.902344 152.195312 171.328125 150.914062 C 171.246094 150.730469 171.027344 150.648438 170.84375 150.730469 C 170.660156 150.8125 170.578125 151.027344 170.660156 151.210938 C 171.140625 152.28125 172.386719 154.5625 174.867188 156.234375 " fill-opacity="1" fill-rule="nonzero"/></g></g></g></g><g transform="matrix(1, 0, 0, 1, 73, 164)"><g clip-path="url(#2595e7d00a)"><g clip-path="url(#c214844808)"><path fill="#f4c226" d="M 74.46875 37.824219 C 74.46875 58.257812 57.902344 74.820312 37.46875 74.820312 C 17.039062 74.820312 0.476562 58.257812 0.476562 37.824219 C 0.476562 17.390625 17.039062 0.828125 37.46875 0.828125 C 57.902344 0.828125 74.46875 17.390625 74.46875 37.824219 " fill-opacity="1" fill-rule="nonzero"/></g><g clip-path="url(#353e1c3966)"><path fill="#ed664f" d="M 42.175781 74.523438 C 55.46875 72.835938 66.5625 64.09375 71.585938 52.164062 C 66.71875 43.179688 55.214844 27.113281 33.585938 22.65625 L 35.4375 17.105469 C 35.4375 17.105469 43.222656 7.300781 63.644531 11.679688 C 56.949219 4.976562 47.695312 0.828125 37.46875 0.828125 C 35.390625 0.828125 33.351562 1.003906 31.363281 1.332031 C 30.070312 4.671875 28.78125 9.589844 29.230469 15.257812 L 25.816406 17.292969 C 25.816406 17.292969 18.984375 14.8125 7.5625 16.050781 C 3.105469 22.160156 0.476562 29.683594 0.476562 37.824219 C 0.476562 44.125 2.050781 50.054688 4.828125 55.246094 C 6.652344 44.945312 11.671875 30.425781 25.445312 23.765625 L 29.230469 26.171875 C 29.230469 26.171875 26.777344 57.945312 42.175781 74.523438 " fill-opacity="1" fill-rule="nonzero"/></g><path fill="#ed664f" d="M 36.199219 20.167969 C 36.199219 23.8125 33.246094 26.765625 29.601562 26.765625 C 25.957031 26.765625 23.003906 23.8125 23.003906 20.167969 C 23.003906 16.523438 25.957031 13.566406 29.601562 13.566406 C 33.246094 13.566406 36.199219 16.523438 36.199219 20.167969 " fill-opacity="1" fill-rule="nonzero"/><path fill="#ffffff" d="M 29.601562 17.742188 C 28.320312 17.742188 27.246094 18.746094 27.179688 20.039062 C 27.109375 21.375 28.140625 22.519531 29.476562 22.589844 C 30.8125 22.660156 31.953125 21.628906 32.023438 20.292969 C 32.09375 18.957031 31.0625 17.8125 29.726562 17.742188 C 29.683594 17.742188 29.640625 17.742188 29.601562 17.742188 Z M 29.605469 22.949219 C 29.554688 22.949219 29.507812 22.949219 29.457031 22.945312 C 28.714844 22.90625 28.03125 22.582031 27.535156 22.027344 C 27.039062 21.476562 26.785156 20.765625 26.824219 20.023438 C 26.902344 18.492188 28.222656 17.308594 29.746094 17.386719 C 31.277344 17.46875 32.460938 18.777344 32.378906 20.3125 C 32.339844 21.054688 32.015625 21.734375 31.464844 22.234375 C 30.949219 22.699219 30.292969 22.949219 29.605469 22.949219 " fill-opacity="1" fill-rule="nonzero"/><path fill="#ed853e" d="M 24.066406 23.9375 C 24.007812 23.9375 23.953125 23.910156 23.917969 23.859375 C 23.203125 22.761719 22.824219 21.484375 22.824219 20.167969 C 22.824219 19.128906 23.054688 18.132812 23.503906 17.207031 C 23.546875 17.121094 23.652344 17.082031 23.742188 17.125 C 23.828125 17.167969 23.867188 17.273438 23.824219 17.363281 C 23.398438 18.242188 23.179688 19.183594 23.179688 20.167969 C 23.179688 21.414062 23.539062 22.625 24.214844 23.664062 C 24.269531 23.746094 24.246094 23.855469 24.164062 23.910156 C 24.132812 23.929688 24.101562 23.9375 24.066406 23.9375 " fill-opacity="1" fill-rule="nonzero"/><path fill="#ed853e" d="M 29.726562 26.941406 C 29.628906 26.941406 29.550781 26.863281 29.546875 26.769531 C 29.546875 26.667969 29.625 26.589844 29.722656 26.585938 C 31.957031 26.542969 34.042969 25.316406 35.164062 23.378906 C 35.210938 23.292969 35.320312 23.265625 35.40625 23.3125 C 35.492188 23.363281 35.519531 23.472656 35.46875 23.554688 C 34.289062 25.601562 32.085938 26.898438 29.730469 26.941406 C 29.726562 26.941406 29.726562 26.941406 29.726562 26.941406 " fill-opacity="1" fill-rule="nonzero"/><path fill="#ed853e" d="M 35.070312 16.652344 C 35.015625 16.652344 34.957031 16.625 34.925781 16.574219 C 33.753906 14.84375 31.808594 13.785156 29.722656 13.746094 C 29.625 13.746094 29.546875 13.664062 29.546875 13.566406 C 29.550781 13.46875 29.628906 13.390625 29.726562 13.390625 C 29.726562 13.390625 29.726562 13.390625 29.730469 13.390625 C 31.929688 13.433594 33.984375 14.546875 35.21875 16.375 C 35.273438 16.457031 35.253906 16.570312 35.171875 16.625 C 35.140625 16.644531 35.105469 16.652344 35.070312 16.652344 " fill-opacity="1" fill-rule="nonzero"/><path fill="#ffffff" d="M 68.792969 30.066406 C 68.714844 30.066406 68.644531 30.011719 68.621094 29.933594 C 63.921875 12.246094 50.824219 8.152344 50.695312 8.113281 C 50.601562 8.085938 50.546875 7.984375 50.574219 7.890625 C 50.601562 7.796875 50.703125 7.742188 50.796875 7.769531 C 50.929688 7.8125 64.210938 11.953125 68.964844 29.839844 C 68.992188 29.9375 68.933594 30.03125 68.839844 30.058594 C 68.824219 30.0625 68.808594 30.066406 68.792969 30.066406 " fill-opacity="1" fill-rule="nonzero"/><path fill="#ffffff" d="M 36.285156 70.449219 C 28.570312 70.449219 22.988281 67.984375 22.929688 67.957031 C 22.839844 67.917969 22.800781 67.8125 22.839844 67.722656 C 22.878906 67.632812 22.984375 67.59375 23.074219 67.632812 C 23.136719 67.660156 29.183594 70.320312 37.371094 70.078125 C 44.925781 69.847656 55.902344 67.015625 65.316406 54.839844 C 65.375 54.761719 65.488281 54.75 65.566406 54.808594 C 65.644531 54.867188 65.660156 54.980469 65.597656 55.058594 C 56.09375 67.347656 45 70.203125 37.367188 70.433594 C 37.003906 70.445312 36.640625 70.449219 36.285156 70.449219 " fill-opacity="1" fill-rule="nonzero"/><path fill="#ffffff" d="M 5.164062 33.226562 C 5.066406 33.226562 4.988281 33.148438 4.988281 33.054688 C 4.984375 32.972656 4.804688 25.105469 9.574219 18.515625 C 9.632812 18.433594 9.742188 18.417969 9.824219 18.472656 C 9.902344 18.53125 9.921875 18.644531 9.863281 18.722656 C 5.164062 25.21875 5.339844 32.964844 5.34375 33.042969 C 5.34375 33.140625 5.269531 33.222656 5.167969 33.226562 C 5.167969 33.226562 5.164062 33.226562 5.164062 33.226562 " fill-opacity="1" fill-rule="nonzero"/><g clip-path="url(#06925b77d7)"><g clip-path="url(#74b29e159e)"><g transform="matrix(1, 0, 0, 1, 23, 12)"><g clip-path="url(#c6d12cb7d8)"><g clip-path="url(#27c3643a54)"><g clip-path="url(#a5dbf414ec)"><path fill="#ffda9e" d="M 0.65625 0.578125 L 14.472656 0.578125 L 14.472656 14.398438 L 0.65625 14.398438 Z M 0.65625 0.578125 " fill-opacity="1" fill-rule="nonzero"/></g></g></g></g></g></g></g></g></svg>