<svg xmlns="http://www.w3.org/2000/svg" xmlns:xlink="http://www.w3.org/1999/xlink" width="500" zoomAndPan="magnify" viewBox="0 0 375 374.999991" height="500" preserveAspectRatio="xMidYMid meet" version="1.0"><defs><clipPath id="eabe2998f9"><path d="M 56 66 L 321 66 L 321 310 L 56 310 Z M 56 66 " clip-rule="nonzero"/></clipPath><clipPath id="11267e9cdc"><path d="M 51.816406 72.78125 L 314.128906 62.859375 L 323.171875 301.9375 L 60.859375 311.859375 Z M 51.816406 72.78125 " clip-rule="nonzero"/></clipPath><clipPath id="e36de89237"><path d="M 51.816406 72.78125 L 314.128906 62.859375 L 323.171875 301.9375 L 60.859375 311.859375 Z M 51.816406 72.78125 " clip-rule="nonzero"/></clipPath><clipPath id="1e21e1b8b0"><path d="M 51.953125 72.773438 L 313.996094 62.863281 L 323.046875 302.214844 L 61.007812 312.125 Z M 51.953125 72.773438 " clip-rule="nonzero"/></clipPath><clipPath id="898be2d098"><path d="M 164 85 L 313 85 L 313 235 L 164 235 Z M 164 85 " clip-rule="nonzero"/></clipPath><clipPath id="43182171f1"><path d="M 51.816406 72.78125 L 314.128906 62.859375 L 323.171875 301.9375 L 60.859375 311.859375 Z M 51.816406 72.78125 " clip-rule="nonzero"/></clipPath><clipPath id="ba3f6e3228"><path d="M 51.816406 72.78125 L 314.128906 62.859375 L 323.171875 301.9375 L 60.859375 311.859375 Z M 51.816406 72.78125 " clip-rule="nonzero"/></clipPath><clipPath id="6cad871ff6"><path d="M 163 112 L 313 112 L 313 231 L 163 231 Z M 163 112 " clip-rule="nonzero"/></clipPath><clipPath id="7f35c003eb"><path d="M 51.816406 72.78125 L 314.128906 62.859375 L 323.171875 301.9375 L 60.859375 311.859375 Z M 51.816406 72.78125 " clip-rule="nonzero"/></clipPath><clipPath id="c9bbae5237"><path d="M 51.816406 72.78125 L 314.128906 62.859375 L 323.171875 301.9375 L 60.859375 311.859375 Z M 51.816406 72.78125 " clip-rule="nonzero"/></clipPath><clipPath id="a2ad647e42"><path d="M 63 137 L 214 137 L 214 284 L 63 284 Z M 63 137 " clip-rule="nonzero"/></clipPath><clipPath id="5e6148074d"><path d="M 51.816406 72.78125 L 314.128906 62.859375 L 323.171875 301.9375 L 60.859375 311.859375 Z M 51.816406 72.78125 " clip-rule="nonzero"/></clipPath><clipPath id="99942a1a66"><path d="M 51.816406 72.78125 L 314.128906 62.859375 L 323.171875 301.9375 L 60.859375 311.859375 Z M 51.816406 72.78125 " clip-rule="nonzero"/></clipPath><clipPath id="7a037e7fb9"><path d="M 63 161 L 214 161 L 214 277 L 63 277 Z M 63 161 " clip-rule="nonzero"/></clipPath><clipPath id="39b12a5036"><path d="M 51.816406 72.78125 L 314.128906 62.859375 L 323.171875 301.9375 L 60.859375 311.859375 Z M 51.816406 72.78125 " clip-rule="nonzero"/></clipPath><clipPath id="632a56b7d0"><path d="M 51.816406 72.78125 L 314.128906 62.859375 L 323.171875 301.9375 L 60.859375 311.859375 Z M 51.816406 72.78125 " clip-rule="nonzero"/></clipPath></defs><g clip-path="url(#eabe2998f9)"><g clip-path="url(#11267e9cdc)"><g clip-path="url(#e36de89237)"><g clip-path="url(#1e21e1b8b0)"><path fill="#ed664f" d="M 242.113281 235.925781 C 238.65625 238.523438 235.480469 241.476562 232.628906 244.710938 C 233.890625 235.746094 240.285156 227.339844 247.238281 222.121094 C 256.882812 214.878906 269.542969 211.371094 281.503906 211.492188 C 288.414062 211.566406 295.179688 212.839844 301.636719 215.285156 C 303.960938 216.164062 306.375 212.78125 304.371094 211.050781 C 272.519531 183.542969 255.074219 144.082031 242.933594 104.65625 C 242.410156 102.957031 241.898438 101.253906 241.390625 99.550781 C 245.332031 98.746094 249.300781 97.226562 252.703125 95 C 259.921875 111.824219 267.691406 128.410156 276.027344 144.710938 C 284.707031 161.667969 294.257812 178.070312 303.738281 194.582031 C 308.527344 202.921875 312.878906 211.589844 314.5 221.085938 C 289.429688 219.015625 262.960938 220.265625 242.113281 235.925781 M 149.039062 284.015625 C 144.335938 289.234375 140.179688 294.898438 136.636719 300.949219 C 122.203125 269.898438 106.898438 238.441406 82.535156 213.863281 C 76.289062 207.5625 69.492188 201.808594 62.1875 196.777344 C 64.546875 186.570312 67.839844 176.621094 72.042969 167.027344 C 90.125 190.242188 106.886719 214.476562 122.1875 239.621094 C 127.570312 248.46875 132.769531 257.421875 137.792969 266.472656 C 138.59375 267.917969 140.613281 268.375 141.863281 267.1875 C 159.613281 250.355469 186.179688 244.804688 209.863281 248.65625 C 212.042969 249.011719 214.207031 249.46875 216.347656 250.011719 C 190.761719 252.722656 166.378906 264.789062 149.039062 284.015625 M 144.117188 134.746094 C 156.453125 140.070312 164.070312 152.289062 170.957031 163.1875 C 179.804688 177.183594 188.644531 191.183594 197.492188 205.179688 C 206.25 219.039062 215.007812 232.902344 223.765625 246.761719 C 201.839844 239.335938 176.375 241.078125 155.746094 251.28125 C 150.378906 253.9375 145.328125 257.25 140.78125 261.15625 C 123.15625 229.726562 103.359375 199.527344 81.550781 170.839844 C 76.09375 163.667969 70.503906 156.597656 64.800781 149.617188 C 78.882812 146.328125 91.847656 139.632812 105.636719 135.34375 C 117.96875 131.507812 131.882812 129.464844 144.117188 134.746094 M 212.671875 84.46875 C 217.882812 80.511719 223.1875 76.675781 228.507812 72.863281 C 239.476562 113.59375 251.683594 154.964844 277.15625 189.257812 C 281.945312 195.710938 287.195312 201.804688 292.886719 207.464844 C 270.101562 203.234375 243.535156 211.097656 231.847656 231.902344 C 229.855469 235.445312 228.367188 239.265625 227.667969 243.214844 C 210.84375 216.585938 194.019531 189.960938 177.191406 163.328125 C 172.566406 156.011719 167.871094 148.246094 161.957031 141.742188 C 172.617188 118.003906 192.296875 99.945312 212.671875 84.46875 M 320.058594 223.414062 C 319.136719 213.84375 315.339844 204.90625 310.800781 196.527344 C 306.222656 188.078125 301.109375 179.914062 296.382812 171.542969 C 286.804688 154.582031 277.839844 137.277344 269.511719 119.667969 C 264.839844 109.785156 260.371094 99.808594 256.101562 89.746094 C 255.421875 88.152344 253.207031 88 252.03125 89.03125 C 248.71875 91.9375 244.253906 93.691406 239.914062 94.53125 C 237.363281 85.730469 234.96875 76.878906 232.597656 68.027344 C 232.042969 65.96875 229.90625 65.496094 228.289062 66.652344 C 206.070312 82.554688 183.441406 98.910156 167.550781 121.542969 C 163.929688 126.703125 160.761719 132.148438 158.058594 137.832031 C 155.6875 135.671875 153.125 133.722656 150.304688 132.082031 C 138.339844 125.128906 123.976562 125.355469 110.878906 128.5 C 93.292969 132.71875 77.410156 142.203125 59.527344 145.402344 C 57.488281 145.765625 56.949219 148.25 58.152344 149.707031 C 61.625 153.910156 65.046875 158.152344 68.425781 162.425781 C 63.304688 173.539062 59.394531 185.152344 56.777344 197.105469 C 56.523438 198.269531 56.808594 199.417969 57.839844 200.109375 C 86.59375 219.328125 105.476562 249.234375 120.667969 279.609375 C 125.335938 288.945312 129.726562 298.414062 134.117188 307.878906 C 134.898438 309.566406 137.714844 309.816406 138.613281 308.089844 C 152.082031 282.242188 176.828125 263.445312 205.238281 257.054688 C 213.265625 255.246094 221.449219 254.457031 229.675781 254.667969 C 230.769531 255.019531 231.648438 254.542969 232.148438 253.75 C 232.21875 253.664062 232.289062 253.578125 232.355469 253.480469 C 240.695312 241.421875 253.582031 232.964844 267.625 229.019531 C 283.769531 224.488281 300.832031 225.019531 317.367188 226.566406 C 319.21875 226.738281 320.214844 225.011719 320.058594 223.414062 " fill-opacity="1" fill-rule="nonzero"/></g></g></g></g><g clip-path="url(#898be2d098)"><g clip-path="url(#43182171f1)"><g clip-path="url(#ba3f6e3228)"><path fill="#fdb034" d="M 241.753906 234.714844 C 241.523438 234.722656 241.28125 234.703125 241.03125 234.65625 C 239.515625 234.371094 238.703125 232.746094 238.96875 231.324219 C 239.046875 230.90625 239.128906 230.484375 239.207031 230.0625 C 241.574219 226.992188 244.359375 224.28125 247.238281 222.121094 C 247.640625 221.816406 248.042969 221.527344 248.453125 221.238281 C 247.089844 225.023438 245.726562 228.808594 244.363281 232.59375 C 243.917969 233.832031 243.003906 234.667969 241.753906 234.714844 M 252.828125 229.316406 C 251.722656 228.769531 251.097656 227.394531 251.375 226.191406 C 251.976562 223.566406 252.574219 220.945312 253.175781 218.320312 C 255.789062 216.902344 258.542969 215.707031 261.375 214.730469 C 259.839844 218.972656 258.304688 223.214844 256.769531 227.457031 C 256.761719 227.476562 256.757812 227.492188 256.75 227.507812 C 255.429688 228.070312 254.121094 228.671875 252.828125 229.316406 M 232.789062 226.679688 C 232.558594 226.6875 232.320312 226.667969 232.078125 226.625 C 230.601562 226.34375 229.699219 224.703125 230.015625 223.292969 C 231.761719 215.554688 233.507812 207.816406 235.25 200.082031 C 237.652344 189.429688 240.054688 178.78125 242.457031 168.132812 C 241.488281 170.96875 240.523438 173.800781 239.554688 176.636719 C 235.363281 188.914062 231.171875 201.1875 226.980469 213.464844 C 226.554688 214.707031 225.609375 215.535156 224.363281 215.582031 C 224.136719 215.589844 223.894531 215.574219 223.648438 215.527344 C 222.183594 215.25 221.242188 213.601562 221.585938 212.195312 C 223.394531 204.722656 225.207031 197.25 227.015625 189.777344 C 228.308594 184.441406 229.601562 179.105469 230.894531 173.773438 C 230.808594 174.023438 230.726562 174.273438 230.644531 174.523438 C 226.136719 188.039062 221.628906 201.554688 217.125 215.066406 C 216.710938 216.3125 215.753906 217.136719 214.507812 217.183594 C 214.28125 217.191406 214.039062 217.175781 213.792969 217.128906 C 212.304688 216.847656 211.425781 215.210938 211.730469 213.796875 C 213.316406 206.445312 214.902344 199.09375 216.484375 191.742188 C 219.273438 178.804688 222.0625 165.867188 224.851562 152.929688 C 222.742188 158.714844 220.636719 164.496094 218.53125 170.28125 C 214.214844 182.121094 209.902344 193.960938 205.589844 205.800781 C 205.410156 206.296875 205.152344 206.730469 204.832031 207.070312 C 203.535156 205.019531 202.238281 202.96875 200.941406 200.914062 C 202.207031 194.753906 203.480469 188.589844 204.746094 182.425781 C 205.664062 177.972656 206.582031 173.519531 207.5 169.070312 C 204.40625 177.878906 201.042969 186.59375 197.296875 195.148438 C 195.789062 192.761719 194.28125 190.375 192.773438 187.992188 C 194.027344 183.402344 195.277344 178.808594 196.527344 174.21875 C 199.074219 164.867188 201.625 155.515625 204.171875 146.164062 C 200.480469 155.925781 196.789062 165.691406 193.097656 175.453125 C 192.648438 176.644531 191.800781 177.515625 190.542969 177.5625 C 190.410156 177.570312 190.273438 177.566406 190.136719 177.550781 C 188.917969 177.433594 187.507812 176.289062 187.632812 174.921875 C 187.65625 174.675781 187.683594 174.429688 187.707031 174.183594 L 187.707031 174.179688 C 188.324219 167.667969 189.292969 161.199219 190.628906 154.792969 C 193.027344 143.261719 196.488281 131.972656 200.433594 120.878906 C 201.542969 117.765625 202.691406 114.664062 203.863281 111.574219 C 199.316406 119.550781 195.316406 127.835938 191.648438 136.25 C 187.253906 146.320312 183.320312 156.578125 179.414062 166.847656 C 178.671875 165.671875 177.933594 164.503906 177.191406 163.328125 C 176.402344 162.082031 175.613281 160.816406 174.8125 159.550781 C 175.222656 157.050781 175.679688 154.5625 176.179688 152.078125 C 176.9375 148.300781 177.804688 144.546875 178.765625 140.816406 C 178.015625 142.480469 177.277344 144.152344 176.554688 145.828125 C 176.152344 146.769531 175.261719 147.210938 174.332031 147.246094 C 172.832031 147.304688 171.222656 146.304688 171.34375 144.628906 C 171.378906 144.15625 171.421875 143.691406 171.464844 143.222656 C 171.082031 144.09375 170.695312 144.960938 170.332031 145.839844 C 170.082031 146.441406 169.835938 147.042969 169.597656 147.648438 C 169.476562 147.949219 169.359375 148.253906 169.242188 148.554688 C 169.214844 148.628906 168.960938 149.289062 168.960938 149.289062 C 168.960938 149.289062 168.972656 149.257812 169 149.183594 C 168.878906 149.503906 168.730469 149.796875 168.554688 150.058594 C 167.332031 148.328125 166.066406 146.632812 164.742188 144.996094 C 168.429688 135.828125 173.082031 127.101562 178.765625 118.996094 C 179.371094 118.132812 180.199219 117.589844 181.132812 117.554688 C 181.574219 117.539062 182.039062 117.632812 182.515625 117.863281 C 182.898438 118.046875 183.203125 118.332031 183.441406 118.671875 C 186.117188 113.632812 188.925781 108.667969 191.863281 103.777344 C 192.398438 102.886719 193.269531 102.375 194.210938 102.339844 C 194.671875 102.324219 195.148438 102.421875 195.613281 102.644531 C 197.019531 103.320312 197.351562 105.074219 196.75 106.390625 C 194.796875 110.671875 192.980469 115.011719 191.308594 119.410156 C 191.257812 119.542969 191.140625 119.859375 191.140625 119.859375 C 191.042969 120.125 190.941406 120.386719 190.84375 120.652344 C 190.679688 121.097656 190.519531 121.542969 190.359375 121.984375 C 190.003906 122.964844 189.65625 123.941406 189.316406 124.925781 C 188.636719 126.890625 187.984375 128.863281 187.359375 130.847656 C 186.875 132.386719 186.414062 133.929688 185.964844 135.480469 C 188.808594 128.863281 191.835938 122.324219 195.164062 115.9375 C 200.507812 105.695312 206.660156 95.863281 213.890625 86.84375 C 214.34375 86.277344 215.03125 86.003906 215.730469 85.976562 C 216.367188 85.953125 217.015625 86.132812 217.519531 86.492188 C 218.714844 87.347656 218.894531 88.738281 218.367188 90.035156 C 215.878906 96.125 213.394531 102.21875 211 108.34375 C 210.460938 109.722656 209.929688 111.101562 209.398438 112.484375 C 209.261719 112.839844 209.125 113.199219 208.992188 113.554688 C 208.921875 113.734375 208.855469 113.914062 208.789062 114.089844 C 208.769531 114.132812 208.761719 114.15625 208.753906 114.179688 L 208.734375 114.222656 C 208.5 114.847656 208.265625 115.472656 208.03125 116.101562 C 207.015625 118.824219 206.023438 121.558594 205.066406 124.308594 C 203.136719 129.828125 201.34375 135.398438 199.742188 141.027344 C 199.296875 142.589844 198.875 144.15625 198.464844 145.726562 C 201.304688 138.210938 204.144531 130.695312 206.988281 123.179688 C 211.097656 112.304688 215.207031 101.433594 219.316406 90.5625 C 219.78125 89.332031 220.671875 88.488281 221.921875 88.441406 C 222.152344 88.433594 222.394531 88.453125 222.648438 88.5 C 224.085938 88.773438 225.09375 90.433594 224.710938 91.832031 C 223.757812 95.335938 222.804688 98.839844 221.847656 102.339844 C 222.328125 101.933594 222.933594 101.695312 223.589844 101.671875 C 223.8125 101.660156 224.042969 101.675781 224.273438 101.722656 C 225.773438 102.003906 226.628906 103.636719 226.335938 105.054688 C 224.820312 112.421875 223.300781 119.789062 221.785156 127.15625 C 219.089844 140.238281 216.398438 153.320312 213.703125 166.402344 C 213.535156 167.210938 213.371094 168.019531 213.203125 168.828125 C 215.601562 162.246094 217.996094 155.667969 220.394531 149.085938 C 224.707031 137.246094 229.019531 125.410156 233.335938 113.570312 C 233.785156 112.335938 234.695312 111.496094 235.941406 111.449219 C 236.171875 111.441406 236.414062 111.460938 236.664062 111.507812 C 238.15625 111.785156 239.03125 113.425781 238.730469 114.839844 C 237.144531 122.191406 235.558594 129.542969 233.972656 136.894531 C 231.902344 146.503906 229.832031 156.117188 227.761719 165.726562 C 229.453125 160.652344 231.144531 155.578125 232.835938 150.503906 C 236.140625 140.585938 239.449219 130.667969 242.757812 120.75 C 244.035156 124.460938 245.367188 128.15625 246.757812 131.820312 C 246.613281 132.429688 246.464844 133.039062 246.316406 133.648438 C 244.617188 140.667969 242.914062 147.6875 241.214844 154.707031 L 241.21875 154.695312 C 243.464844 148.109375 245.714844 141.527344 247.960938 134.941406 C 249.535156 138.964844 251.1875 142.949219 252.925781 146.894531 C 252.152344 150.320312 251.378906 153.75 250.609375 157.175781 C 251.554688 154.136719 252.5 151.101562 253.445312 148.0625 C 255.007812 151.5625 256.644531 155.027344 258.359375 158.449219 C 258.277344 158.882812 258.199219 159.316406 258.113281 159.75 C 255.824219 171.890625 253.53125 184.03125 251.238281 196.171875 C 251.09375 196.933594 250.949219 197.699219 250.808594 198.460938 C 253.125 192.023438 255.441406 185.589844 257.761719 179.15625 C 259.316406 174.835938 260.871094 170.519531 262.425781 166.199219 C 264.335938 169.675781 266.335938 173.09375 268.441406 176.46875 C 267.90625 178.804688 267.371094 181.140625 266.835938 183.480469 C 267.570312 181.457031 268.300781 179.433594 269.03125 177.410156 C 270.910156 180.378906 272.867188 183.300781 274.917969 186.179688 C 273.941406 190.851562 272.96875 195.523438 271.992188 200.195312 C 273.683594 196.511719 275.375 192.824219 277.066406 189.140625 C 277.097656 189.179688 277.125 189.21875 277.15625 189.257812 C 279.117188 191.902344 281.160156 194.484375 283.273438 197.003906 C 282.832031 198.839844 282.390625 200.679688 281.949219 202.515625 C 282.742188 201.09375 283.535156 199.667969 284.328125 198.242188 C 287.058594 201.429688 289.914062 204.507812 292.886719 207.464844 C 288.097656 206.574219 283.144531 206.222656 278.195312 206.410156 C 277.21875 206.445312 276.246094 206.503906 275.273438 206.582031 C 275.320312 206.386719 275.367188 206.191406 275.414062 205.996094 C 275.324219 206.191406 275.234375 206.394531 275.140625 206.59375 C 271.597656 206.886719 268.074219 207.460938 264.640625 208.316406 C 265.066406 206.269531 265.496094 204.21875 265.921875 202.171875 C 265.148438 204.3125 264.375 206.449219 263.601562 208.585938 C 260.539062 209.40625 257.554688 210.449219 254.6875 211.722656 C 254.929688 210.667969 255.167969 209.609375 255.414062 208.550781 C 256.800781 202.484375 258.191406 196.414062 259.582031 190.347656 C 258.515625 193.300781 257.453125 196.257812 256.386719 199.210938 C 254.6875 203.933594 252.988281 208.652344 251.285156 213.371094 C 247.578125 215.328125 244.113281 217.703125 241.015625 220.492188 C 241.625 217.253906 242.238281 214.011719 242.851562 210.773438 C 244.464844 202.222656 246.078125 193.675781 247.691406 185.132812 C 247.054688 187.175781 246.417969 189.222656 245.777344 191.265625 C 242.324219 202.363281 238.867188 213.464844 235.410156 224.5625 C 235.019531 225.816406 234.027344 226.632812 232.789062 226.679688 M 262.195312 225.425781 C 261.636719 224.78125 261.390625 223.890625 261.578125 222.996094 C 262.199219 220.019531 262.820312 217.042969 263.441406 214.066406 C 266.449219 213.15625 269.53125 212.488281 272.628906 212.058594 C 270.816406 216.007812 269.003906 219.957031 267.191406 223.902344 C 265.507812 224.359375 263.84375 224.867188 262.195312 225.425781 M 272.042969 222.734375 C 271.769531 222.183594 271.679688 221.542969 271.832031 220.914062 C 272.554688 217.902344 273.277344 214.894531 274 211.886719 C 275.546875 211.710938 277.097656 211.589844 278.640625 211.535156 C 279.597656 211.496094 280.550781 211.484375 281.503906 211.492188 C 282.09375 211.5 282.679688 211.515625 283.265625 211.539062 C 281.378906 214.929688 279.492188 218.324219 277.601562 221.71875 C 275.734375 222.003906 273.882812 222.339844 272.042969 222.734375 M 306.519531 220.554688 C 305.816406 220.519531 305.109375 220.488281 304.40625 220.460938 C 304.347656 220.4375 304.292969 220.414062 304.238281 220.386719 C 303.195312 219.886719 302.5 218.425781 302.847656 217.308594 C 303.066406 216.609375 303.261719 215.902344 303.433594 215.191406 C 304.933594 214.476562 305.839844 212.316406 304.371094 211.050781 C 300.949219 208.09375 297.691406 205 294.589844 201.78125 C 295.925781 200.15625 297.261719 198.527344 298.601562 196.902344 C 299.09375 196.304688 299.734375 196.03125 300.382812 196.007812 C 302.066406 195.941406 303.824219 197.539062 303.328125 199.421875 C 303.042969 200.515625 302.808594 201.621094 302.652344 202.742188 C 302.621094 202.976562 302.59375 203.214844 302.5625 203.449219 C 302.566406 203.433594 302.566406 203.425781 302.566406 203.425781 C 302.570312 203.425781 302.519531 203.957031 302.515625 203.964844 C 302.480469 204.484375 302.460938 205 302.453125 205.519531 C 302.453125 205.722656 302.460938 205.921875 302.464844 206.125 C 303.257812 205.25 304.050781 204.375 304.84375 203.496094 C 305.335938 202.953125 306.035156 202.660156 306.746094 202.632812 C 307.117188 202.621094 307.492188 202.679688 307.84375 202.808594 C 308 202.871094 308.144531 202.941406 308.28125 203.023438 C 308.773438 204.015625 309.246094 205.015625 309.699219 206.019531 C 309.78125 207.210938 309.796875 208.410156 309.753906 209.605469 C 310.351562 209.628906 310.953125 209.824219 311.425781 210.148438 C 311.78125 211.066406 312.113281 211.992188 312.425781 212.925781 C 312.3125 213.394531 312.097656 213.847656 311.800781 214.234375 C 310.394531 216.097656 308.984375 217.960938 307.574219 219.828125 C 307.304688 220.183594 306.933594 220.417969 306.519531 220.554688 M 286.535156 218.867188 C 286.027344 218.886719 285.507812 218.777344 285.0625 218.566406 C 283.945312 218.027344 283.429688 216.648438 283.671875 215.488281 C 283.941406 214.191406 284.210938 212.894531 284.484375 211.601562 C 287.273438 211.769531 290.039062 212.136719 292.765625 212.703125 C 291.308594 214.46875 289.855469 216.238281 288.402344 218.007812 C 287.933594 218.570312 287.242188 218.839844 286.535156 218.867188 M 300.550781 215.21875 C 299.609375 215.253906 298.652344 214.863281 298.132812 214.082031 C 299.164062 214.402344 300.1875 214.746094 301.203125 215.121094 C 300.992188 215.179688 300.769531 215.210938 300.550781 215.21875 M 292.621094 199.699219 C 290.699219 197.632812 288.84375 195.519531 287.042969 193.363281 C 287.765625 192.066406 288.484375 190.773438 289.207031 189.476562 C 289.734375 188.527344 290.582031 188.09375 291.4375 188.0625 C 293.078125 188 294.765625 189.40625 294.34375 191.417969 C 293.769531 194.179688 293.195312 196.941406 292.621094 199.699219 M 192.929688 201.136719 C 192.558594 201.152344 192.183594 201.097656 191.839844 200.96875 C 190.601562 200.5 189.75 199.097656 190.113281 197.761719 C 190.382812 196.769531 190.65625 195.78125 190.925781 194.785156 C 192.140625 196.710938 193.355469 198.636719 194.570312 200.558594 C 194.109375 200.917969 193.519531 201.117188 192.929688 201.136719 M 284.808594 190.621094 C 283 188.355469 281.257812 186.046875 279.570312 183.695312 C 280.476562 181.722656 281.382812 179.746094 282.289062 177.769531 C 282.703125 176.867188 283.65625 176.371094 284.613281 176.335938 C 284.984375 176.320312 285.359375 176.378906 285.703125 176.507812 C 286.972656 176.988281 287.75 178.363281 287.429688 179.710938 C 286.675781 182.851562 285.917969 185.992188 285.164062 189.132812 C 285.046875 189.628906 284.925781 190.125 284.808594 190.621094 M 276.390625 179.125 C 274.628906 176.507812 272.933594 173.847656 271.300781 171.144531 C 272.160156 168.769531 273.019531 166.394531 273.882812 164.019531 C 274.328125 162.78125 275.242188 161.945312 276.488281 161.898438 C 276.71875 161.890625 276.960938 161.910156 277.214844 161.957031 C 278.707031 162.238281 279.570312 163.871094 279.277344 165.289062 C 278.375 169.601562 277.476562 173.914062 276.574219 178.226562 C 276.515625 178.523438 276.449219 178.824219 276.390625 179.125 M 270.117188 169.15625 C 268.269531 166.019531 266.5 162.828125 264.804688 159.59375 C 266.464844 154.984375 268.125 150.378906 269.785156 145.773438 C 270.230469 144.535156 271.148438 143.703125 272.394531 143.65625 C 272.625 143.644531 272.863281 143.664062 273.117188 143.710938 C 274.59375 143.988281 275.5 145.632812 275.179688 147.042969 C 273.832031 152.921875 272.484375 158.800781 271.140625 164.679688 C 270.800781 166.171875 270.457031 167.664062 270.117188 169.15625 M 259.984375 149.847656 C 258.535156 146.75 257.144531 143.625 255.808594 140.46875 C 256.074219 139.621094 256.339844 138.773438 256.601562 137.925781 C 256.992188 136.671875 257.984375 135.855469 259.226562 135.808594 C 259.453125 135.800781 259.691406 135.816406 259.933594 135.863281 C 261.449219 136.148438 262.261719 137.773438 261.996094 139.195312 C 261.324219 142.746094 260.65625 146.296875 259.984375 149.847656 M 254.878906 138.242188 C 253.378906 134.621094 251.945312 130.960938 250.578125 127.285156 C 251.648438 124.144531 252.722656 121.003906 253.792969 117.867188 C 254.214844 116.625 255.160156 115.792969 256.40625 115.746094 C 256.636719 115.738281 256.875 115.757812 257.125 115.804688 C 258.605469 116.082031 259.503906 117.722656 259.1875 119.136719 C 257.75 125.503906 256.3125 131.871094 254.878906 138.242188 M 248.945312 122.800781 C 247.734375 119.421875 246.578125 116.027344 245.464844 112.625 C 245.761719 111.738281 246.058594 110.851562 246.355469 109.960938 C 246.769531 108.714844 247.726562 107.890625 248.96875 107.84375 C 249.199219 107.835938 249.4375 107.851562 249.6875 107.898438 C 251.148438 108.175781 252.089844 109.824219 251.746094 111.230469 C 250.8125 115.085938 249.878906 118.945312 248.945312 122.800781 " fill-opacity="1" fill-rule="nonzero"/></g></g></g><g clip-path="url(#6cad871ff6)"><g clip-path="url(#7f35c003eb)"><g clip-path="url(#c9bbae5237)"><path fill="#ed664f" d="M 254.160156 229.578125 C 253.929688 229.585938 253.6875 229.566406 253.4375 229.519531 C 253.222656 229.480469 253.019531 229.410156 252.828125 229.316406 C 254.121094 228.671875 255.429688 228.070312 256.75 227.507812 C 256.296875 228.714844 255.390625 229.53125 254.160156 229.578125 M 239.207031 230.0625 C 239.808594 226.875 240.414062 223.683594 241.015625 220.492188 C 244.113281 217.703125 247.578125 215.328125 251.285156 213.371094 C 250.339844 215.996094 249.398438 218.617188 248.453125 221.238281 C 248.042969 221.527344 247.640625 221.816406 247.238281 222.121094 C 244.359375 224.28125 241.574219 226.992188 239.207031 230.0625 M 264.394531 226.371094 C 264.019531 226.386719 263.648438 226.328125 263.304688 226.199219 C 262.859375 226.03125 262.484375 225.761719 262.195312 225.425781 C 263.84375 224.867188 265.507812 224.359375 267.191406 223.902344 C 267.035156 224.246094 266.875 224.59375 266.71875 224.9375 C 266.300781 225.839844 265.351562 226.335938 264.394531 226.371094 M 274.640625 224.292969 C 274.277344 224.308594 273.910156 224.25 273.558594 224.117188 C 272.882812 223.863281 272.347656 223.355469 272.042969 222.734375 C 273.882812 222.339844 275.734375 222.003906 277.601562 221.71875 C 277.390625 222.09375 277.179688 222.476562 276.96875 222.851562 C 276.480469 223.734375 275.585938 224.257812 274.640625 224.292969 M 305.738281 220.691406 C 305.277344 220.707031 304.808594 220.625 304.40625 220.460938 C 305.109375 220.488281 305.816406 220.519531 306.519531 220.554688 C 306.269531 220.636719 306.007812 220.679688 305.738281 220.691406 M 253.175781 218.320312 C 253.679688 216.121094 254.183594 213.921875 254.6875 211.722656 C 257.554688 210.449219 260.539062 209.40625 263.601562 208.585938 C 262.859375 210.632812 262.117188 212.683594 261.375 214.730469 C 258.542969 215.707031 255.789062 216.902344 253.175781 218.320312 M 303.433594 215.191406 C 303.625 214.390625 303.789062 213.582031 303.921875 212.769531 C 303.441406 213.304688 302.960938 213.835938 302.476562 214.367188 C 302.132812 214.746094 301.6875 214.996094 301.203125 215.121094 C 300.1875 214.746094 299.164062 214.402344 298.132812 214.082031 C 297.984375 213.859375 297.875 213.605469 297.804688 213.320312 C 297.359375 211.425781 297.085938 209.5 296.984375 207.574219 C 295.578125 209.28125 294.171875 210.992188 292.765625 212.703125 C 290.039062 212.136719 287.273438 211.769531 284.484375 211.601562 C 284.730469 210.402344 284.980469 209.207031 285.230469 208.011719 C 284.574219 209.1875 283.921875 210.363281 283.265625 211.539062 C 282.679688 211.515625 282.09375 211.5 281.503906 211.492188 C 280.550781 211.484375 279.597656 211.496094 278.640625 211.535156 C 277.097656 211.589844 275.546875 211.710938 274 211.886719 C 274.03125 211.757812 274.0625 211.621094 274.09375 211.492188 C 274.488281 209.855469 274.882812 208.21875 275.273438 206.582031 C 276.246094 206.503906 277.21875 206.445312 278.195312 206.410156 C 283.144531 206.222656 288.097656 206.574219 292.886719 207.464844 C 289.914062 204.507812 287.058594 201.429688 284.328125 198.242188 C 285.234375 196.617188 286.136719 194.988281 287.042969 193.363281 C 288.84375 195.519531 290.699219 197.632812 292.621094 199.699219 C 292.203125 201.699219 291.789062 203.691406 291.371094 205.691406 C 292.445312 204.386719 293.515625 203.085938 294.589844 201.78125 C 297.691406 205 300.949219 208.09375 304.371094 211.050781 C 305.839844 212.316406 304.933594 214.476562 303.433594 215.191406 M 312.425781 212.925781 C 312.113281 211.992188 311.78125 211.066406 311.425781 210.148438 C 311.507812 210.199219 311.582031 210.257812 311.652344 210.320312 C 312.464844 211.007812 312.648438 212 312.425781 212.925781 M 263.441406 214.066406 C 263.71875 212.730469 264 211.394531 264.277344 210.058594 C 264.398438 209.476562 264.519531 208.898438 264.640625 208.316406 C 268.074219 207.460938 271.597656 206.886719 275.140625 206.59375 C 274.304688 208.414062 273.46875 210.238281 272.628906 212.058594 C 269.53125 212.488281 266.449219 213.15625 263.441406 214.066406 M 309.699219 206.019531 C 309.246094 205.015625 308.773438 204.015625 308.28125 203.023438 C 309.085938 203.496094 309.550781 204.320312 309.640625 205.277344 C 309.664062 205.523438 309.683594 205.773438 309.699219 206.019531 M 202.980469 207.917969 C 202.753906 207.929688 202.511719 207.910156 202.257812 207.863281 C 200.761719 207.582031 199.902344 205.949219 200.195312 204.53125 C 200.445312 203.324219 200.691406 202.121094 200.941406 200.914062 C 202.238281 202.96875 203.535156 205.019531 204.832031 207.070312 C 204.355469 207.582031 203.726562 207.890625 202.980469 207.917969 M 194.570312 200.558594 C 193.355469 198.636719 192.140625 196.710938 190.925781 194.785156 C 191.542969 192.523438 192.160156 190.257812 192.773438 187.992188 C 194.28125 190.375 195.789062 192.761719 197.296875 195.148438 C 196.628906 196.671875 195.945312 198.191406 195.253906 199.703125 C 195.09375 200.050781 194.859375 200.335938 194.570312 200.558594 M 283.273438 197.003906 C 281.160156 194.484375 279.117188 191.902344 277.15625 189.257812 C 277.125 189.21875 277.097656 189.179688 277.066406 189.140625 C 277.902344 187.328125 278.734375 185.511719 279.570312 183.695312 C 281.257812 186.046875 283 188.355469 284.808594 190.621094 C 284.296875 192.746094 283.785156 194.875 283.273438 197.003906 M 274.917969 186.179688 C 272.867188 183.300781 270.910156 180.378906 269.03125 177.410156 C 269.789062 175.320312 270.546875 173.234375 271.300781 171.144531 C 272.933594 173.847656 274.628906 176.507812 276.390625 179.125 C 275.898438 181.476562 275.40625 183.828125 274.917969 186.179688 M 268.441406 176.46875 C 266.335938 173.09375 264.335938 169.675781 262.425781 166.199219 C 263.21875 163.996094 264.011719 161.796875 264.804688 159.59375 C 266.5 162.828125 268.269531 166.019531 270.117188 169.15625 C 269.558594 171.59375 269 174.03125 268.441406 176.46875 M 176.660156 169.425781 C 176.273438 169.441406 175.890625 169.386719 175.5625 169.261719 C 174.191406 168.742188 173.648438 167.441406 173.835938 166.054688 C 174.128906 163.882812 174.453125 161.710938 174.8125 159.550781 C 175.613281 160.816406 176.402344 162.082031 177.191406 163.328125 C 177.933594 164.503906 178.671875 165.671875 179.414062 166.847656 C 179.265625 167.230469 179.121094 167.613281 178.976562 167.996094 C 178.625 168.917969 177.625 169.390625 176.660156 169.425781 M 258.359375 158.449219 C 256.644531 155.027344 255.007812 151.5625 253.445312 148.0625 C 254.234375 145.53125 255.019531 143 255.808594 140.46875 C 257.144531 143.625 258.535156 146.75 259.984375 149.847656 C 259.441406 152.714844 258.902344 155.582031 258.359375 158.449219 M 166.398438 151.304688 C 166.164062 151.3125 165.921875 151.296875 165.667969 151.246094 C 164.328125 150.996094 163.09375 149.273438 163.605469 147.914062 C 163.972656 146.9375 164.355469 145.964844 164.742188 144.996094 C 166.066406 146.632812 167.332031 148.328125 168.554688 150.058594 C 168.050781 150.800781 167.320312 151.269531 166.398438 151.304688 M 252.925781 146.894531 C 251.1875 142.949219 249.535156 138.964844 247.960938 134.941406 C 248.835938 132.386719 249.707031 129.835938 250.578125 127.285156 C 251.945312 130.960938 253.378906 134.621094 254.878906 138.242188 C 254.570312 139.609375 254.261719 140.980469 253.953125 142.347656 C 253.609375 143.863281 253.269531 145.378906 252.925781 146.894531 M 246.757812 131.820312 C 245.367188 128.15625 244.035156 124.460938 242.757812 120.75 C 243.660156 118.042969 244.5625 115.335938 245.464844 112.625 C 246.578125 116.027344 247.734375 119.421875 248.945312 122.800781 C 248.214844 125.808594 247.488281 128.8125 246.757812 131.820312 " fill-opacity="1" fill-rule="nonzero"/></g></g></g><g clip-path="url(#a2ad647e42)"><g clip-path="url(#5e6148074d)"><g clip-path="url(#99942a1a66)"><path fill="#fdb034" d="M 147.988281 283.335938 C 147.761719 283.347656 147.539062 283.332031 147.320312 283.289062 C 145.808594 283.003906 144.984375 281.378906 145.257812 279.957031 C 146.453125 273.734375 147.710938 267.519531 149.03125 261.320312 C 151.378906 259.65625 153.828125 258.152344 156.363281 256.800781 C 154.167969 264.871094 152.265625 273.019531 150.648438 281.226562 C 150.398438 282.511719 149.210938 283.292969 147.988281 283.335938 M 136.773438 282.484375 C 136.546875 282.492188 136.320312 282.476562 136.089844 282.433594 C 134.558594 282.144531 133.785156 280.527344 134.03125 279.101562 C 134.800781 274.589844 135.632812 270.089844 136.511719 265.601562 C 135.132812 270.070312 133.765625 274.542969 132.433594 279.023438 C 132.058594 280.28125 131.042969 281.09375 129.804688 281.140625 C 129.578125 281.148438 129.339844 281.132812 129.101562 281.085938 C 127.566406 280.796875 126.800781 279.179688 127.039062 277.753906 C 128.316406 270.15625 129.742188 262.585938 131.324219 255.046875 C 133.511719 258.835938 135.667969 262.648438 137.792969 266.472656 C 138.296875 267.382812 139.285156 267.902344 140.257812 267.863281 C 140.832031 267.84375 141.398438 267.628906 141.863281 267.1875 C 142.234375 266.835938 142.609375 266.488281 142.988281 266.144531 C 141.714844 270.867188 140.523438 275.609375 139.421875 280.371094 C 139.125 281.648438 138 282.4375 136.773438 282.484375 M 157.667969 275.53125 C 156.808594 274.890625 156.464844 273.710938 156.597656 272.628906 C 157.308594 266.910156 158.125 261.207031 159.058594 255.523438 C 159.0625 255.492188 159.066406 255.460938 159.074219 255.425781 C 161.757812 254.136719 164.527344 253.007812 167.359375 252.039062 C 165.5625 258.5 163.941406 265.015625 162.496094 271.566406 C 160.847656 272.835938 159.238281 274.160156 157.667969 275.53125 M 168.367188 267.351562 C 167.746094 266.679688 167.472656 265.683594 167.644531 264.769531 C 168.503906 260.21875 169.363281 255.667969 170.222656 251.117188 C 172.816406 250.335938 175.453125 249.679688 178.117188 249.15625 C 176.417969 254.082031 174.894531 259.074219 173.546875 264.109375 C 171.789062 265.140625 170.0625 266.222656 168.367188 267.351562 M 124.019531 264.132812 C 123.792969 264.144531 123.566406 264.128906 123.339844 264.082031 C 121.832031 263.800781 121.003906 262.171875 121.277344 260.753906 C 122.375 255.105469 123.527344 249.472656 124.742188 243.851562 C 126.25 246.367188 127.742188 248.890625 129.222656 251.425781 C 128.316406 254.941406 127.464844 258.476562 126.671875 262.023438 C 126.386719 263.300781 125.25 264.085938 124.019531 264.132812 M 140.78125 261.15625 C 138.21875 256.585938 135.609375 252.042969 132.957031 247.523438 C 135.613281 235.65625 138.652344 223.871094 142.0625 212.191406 C 141.378906 213.898438 140.707031 215.605469 140.050781 217.320312 L 139.863281 217.816406 C 139.8125 217.949219 139.761719 218.082031 139.714844 218.214844 C 139.582031 218.5625 139.453125 218.910156 139.324219 219.257812 C 139.0625 219.957031 138.808594 220.65625 138.554688 221.355469 C 138.011719 222.839844 137.480469 224.328125 136.964844 225.820312 C 134.832031 231.960938 132.882812 238.160156 131.117188 244.410156 C 129.546875 241.765625 127.960938 239.132812 126.359375 236.507812 C 129.199219 223.917969 132.335938 211.394531 135.761719 198.957031 C 136.246094 197.203125 136.75 195.453125 137.246094 193.699219 C 136.753906 194.855469 136.265625 196.011719 135.78125 197.171875 C 134.613281 199.992188 133.484375 202.828125 132.386719 205.679688 C 132.238281 206.070312 132.085938 206.464844 131.933594 206.863281 C 131.921875 206.894531 131.847656 207.09375 131.808594 207.195312 C 131.769531 207.304688 131.703125 207.480469 131.691406 207.507812 C 131.425781 208.210938 131.164062 208.917969 130.902344 209.621094 C 130.386719 211.03125 129.875 212.445312 129.371094 213.863281 C 127.261719 219.820312 125.3125 225.832031 123.527344 231.894531 C 120.863281 227.597656 118.160156 223.328125 115.417969 219.085938 C 116.214844 215.910156 117.074219 212.75 118 209.609375 C 118.085938 209.3125 118.179688 209.015625 118.269531 208.71875 C 118.304688 208.59375 118.335938 208.46875 118.367188 208.34375 C 121.195312 197.90625 124.21875 187.515625 127.429688 177.1875 C 128.441406 173.941406 129.480469 170.703125 130.527344 167.46875 C 128.546875 171.007812 126.679688 174.605469 124.929688 178.257812 C 123.738281 180.742188 122.601562 183.25 121.519531 185.78125 C 120.996094 187.003906 120.484375 188.234375 119.984375 189.472656 C 119.722656 190.128906 119.457031 190.789062 119.199219 191.453125 C 119.070312 191.78125 118.941406 192.113281 118.816406 192.445312 C 118.765625 192.570312 118.71875 192.695312 118.671875 192.820312 C 118.660156 192.851562 118.601562 193.011719 118.5625 193.113281 C 118.511719 193.242188 118.421875 193.484375 118.410156 193.515625 C 118.347656 193.683594 118.285156 193.851562 118.222656 194.015625 C 118.117188 194.308594 118.007812 194.601562 117.902344 194.890625 C 117.671875 195.519531 117.449219 196.144531 117.226562 196.773438 C 117.1875 196.886719 117.148438 197.003906 117.109375 197.117188 C 115.417969 202.820312 113.808594 208.546875 112.296875 214.304688 C 110.863281 212.121094 109.417969 209.945312 107.964844 207.78125 C 108.234375 206.8125 108.511719 205.84375 108.796875 204.878906 C 109.679688 201.882812 110.648438 198.910156 111.675781 195.960938 C 113.890625 188.496094 116.261719 181.074219 118.792969 173.710938 C 116.15625 178.828125 113.652344 184.019531 111.296875 189.273438 C 109.160156 194.046875 107.136719 198.871094 105.234375 203.746094 C 103.492188 201.1875 101.734375 198.640625 99.960938 196.101562 C 102.121094 188.316406 104.429688 180.570312 106.875 172.871094 C 105.292969 176.332031 103.78125 179.824219 102.355469 183.355469 C 101.886719 184.511719 101.429688 185.667969 100.976562 186.832031 C 100.761719 187.390625 100.546875 187.949219 100.332031 188.511719 L 100.316406 188.554688 L 100.292969 188.617188 C 100.242188 188.746094 100.195312 188.875 100.148438 189.003906 C 100.050781 189.265625 99.953125 189.523438 99.855469 189.785156 C 99.355469 191.136719 98.867188 192.492188 98.386719 193.855469 C 96.871094 191.699219 95.339844 189.546875 93.800781 187.40625 C 96.550781 177.457031 99.304688 167.503906 102.054688 157.550781 C 100.21875 160.960938 98.503906 164.441406 96.9375 167.984375 C 95.957031 170.195312 95.03125 172.429688 94.15625 174.6875 C 94.09375 174.851562 94.03125 175.015625 93.96875 175.179688 C 93.957031 175.214844 93.890625 175.390625 93.851562 175.488281 C 93.828125 175.546875 93.804688 175.613281 93.800781 175.621094 C 93.757812 175.746094 93.710938 175.867188 93.664062 175.992188 C 93.464844 176.527344 93.269531 177.066406 93.078125 177.601562 C 92.664062 178.761719 92.261719 179.925781 91.875 181.097656 C 91.59375 181.9375 91.324219 182.78125 91.0625 183.628906 C 89.363281 181.292969 87.652344 178.96875 85.925781 176.652344 C 86.28125 174.734375 86.640625 172.816406 86.996094 170.898438 C 86.804688 171.382812 86.605469 171.859375 86.421875 172.34375 C 86.351562 172.523438 86.285156 172.699219 86.21875 172.875 C 86.195312 172.933594 86.175781 172.984375 86.160156 173.023438 C 86.121094 173.132812 85.96875 173.53125 85.96875 173.53125 C 85.96875 173.53125 85.96875 173.53125 85.972656 173.523438 C 85.808594 173.96875 85.644531 174.410156 85.480469 174.851562 C 85.382812 175.121094 85.28125 175.390625 85.183594 175.664062 C 83.980469 174.050781 82.765625 172.441406 81.550781 170.839844 C 81.449219 170.710938 81.347656 170.578125 81.25 170.449219 C 84.234375 162.632812 87.648438 154.976562 91.476562 147.542969 C 91.933594 146.652344 92.855469 146.140625 93.804688 146.105469 C 94.167969 146.09375 94.539062 146.148438 94.890625 146.28125 C 96.210938 146.78125 96.871094 148.117188 96.617188 149.484375 C 95.980469 152.890625 95.34375 156.300781 94.710938 159.707031 C 98.457031 152.136719 102.839844 144.90625 107.769531 138.039062 C 108.183594 137.460938 108.878906 137.203125 109.585938 137.175781 C 110.125 137.152344 110.671875 137.265625 111.105469 137.476562 C 112.171875 137.988281 112.808594 139.421875 112.496094 140.554688 C 111.082031 145.675781 109.664062 150.800781 108.25 155.921875 C 107.9375 157.042969 107.628906 158.164062 107.320312 159.285156 C 110.671875 152.785156 114.300781 146.429688 118.195312 140.234375 C 118.734375 139.371094 119.589844 138.824219 120.53125 138.789062 C 120.882812 138.777344 121.246094 138.832031 121.605469 138.972656 C 122.753906 139.40625 123.816406 140.890625 123.332031 142.175781 C 121.265625 147.679688 119.269531 153.207031 117.351562 158.765625 C 115.527344 164.042969 113.777344 169.347656 112.09375 174.671875 C 112.800781 173.257812 113.511719 171.847656 114.242188 170.441406 C 119.210938 160.855469 124.667969 151.527344 130.585938 142.492188 C 131.160156 141.617188 132.007812 141.085938 132.945312 141.050781 C 133.390625 141.035156 133.863281 141.128906 134.332031 141.355469 C 135.773438 142.046875 136.019531 143.769531 135.46875 145.105469 C 134.296875 147.949219 133.152344 150.796875 132.027344 153.660156 C 131.816406 154.195312 131.613281 154.734375 131.40625 155.269531 C 133.605469 151.828125 135.910156 148.453125 138.316406 145.144531 C 138.734375 144.570312 139.429688 144.308594 140.140625 144.28125 C 140.675781 144.261719 141.214844 144.375 141.652344 144.585938 C 142.667969 145.070312 143.433594 146.5625 143.046875 147.660156 C 141.675781 151.542969 140.347656 155.433594 139.03125 159.332031 C 139.925781 157.726562 140.824219 156.128906 141.753906 154.542969 C 142.277344 153.648438 143.152344 153.140625 144.09375 153.105469 C 144.558594 153.085938 145.039062 153.183594 145.503906 153.40625 C 146.933594 154.097656 147.203125 155.824219 146.640625 157.15625 C 145.246094 160.445312 143.894531 163.746094 142.582031 167.066406 C 141.945312 168.679688 141.316406 170.296875 140.695312 171.917969 C 140.53125 172.34375 140.371094 172.769531 140.210938 173.191406 C 140.179688 173.273438 140.101562 173.480469 140.078125 173.546875 C 140.027344 173.683594 139.976562 173.820312 139.925781 173.957031 C 139.609375 174.796875 139.296875 175.640625 138.984375 176.484375 C 141.765625 170.707031 144.695312 165.003906 147.78125 159.386719 C 148.265625 158.503906 149.164062 157.980469 150.113281 157.945312 C 150.472656 157.929688 150.839844 157.988281 151.195312 158.121094 C 152.382812 158.570312 153.351562 160.015625 152.921875 161.328125 C 150.539062 168.558594 148.253906 175.820312 146.070312 183.117188 C 144.421875 188.628906 142.84375 194.164062 141.3125 199.707031 C 145.753906 189.585938 150.710938 179.695312 156.152344 170.070312 C 156.648438 169.191406 157.539062 168.664062 158.484375 168.628906 C 158.84375 168.617188 159.207031 168.671875 159.566406 168.808594 C 160.710938 169.242188 161.777344 170.726562 161.292969 172.011719 C 158.425781 179.621094 155.71875 187.289062 153.175781 195.015625 C 150.28125 203.824219 147.597656 212.707031 145.132812 221.648438 C 145.847656 219.597656 146.554688 217.542969 147.28125 215.496094 C 151.976562 202.210938 156.894531 189.003906 162.019531 175.875 C 162.375 174.957031 163.371094 174.480469 164.332031 174.445312 C 164.71875 174.429688 165.097656 174.488281 165.429688 174.613281 C 166.578125 175.046875 167.640625 176.53125 167.15625 177.816406 C 164.417969 185.117188 161.832031 192.46875 159.398438 199.875 C 157.746094 204.898438 156.167969 209.949219 154.660156 215.019531 C 158.984375 204.636719 163.746094 194.4375 168.929688 184.457031 C 169.390625 183.566406 170.308594 183.054688 171.257812 183.019531 C 171.625 183.003906 171.992188 183.0625 172.34375 183.195312 C 173.554688 183.652344 174.472656 185.078125 174.070312 186.398438 C 171.992188 193.25 169.988281 200.121094 168.070312 207.019531 C 169.75 203.160156 171.496094 199.328125 173.316406 195.535156 C 173.746094 194.632812 174.6875 194.132812 175.640625 194.097656 C 176.011719 194.082031 176.386719 194.140625 176.730469 194.269531 C 177.933594 194.726562 178.867188 196.15625 178.457031 197.476562 C 176.75 202.976562 175.144531 208.507812 173.65625 214.074219 C 173.214844 215.707031 172.800781 217.347656 172.382812 218.988281 C 174.734375 212.753906 177.234375 206.574219 179.914062 200.472656 C 180.3125 199.5625 181.277344 199.074219 182.234375 199.039062 C 182.609375 199.023438 182.988281 199.082031 183.328125 199.210938 C 184.644531 199.707031 185.308594 201.046875 185.050781 202.414062 C 184.171875 207.089844 183.285156 211.761719 182.40625 216.4375 C 181.570312 220.863281 180.734375 225.289062 179.898438 229.714844 C 182.421875 224.042969 185.167969 218.472656 188.160156 213.035156 C 188.648438 212.152344 189.542969 211.632812 190.492188 211.597656 C 190.851562 211.582031 191.21875 211.636719 191.574219 211.773438 C 192.8125 212.242188 193.664062 213.644531 193.300781 214.976562 C 192.402344 218.277344 191.5 221.582031 190.640625 224.894531 C 190.1875 226.628906 189.757812 228.367188 189.335938 230.109375 C 191.8125 225.339844 194.464844 220.652344 197.019531 215.910156 C 197.515625 214.992188 198.421875 214.550781 199.335938 214.515625 C 200.773438 214.460938 202.238281 215.402344 202.230469 217.113281 C 202.210938 221.722656 201.996094 226.335938 201.589844 230.929688 C 203.238281 227.117188 204.882812 223.304688 206.535156 219.492188 C 208.691406 222.902344 210.84375 226.316406 213.003906 229.726562 C 212.902344 233.550781 212.347656 237.359375 211.304688 241.078125 C 210.96875 242.28125 210.003906 243.070312 208.84375 243.179688 C 208.394531 243.113281 207.945312 243.050781 207.496094 242.992188 C 206.328125 242.488281 205.566406 241.042969 205.914062 239.808594 C 206.378906 238.148438 206.753906 236.472656 207.027344 234.773438 C 207.160156 233.945312 207.269531 233.117188 207.351562 232.285156 C 207.355469 232.230469 207.363281 232.15625 207.367188 232.097656 C 207.386719 231.859375 207.402344 231.621094 207.417969 231.382812 L 207.421875 231.351562 C 205.816406 235.058594 204.214844 238.769531 202.609375 242.480469 C 199.949219 242.269531 197.277344 242.183594 194.601562 242.207031 C 195.34375 237.769531 195.875 233.363281 196.21875 228.910156 C 193.976562 233.03125 191.792969 237.191406 189.933594 241.5 C 189.808594 241.796875 189.683594 242.09375 189.558594 242.390625 C 186.695312 242.574219 183.839844 242.890625 181.011719 243.335938 C 181.207031 242.132812 181.421875 240.929688 181.644531 239.734375 C 181.464844 240.179688 181.277344 240.621094 181.101562 241.066406 C 180.785156 241.867188 180.472656 242.667969 180.167969 243.472656 C 177.175781 243.972656 174.214844 244.621094 171.300781 245.414062 C 172.257812 240.351562 173.210938 235.289062 174.167969 230.226562 C 174.003906 230.707031 173.824219 231.183594 173.660156 231.664062 C 172.089844 236.273438 170.605469 240.914062 169.214844 245.582031 C 169.167969 245.738281 169.125 245.894531 169.078125 246.046875 C 166.03125 246.960938 163.042969 248.035156 160.132812 249.269531 C 160.929688 244.835938 161.800781 240.417969 162.726562 236.007812 C 161.394531 239.925781 160.128906 243.867188 158.9375 247.828125 C 158.707031 248.582031 158.484375 249.335938 158.261719 250.089844 C 157.417969 250.472656 156.578125 250.871094 155.746094 251.28125 C 153.996094 252.148438 152.277344 253.085938 150.601562 254.089844 C 152.992188 243.28125 155.582031 232.519531 158.359375 221.804688 C 158.671875 220.597656 159 219.390625 159.316406 218.183594 C 155.960938 226.273438 152.929688 234.332031 150.097656 242.726562 C 148.449219 247.613281 146.894531 252.539062 145.433594 257.488281 C 143.832031 258.644531 142.28125 259.867188 140.78125 261.15625 M 182.152344 259.355469 C 181.925781 259.363281 181.695312 259.34375 181.464844 259.300781 C 179.867188 259 179.261719 257.40625 179.402344 255.96875 C 179.644531 253.566406 179.914062 251.164062 180.222656 248.765625 C 182.632812 248.351562 185.0625 248.039062 187.496094 247.828125 C 187.421875 248.054688 187.347656 248.28125 187.269531 248.511719 C 186.320312 251.382812 185.511719 254.300781 184.796875 257.242188 C 184.617188 257.980469 184.167969 258.558594 183.582031 258.921875 C 183.363281 259.019531 183.144531 259.121094 182.925781 259.222656 C 182.679688 259.296875 182.417969 259.34375 182.152344 259.355469 M 194.765625 254.601562 C 194.683594 254.582031 194.609375 254.558594 194.53125 254.527344 C 193.25 254.042969 192.5 252.675781 192.804688 251.324219 C 193.097656 250.042969 193.371094 248.773438 193.625 247.503906 C 195.882812 247.460938 198.140625 247.503906 200.382812 247.628906 C 199.570312 249.507812 198.757812 251.386719 197.945312 253.265625 C 197.878906 253.425781 197.792969 253.570312 197.691406 253.703125 C 196.710938 253.988281 195.734375 254.289062 194.765625 254.601562 M 116.265625 251.21875 C 116.039062 251.226562 115.808594 251.210938 115.578125 251.167969 C 114.0625 250.882812 113.25 249.257812 113.515625 247.835938 C 114.570312 242.273438 115.726562 236.726562 116.988281 231.203125 C 118.539062 233.679688 120.078125 236.164062 121.601562 238.660156 C 120.652344 242.128906 119.753906 245.613281 118.910156 249.105469 C 118.601562 250.378906 117.496094 251.171875 116.265625 251.21875 M 115.808594 229.324219 C 114.382812 229.03125 113.519531 227.480469 113.765625 226.105469 C 114.449219 227.175781 115.128906 228.253906 115.808594 229.324219 M 107.136719 226.375 C 106.910156 226.382812 106.683594 226.367188 106.453125 226.324219 C 104.941406 226.039062 104.117188 224.410156 104.390625 222.992188 C 104.9375 220.152344 105.546875 217.324219 106.222656 214.507812 C 107.679688 216.703125 109.121094 218.90625 110.554688 221.113281 C 110.292969 222.164062 110.039062 223.210938 109.785156 224.261719 C 109.472656 225.535156 108.367188 226.328125 107.136719 226.375 M 97.171875 221.035156 C 96.941406 221.042969 96.703125 221.023438 96.457031 220.976562 C 94.992188 220.703125 94.058594 219.054688 94.394531 217.648438 C 95.601562 212.632812 96.863281 207.628906 98.1875 202.644531 C 99.800781 204.980469 101.40625 207.328125 102.992188 209.683594 C 102.800781 210.210938 102.613281 210.734375 102.425781 211.261719 C 101.511719 213.800781 100.632812 216.351562 99.789062 218.917969 C 99.375 220.160156 98.414062 220.988281 97.171875 221.035156 M 90.5 212.714844 C 90.273438 212.722656 90.039062 212.707031 89.800781 212.660156 C 88.371094 212.390625 87.355469 210.726562 87.738281 209.328125 C 89.15625 204.207031 90.574219 199.085938 91.988281 193.960938 C 92 193.925781 92.007812 193.886719 92.019531 193.847656 C 93.464844 195.878906 94.902344 197.917969 96.324219 199.960938 C 95.1875 203.484375 94.121094 207.03125 93.132812 210.601562 C 92.785156 211.863281 91.734375 212.667969 90.5 212.714844 M 82.84375 211.21875 C 82.617188 211.226562 82.394531 211.210938 82.179688 211.167969 C 80.605469 210.871094 79.933594 209.269531 80.117188 207.835938 C 80.816406 202.382812 81.8125 196.96875 83.105469 191.625 C 83.140625 191.484375 83.179688 191.34375 83.214844 191.207031 C 83.683594 188.683594 84.152344 186.160156 84.625 183.632812 C 86.175781 185.742188 87.71875 187.855469 89.246094 189.980469 C 89.019531 190.851562 88.796875 191.726562 88.585938 192.601562 C 87.558594 198.101562 86.535156 203.605469 85.511719 209.109375 C 85.269531 210.398438 84.066406 211.171875 82.84375 211.21875 M 75.148438 206.902344 C 73.886719 205.789062 72.601562 204.703125 71.300781 203.636719 C 71.242188 201.535156 71.222656 199.4375 71.234375 197.335938 C 70.738281 197.832031 70.039062 198.125 69.332031 198.179688 C 69.324219 198.324219 69.316406 198.460938 69.308594 198.605469 C 69.238281 199.648438 68.796875 200.523438 68.019531 201.027344 C 66.628906 199.957031 65.222656 198.914062 63.792969 197.898438 C 63.851562 196.011719 63.984375 194.128906 64.1875 192.253906 C 64.277344 190.847656 64.367188 189.4375 64.457031 188.027344 C 66.136719 182.203125 68.125 176.472656 70.421875 170.859375 C 70.769531 170.65625 71.167969 170.53125 71.574219 170.488281 C 71.839844 169.484375 72.113281 168.480469 72.394531 167.480469 C 74.355469 170 76.300781 172.535156 78.230469 175.078125 C 78.183594 175.433594 78.136719 175.792969 78.09375 176.152344 C 77.898438 177.707031 77.726562 179.265625 77.574219 180.828125 C 78.074219 179.300781 78.589844 177.777344 79.125 176.257812 C 80.464844 178.039062 81.800781 179.820312 83.128906 181.609375 C 82.988281 182.03125 82.851562 182.449219 82.714844 182.875 C 80.359375 190.140625 78.386719 197.527344 76.789062 204.996094 C 76.574219 206.003906 75.925781 206.628906 75.148438 206.902344 M 79.304688 167.902344 C 77.617188 165.707031 75.914062 163.519531 74.203125 161.34375 C 74.871094 159.1875 75.570312 157.042969 76.300781 154.90625 C 76.722656 153.664062 77.667969 152.835938 78.914062 152.789062 C 79.140625 152.78125 79.382812 152.796875 79.632812 152.84375 C 81.097656 153.121094 82.027344 154.769531 81.691406 156.175781 C 80.859375 159.6875 80.128906 163.21875 79.5 166.769531 C 79.433594 167.148438 79.367188 167.527344 79.304688 167.902344 " fill-opacity="1" fill-rule="nonzero"/></g></g></g><g clip-path="url(#7a037e7fb9)"><g clip-path="url(#39b12a5036)"><g clip-path="url(#632a56b7d0)"><path fill="#ed664f" d="M 159.332031 276.007812 C 159.109375 276.015625 158.882812 276 158.660156 275.957031 C 158.273438 275.886719 157.945312 275.734375 157.667969 275.53125 C 159.238281 274.160156 160.847656 272.835938 162.496094 271.566406 C 162.328125 272.339844 162.15625 273.117188 161.992188 273.894531 C 161.71875 275.179688 160.5625 275.960938 159.332031 276.007812 M 170.398438 268.152344 C 170.171875 268.160156 169.941406 268.144531 169.707031 268.101562 C 169.164062 268 168.710938 267.726562 168.367188 267.351562 C 170.0625 266.222656 171.789062 265.140625 173.546875 264.109375 C 173.375 264.753906 173.207031 265.394531 173.039062 266.039062 C 172.710938 267.308594 171.632812 268.105469 170.398438 268.152344 M 140.257812 267.863281 C 139.285156 267.902344 138.296875 267.382812 137.792969 266.472656 C 135.667969 262.648438 133.511719 258.835938 131.324219 255.046875 C 131.414062 254.628906 131.503906 254.210938 131.589844 253.792969 C 132.035156 251.699219 132.488281 249.613281 132.957031 247.523438 C 135.609375 252.042969 138.21875 256.585938 140.78125 261.15625 C 142.28125 259.867188 143.832031 258.644531 145.433594 257.488281 C 144.585938 260.363281 143.773438 263.25 142.988281 266.144531 C 142.609375 266.488281 142.234375 266.835938 141.863281 267.1875 C 141.398438 267.628906 140.832031 267.84375 140.257812 267.863281 M 149.03125 261.320312 C 149.203125 260.503906 149.378906 259.691406 149.554688 258.875 C 149.898438 257.277344 150.246094 255.683594 150.601562 254.089844 C 152.277344 253.085938 153.996094 252.148438 155.746094 251.28125 C 156.578125 250.871094 157.417969 250.472656 158.261719 250.089844 C 157.605469 252.320312 156.976562 254.558594 156.363281 256.800781 C 153.828125 258.152344 151.378906 259.65625 149.03125 261.320312 M 182.925781 259.222656 C 183.144531 259.121094 183.363281 259.019531 183.582031 258.921875 C 183.378906 259.046875 183.160156 259.148438 182.925781 259.222656 M 195.625 254.699219 C 195.332031 254.710938 195.039062 254.675781 194.765625 254.601562 C 195.734375 254.289062 196.710938 253.988281 197.691406 253.703125 C 197.214844 254.332031 196.417969 254.667969 195.625 254.699219 M 159.074219 255.425781 C 159.410156 253.375 159.765625 251.320312 160.132812 249.269531 C 163.042969 248.035156 166.03125 246.960938 169.078125 246.046875 C 168.488281 248.039062 167.914062 250.035156 167.359375 252.039062 C 164.527344 253.007812 161.757812 254.136719 159.074219 255.425781 M 170.222656 251.117188 C 170.246094 250.992188 170.269531 250.871094 170.292969 250.746094 C 170.628906 248.96875 170.964844 247.191406 171.300781 245.414062 C 174.214844 244.621094 177.175781 243.972656 180.167969 243.472656 C 180.164062 243.488281 180.160156 243.5 180.15625 243.511719 C 180.117188 243.613281 180.054688 243.777344 180.035156 243.824219 C 179.953125 244.042969 179.871094 244.265625 179.789062 244.484375 C 179.660156 244.839844 179.527344 245.191406 179.402344 245.546875 C 178.960938 246.746094 178.535156 247.949219 178.117188 249.15625 C 175.453125 249.679688 172.816406 250.335938 170.222656 251.117188 M 129.222656 251.425781 C 127.742188 248.890625 126.25 246.367188 124.742188 243.851562 C 125.132812 242.027344 125.535156 240.210938 125.9375 238.390625 C 126.078125 237.761719 126.21875 237.136719 126.359375 236.507812 C 127.960938 239.132812 129.546875 241.765625 131.117188 244.410156 C 130.460938 246.742188 129.828125 249.078125 129.222656 251.425781 M 180.222656 248.765625 C 180.351562 247.773438 180.488281 246.78125 180.628906 245.789062 C 180.75 244.96875 180.878906 244.152344 181.011719 243.335938 C 183.839844 242.890625 186.695312 242.574219 189.558594 242.390625 C 189.195312 243.261719 188.847656 244.132812 188.503906 245.011719 L 188.46875 245.097656 C 188.460938 245.125 188.449219 245.152344 188.4375 245.191406 C 188.382812 245.335938 188.328125 245.480469 188.277344 245.625 C 188.15625 245.949219 188.039062 246.277344 187.921875 246.605469 C 187.777344 247.011719 187.636719 247.417969 187.496094 247.828125 C 185.0625 248.039062 182.632812 248.351562 180.222656 248.765625 M 200.382812 247.628906 C 198.140625 247.503906 195.882812 247.460938 193.625 247.503906 C 193.984375 245.730469 194.308594 243.964844 194.601562 242.207031 C 197.277344 242.183594 199.949219 242.269531 202.609375 242.480469 C 201.867188 244.195312 201.125 245.910156 200.382812 247.628906 M 208.671875 243.191406 C 208.449219 243.199219 208.210938 243.183594 207.976562 243.140625 C 207.8125 243.105469 207.652344 243.058594 207.496094 242.992188 C 207.945312 243.050781 208.394531 243.113281 208.84375 243.179688 C 208.789062 243.1875 208.730469 243.191406 208.671875 243.191406 M 121.601562 238.660156 C 120.078125 236.164062 118.539062 233.679688 116.988281 231.203125 C 117.140625 230.535156 117.292969 229.871094 117.449219 229.207031 C 117.160156 229.3125 116.851562 229.375 116.535156 229.386719 C 116.308594 229.394531 116.078125 229.378906 115.847656 229.335938 C 115.835938 229.332031 115.820312 229.328125 115.808594 229.324219 C 115.128906 228.253906 114.449219 227.175781 113.765625 226.105469 C 113.773438 226.070312 113.777344 226.035156 113.785156 226.003906 C 114.296875 223.691406 114.839844 221.382812 115.417969 219.085938 C 118.160156 223.328125 120.863281 227.597656 123.527344 231.894531 C 122.859375 234.144531 122.21875 236.398438 121.601562 238.660156 M 213.003906 229.726562 C 210.84375 226.316406 208.691406 222.902344 206.535156 219.492188 C 206.6875 219.132812 206.84375 218.777344 206.996094 218.417969 C 207.382812 217.527344 208.410156 217.019531 209.351562 216.984375 C 209.46875 216.980469 209.589844 216.984375 209.703125 216.992188 C 210.675781 217.085938 211.875 217.835938 212.082031 218.890625 C 212.78125 222.472656 213.09375 226.105469 213.003906 229.726562 M 110.554688 221.113281 C 109.121094 218.90625 107.679688 216.703125 106.222656 214.507812 C 106.761719 212.253906 107.339844 210.011719 107.964844 207.78125 C 109.417969 209.945312 110.863281 212.121094 112.296875 214.304688 C 111.703125 216.570312 111.121094 218.839844 110.554688 221.113281 M 102.992188 209.683594 C 101.40625 207.328125 99.800781 204.980469 98.1875 202.644531 C 98.371094 201.949219 98.558594 201.25 98.746094 200.558594 C 99.144531 199.070312 99.550781 197.585938 99.960938 196.101562 C 101.734375 198.640625 103.492188 201.1875 105.234375 203.746094 C 105.191406 203.859375 105.144531 203.972656 105.101562 204.085938 C 104.832031 204.777344 104.566406 205.472656 104.300781 206.167969 C 104.269531 206.242188 104.136719 206.601562 104.121094 206.648438 C 104.019531 206.917969 103.917969 207.1875 103.816406 207.457031 C 103.539062 208.199219 103.265625 208.941406 102.992188 209.683594 M 74.289062 207.0625 C 72.867188 207.117188 71.382812 206.191406 71.324219 204.464844 C 71.316406 204.1875 71.308594 203.910156 71.300781 203.636719 C 72.601562 204.703125 73.886719 205.789062 75.148438 206.902344 C 74.875 207 74.582031 207.050781 74.289062 207.0625 M 66.546875 201.484375 C 65.144531 201.535156 63.746094 200.230469 63.773438 198.8125 C 63.777344 198.507812 63.785156 198.203125 63.792969 197.898438 C 65.222656 198.914062 66.628906 199.957031 68.019531 201.027344 C 67.636719 201.277344 67.175781 201.433594 66.644531 201.476562 C 66.613281 201.480469 66.578125 201.480469 66.546875 201.484375 M 96.324219 199.960938 C 94.902344 197.917969 93.464844 195.878906 92.019531 193.847656 C 92.613281 191.699219 93.207031 189.554688 93.800781 187.40625 C 95.339844 189.546875 96.871094 191.699219 98.386719 193.855469 C 98.054688 194.800781 97.726562 195.75 97.40625 196.703125 C 97.039062 197.785156 96.675781 198.871094 96.324219 199.960938 M 89.246094 189.980469 C 87.71875 187.855469 86.175781 185.742188 84.625 183.632812 C 85.058594 181.308594 85.492188 178.980469 85.925781 176.652344 C 87.652344 178.96875 89.363281 181.292969 91.0625 183.628906 C 90.414062 185.730469 89.808594 187.847656 89.246094 189.980469 M 64.457031 188.027344 C 64.566406 186.316406 64.675781 184.605469 64.78125 182.898438 C 64.859375 181.660156 65.480469 180.667969 66.546875 180.242188 C 67.355469 177.410156 68.335938 174.625 69.488281 171.894531 C 69.679688 171.441406 70.011719 171.097656 70.421875 170.859375 C 68.125 176.472656 66.136719 182.203125 64.457031 188.027344 M 83.128906 181.609375 C 81.800781 179.820312 80.464844 178.039062 79.125 176.257812 C 79.804688 174.3125 80.515625 172.375 81.25 170.449219 C 81.347656 170.578125 81.449219 170.710938 81.550781 170.839844 C 82.765625 172.441406 83.980469 174.050781 85.183594 175.664062 C 84.980469 176.234375 84.773438 176.808594 84.570312 177.378906 C 84.078125 178.785156 83.59375 180.195312 83.128906 181.609375 M 78.230469 175.078125 C 76.300781 172.535156 74.355469 170 72.394531 167.480469 C 72.96875 165.425781 73.574219 163.382812 74.203125 161.34375 C 75.914062 163.519531 77.617188 165.707031 79.304688 167.902344 C 78.898438 170.289062 78.539062 172.679688 78.230469 175.078125 " fill-opacity="1" fill-rule="nonzero"/></g></g></g></svg>