<svg xmlns="http://www.w3.org/2000/svg" xmlns:xlink="http://www.w3.org/1999/xlink" width="500" zoomAndPan="magnify" viewBox="0 0 375 374.999991" height="500" preserveAspectRatio="xMidYMid meet" version="1.0"><defs><clipPath id="e5c78b7955"><path d="M 79 171 L 173 171 L 173 244 L 79 244 Z M 79 171 " clip-rule="nonzero"/></clipPath><clipPath id="23385cfd56"><path d="M 62.492188 235.84375 L 148.660156 59.242188 L 312.453125 139.164062 L 226.285156 315.761719 Z M 62.492188 235.84375 " clip-rule="nonzero"/></clipPath><clipPath id="c9ba21305d"><path d="M 62.492188 235.84375 L 148.660156 59.242188 L 312.453125 139.164062 L 226.285156 315.761719 Z M 62.492188 235.84375 " clip-rule="nonzero"/></clipPath><clipPath id="b3d3b9775d"><path d="M 86 228 L 87 228 L 87 229 L 86 229 Z M 86 228 " clip-rule="nonzero"/></clipPath><clipPath id="4812a7c86c"><path d="M 62.492188 235.84375 L 148.660156 59.242188 L 312.453125 139.164062 L 226.285156 315.761719 Z M 62.492188 235.84375 " clip-rule="nonzero"/></clipPath><clipPath id="dce5a89e52"><path d="M 62.492188 235.84375 L 148.660156 59.242188 L 312.453125 139.164062 L 226.285156 315.761719 Z M 62.492188 235.84375 " clip-rule="nonzero"/></clipPath><clipPath id="6190474fd4"><path d="M 179 102 L 256 102 L 256 175 L 179 175 Z M 179 102 " clip-rule="nonzero"/></clipPath><clipPath id="a59038c980"><path d="M 62.492188 235.84375 L 148.660156 59.242188 L 312.453125 139.164062 L 226.285156 315.761719 Z M 62.492188 235.84375 " clip-rule="nonzero"/></clipPath><clipPath id="e9ec50ff45"><path d="M 62.492188 235.84375 L 148.660156 59.242188 L 312.453125 139.164062 L 226.285156 315.761719 Z M 62.492188 235.84375 " clip-rule="nonzero"/></clipPath><clipPath id="79d6a9cb75"><path d="M 177 165.707031 L 213.480469 90.945312 L 266.101562 116.621094 L 229.625 191.382812 Z M 177 165.707031 " clip-rule="nonzero"/></clipPath><clipPath id="ff8a2cc92a"><path d="M 229 108 L 231 108 L 231 109 L 229 109 Z M 229 108 " clip-rule="nonzero"/></clipPath><clipPath id="2f16d269b7"><path d="M 62.492188 235.84375 L 148.660156 59.242188 L 312.453125 139.164062 L 226.285156 315.761719 Z M 62.492188 235.84375 " clip-rule="nonzero"/></clipPath><clipPath id="9007549433"><path d="M 62.492188 235.84375 L 148.660156 59.242188 L 312.453125 139.164062 L 226.285156 315.761719 Z M 62.492188 235.84375 " clip-rule="nonzero"/></clipPath><clipPath id="3c579c934d"><path d="M 231 161 L 232 161 L 232 162 L 231 162 Z M 231 161 " clip-rule="nonzero"/></clipPath><clipPath id="3bf842f502"><path d="M 62.492188 235.84375 L 148.660156 59.242188 L 312.453125 139.164062 L 226.285156 315.761719 Z M 62.492188 235.84375 " clip-rule="nonzero"/></clipPath><clipPath id="b7ac6fe419"><path d="M 62.492188 235.84375 L 148.660156 59.242188 L 312.453125 139.164062 L 226.285156 315.761719 Z M 62.492188 235.84375 " clip-rule="nonzero"/></clipPath><clipPath id="1d234d834a"><path d="M 144 176 L 195 176 L 195 284 L 144 284 Z M 144 176 " clip-rule="nonzero"/></clipPath><clipPath id="c496b24428"><path d="M 62.492188 235.84375 L 148.660156 59.242188 L 312.453125 139.164062 L 226.285156 315.761719 Z M 62.492188 235.84375 " clip-rule="nonzero"/></clipPath><clipPath id="bd83bbf2d0"><path d="M 62.492188 235.84375 L 148.660156 59.242188 L 312.453125 139.164062 L 226.285156 315.761719 Z M 62.492188 235.84375 " clip-rule="nonzero"/></clipPath><clipPath id="c3c62af1c3"><path d="M 189 166 L 282 166 L 282 215 L 189 215 Z M 189 166 " clip-rule="nonzero"/></clipPath><clipPath id="82a766e461"><path d="M 62.492188 235.84375 L 148.660156 59.242188 L 312.453125 139.164062 L 226.285156 315.761719 Z M 62.492188 235.84375 " clip-rule="nonzero"/></clipPath><clipPath id="83a1390703"><path d="M 62.492188 235.84375 L 148.660156 59.242188 L 312.453125 139.164062 L 226.285156 315.761719 Z M 62.492188 235.84375 " clip-rule="nonzero"/></clipPath><clipPath id="2225296ba4"><path d="M 183.117188 182.84375 L 201.921875 144.304688 L 289.195312 186.890625 L 270.394531 225.425781 Z M 183.117188 182.84375 " clip-rule="nonzero"/></clipPath><clipPath id="73992d7acb"><path d="M 153 156 L 155 156 L 155 157 L 153 157 Z M 153 156 " clip-rule="nonzero"/></clipPath><clipPath id="d4f7b66e97"><path d="M 62.492188 235.84375 L 148.660156 59.242188 L 312.453125 139.164062 L 226.285156 315.761719 Z M 62.492188 235.84375 " clip-rule="nonzero"/></clipPath><clipPath id="6b25e922d5"><path d="M 62.492188 235.84375 L 148.660156 59.242188 L 312.453125 139.164062 L 226.285156 315.761719 Z M 62.492188 235.84375 " clip-rule="nonzero"/></clipPath><clipPath id="e2f785f84d"><path d="M 167 154 L 169 154 L 169 155 L 167 155 Z M 167 154 " clip-rule="nonzero"/></clipPath><clipPath id="e6cc37553d"><path d="M 62.492188 235.84375 L 148.660156 59.242188 L 312.453125 139.164062 L 226.285156 315.761719 Z M 62.492188 235.84375 " clip-rule="nonzero"/></clipPath><clipPath id="23b93d7ede"><path d="M 62.492188 235.84375 L 148.660156 59.242188 L 312.453125 139.164062 L 226.285156 315.761719 Z M 62.492188 235.84375 " clip-rule="nonzero"/></clipPath><clipPath id="cd8d8f8a1b"><path d="M 165 154 L 166 154 L 166 155 L 165 155 Z M 165 154 " clip-rule="nonzero"/></clipPath><clipPath id="7f8cdb0563"><path d="M 62.492188 235.84375 L 148.660156 59.242188 L 312.453125 139.164062 L 226.285156 315.761719 Z M 62.492188 235.84375 " clip-rule="nonzero"/></clipPath><clipPath id="912466e85f"><path d="M 62.492188 235.84375 L 148.660156 59.242188 L 312.453125 139.164062 L 226.285156 315.761719 Z M 62.492188 235.84375 " clip-rule="nonzero"/></clipPath><clipPath id="c05fb78be7"><path d="M 169 149 L 170 149 L 170 151 L 169 151 Z M 169 149 " clip-rule="nonzero"/></clipPath><clipPath id="b3fc48c7ba"><path d="M 62.492188 235.84375 L 148.660156 59.242188 L 312.453125 139.164062 L 226.285156 315.761719 Z M 62.492188 235.84375 " clip-rule="nonzero"/></clipPath><clipPath id="11fcbc91f7"><path d="M 62.492188 235.84375 L 148.660156 59.242188 L 312.453125 139.164062 L 226.285156 315.761719 Z M 62.492188 235.84375 " clip-rule="nonzero"/></clipPath><clipPath id="9d725b8b81"><path d="M 165 147 L 166 147 L 166 148 L 165 148 Z M 165 147 " clip-rule="nonzero"/></clipPath><clipPath id="2b19c5bcad"><path d="M 62.492188 235.84375 L 148.660156 59.242188 L 312.453125 139.164062 L 226.285156 315.761719 Z M 62.492188 235.84375 " clip-rule="nonzero"/></clipPath><clipPath id="a28126aafe"><path d="M 62.492188 235.84375 L 148.660156 59.242188 L 312.453125 139.164062 L 226.285156 315.761719 Z M 62.492188 235.84375 " clip-rule="nonzero"/></clipPath><clipPath id="fc43d74d3c"><path d="M 164 153 L 165 153 L 165 154 L 164 154 Z M 164 153 " clip-rule="nonzero"/></clipPath><clipPath id="34a3800039"><path d="M 62.492188 235.84375 L 148.660156 59.242188 L 312.453125 139.164062 L 226.285156 315.761719 Z M 62.492188 235.84375 " clip-rule="nonzero"/></clipPath><clipPath id="eb5a89009d"><path d="M 62.492188 235.84375 L 148.660156 59.242188 L 312.453125 139.164062 L 226.285156 315.761719 Z M 62.492188 235.84375 " clip-rule="nonzero"/></clipPath><clipPath id="4df904953e"><path d="M 168 148 L 169 148 L 169 149 L 168 149 Z M 168 148 " clip-rule="nonzero"/></clipPath><clipPath id="1e5b832e6d"><path d="M 62.492188 235.84375 L 148.660156 59.242188 L 312.453125 139.164062 L 226.285156 315.761719 Z M 62.492188 235.84375 " clip-rule="nonzero"/></clipPath><clipPath id="669c6e6bf6"><path d="M 62.492188 235.84375 L 148.660156 59.242188 L 312.453125 139.164062 L 226.285156 315.761719 Z M 62.492188 235.84375 " clip-rule="nonzero"/></clipPath><clipPath id="b8f6cc147d"><path d="M 167 154 L 168 154 L 168 155 L 167 155 Z M 167 154 " clip-rule="nonzero"/></clipPath><clipPath id="db321e81e1"><path d="M 62.492188 235.84375 L 148.660156 59.242188 L 312.453125 139.164062 L 226.285156 315.761719 Z M 62.492188 235.84375 " clip-rule="nonzero"/></clipPath><clipPath id="8bda1df017"><path d="M 62.492188 235.84375 L 148.660156 59.242188 L 312.453125 139.164062 L 226.285156 315.761719 Z M 62.492188 235.84375 " clip-rule="nonzero"/></clipPath><clipPath id="d9cb295bef"><path d="M 107 108 L 223 108 L 223 235 L 107 235 Z M 107 108 " clip-rule="nonzero"/></clipPath><clipPath id="e78d4c951c"><path d="M 62.492188 235.84375 L 148.660156 59.242188 L 312.453125 139.164062 L 226.285156 315.761719 Z M 62.492188 235.84375 " clip-rule="nonzero"/></clipPath><clipPath id="0d174cebfb"><path d="M 62.492188 235.84375 L 148.660156 59.242188 L 312.453125 139.164062 L 226.285156 315.761719 Z M 62.492188 235.84375 " clip-rule="nonzero"/></clipPath></defs><g clip-path="url(#e5c78b7955)"><g clip-path="url(#23385cfd56)"><g clip-path="url(#c9ba21305d)"><path fill="#89d0d3" d="M 163.707031 179.554688 C 163.546875 178.789062 163.3125 178.039062 163.019531 177.316406 C 163.765625 177.285156 164.511719 177.257812 165.257812 177.242188 C 164.742188 178.011719 164.226562 178.785156 163.707031 179.554688 Z M 135.964844 215.511719 C 135.242188 216.253906 134.511719 216.988281 133.773438 217.714844 C 133.757812 217.632812 133.753906 217.550781 133.726562 217.472656 C 133.324219 216.167969 132.921875 214.863281 132.519531 213.558594 C 133.21875 213.976562 134.058594 214.105469 134.925781 213.808594 C 136.328125 213.328125 137.121094 211.914062 136.871094 210.453125 C 136.5 208.308594 136.128906 206.164062 135.757812 204.019531 C 136.128906 204.609375 136.496094 205.199219 136.867188 205.789062 C 137.65625 207.050781 138.980469 207.753906 140.457031 207.25 C 141.933594 206.746094 142.554688 205.378906 142.402344 203.894531 C 142.347656 203.347656 142.292969 202.796875 142.238281 202.25 C 142.90625 203.082031 144.109375 203.5625 145.132812 203.308594 C 146.332031 203.015625 147.535156 201.917969 147.496094 200.585938 C 147.4375 198.644531 147.378906 196.699219 147.320312 194.761719 C 148.667969 197.335938 152.683594 196.441406 152.871094 193.550781 C 152.953125 192.28125 153.035156 191.011719 153.121094 189.742188 C 153.519531 190.183594 153.925781 190.617188 154.351562 191.03125 C 154.652344 191.320312 154.976562 191.546875 155.324219 191.710938 C 154.210938 193.277344 153.085938 194.839844 151.941406 196.386719 C 146.804688 203.339844 141.867188 209.449219 135.964844 215.511719 Z M 126.746094 224.105469 C 125.136719 225.453125 123.488281 226.757812 121.796875 228.011719 C 120.953125 228.640625 120.097656 229.257812 119.230469 229.859375 C 119.011719 230.007812 118.796875 230.15625 118.578125 230.304688 C 118.53125 230.339844 118.5 230.359375 118.480469 230.375 C 118.433594 230.40625 118.382812 230.4375 118.3125 230.484375 C 117.921875 230.742188 117.53125 231 117.136719 231.253906 C 114.5625 232.890625 111.839844 234.3125 108.996094 235.425781 C 108.679688 235.550781 108.363281 235.667969 108.042969 235.785156 C 107.925781 235.828125 107.8125 235.867188 107.695312 235.90625 C 107.65625 235.921875 107.617188 235.933594 107.589844 235.941406 C 106.800781 236.183594 106.019531 236.421875 105.21875 236.621094 C 103.808594 236.96875 102.378906 237.207031 100.933594 237.34375 C 100.75 237.351562 100.5625 237.363281 100.375 237.371094 C 100.058594 237.378906 99.738281 237.382812 99.421875 237.378906 C 98.6875 237.367188 97.953125 237.320312 97.222656 237.226562 C 97.015625 237.203125 95.921875 237.121094 96.734375 237.167969 C 96.398438 237.148438 96.042969 237.023438 95.722656 236.9375 C 95.050781 236.765625 94.394531 236.546875 93.75 236.292969 C 93.589844 236.226562 93.433594 236.15625 93.273438 236.089844 C 93.203125 236.058594 93.132812 236.042969 93.078125 236.03125 C 92.828125 235.917969 92.554688 235.710938 92.367188 235.601562 C 91.726562 235.226562 91.132812 234.796875 90.542969 234.351562 C 90.519531 234.332031 90.503906 234.320312 90.484375 234.308594 C 90.347656 234.171875 90.199219 234.046875 90.058594 233.910156 C 89.773438 233.632812 89.5 233.34375 89.238281 233.042969 C 88.976562 232.746094 88.726562 232.4375 88.488281 232.121094 C 88.394531 231.992188 88.304688 231.863281 88.210938 231.734375 C 88.648438 232.328125 88.222656 231.742188 88.128906 231.597656 C 87.714844 230.921875 87.34375 230.214844 87.023438 229.488281 C 86.867188 229.125 86.726562 228.761719 86.585938 228.390625 C 86.589844 228.402344 86.589844 228.402344 86.59375 228.414062 C 86.589844 228.40625 86.585938 228.394531 86.585938 228.386719 C 86.582031 228.382812 86.582031 228.378906 86.578125 228.375 C 86.554688 228.308594 86.519531 228.183594 86.511719 228.136719 C 86.46875 228 86.421875 227.859375 86.382812 227.71875 C 86.164062 226.9375 85.992188 226.144531 85.871094 225.34375 C 85.804688 224.9375 85.753906 224.535156 85.714844 224.128906 C 85.707031 224.042969 85.699219 223.957031 85.691406 223.871094 C 85.695312 223.835938 85.671875 223.375 85.667969 223.28125 C 85.644531 222.5 85.667969 221.714844 85.722656 220.933594 C 85.753906 220.523438 85.796875 220.113281 85.847656 219.703125 C 85.871094 219.539062 85.890625 219.375 85.917969 219.214844 C 85.9375 219.078125 85.960938 218.945312 85.980469 218.808594 C 86.351562 217.117188 86.882812 215.519531 87.554688 213.921875 C 87.566406 213.890625 87.609375 213.796875 87.640625 213.730469 C 87.722656 213.554688 87.808594 213.378906 87.898438 213.207031 C 88.089844 212.832031 88.292969 212.457031 88.5 212.089844 C 89.015625 211.191406 89.570312 210.316406 90.167969 209.472656 C 90.65625 208.777344 91.171875 208.101562 91.710938 207.445312 C 91.734375 207.414062 92.054688 207.035156 92.070312 207.011719 C 92.148438 206.921875 92.226562 206.835938 92.304688 206.75 C 92.683594 206.324219 93.070312 205.90625 93.46875 205.492188 C 96.128906 202.738281 99.121094 200.320312 102.230469 198.09375 C 102.613281 197.820312 102.996094 197.550781 103.378906 197.285156 C 103.53125 197.179688 103.679688 197.074219 103.832031 196.972656 C 103.859375 196.953125 104.0625 196.816406 104.1875 196.730469 C 104.910156 196.246094 105.636719 195.765625 106.371094 195.296875 C 107.636719 194.488281 108.925781 193.707031 110.226562 192.945312 C 109.839844 193.734375 109.820312 194.675781 110.207031 195.546875 C 111.15625 197.691406 112.109375 199.835938 113.0625 201.984375 C 112.128906 200.941406 111.199219 199.898438 110.265625 198.855469 C 109.28125 197.757812 107.625 197.582031 106.425781 198.394531 C 105.183594 199.238281 104.824219 200.769531 105.417969 202.128906 C 106.785156 205.261719 108.152344 208.398438 109.523438 211.53125 C 107.863281 209.601562 106.273438 207.613281 104.761719 205.5625 C 103.894531 204.382812 102.035156 204.351562 100.921875 205.105469 C 99.738281 205.90625 99.238281 207.523438 99.914062 208.835938 C 99.96875 208.945312 100.027344 209.054688 100.082031 209.160156 C 99.578125 208.609375 99.078125 208.054688 98.574219 207.5 C 97.734375 206.578125 96.195312 206.195312 95.0625 206.820312 C 93.988281 207.414062 93.097656 208.777344 93.480469 210.050781 C 93.914062 211.515625 94.402344 212.960938 94.914062 214.394531 C 93.894531 214.410156 92.902344 214.96875 92.355469 215.84375 C 91.738281 215.761719 91.097656 215.84375 90.617188 216.109375 C 89.390625 216.785156 88.890625 217.980469 89.035156 219.339844 C 89.679688 225.375 92.09375 231.074219 95.757812 235.894531 C 96.695312 237.125 98.84375 237.183594 99.921875 236.128906 C 100.84375 235.230469 101.082031 234.070312 100.710938 232.984375 C 101.015625 232.898438 101.300781 232.773438 101.542969 232.609375 C 102.203125 232.160156 102.703125 231.363281 102.839844 230.527344 C 102.925781 230.617188 103.007812 230.710938 103.089844 230.800781 C 104.078125 231.894531 105.722656 232.078125 106.929688 231.261719 C 108.027344 230.519531 108.734375 228.761719 107.9375 227.527344 C 107.332031 226.59375 106.757812 225.640625 106.195312 224.675781 C 107.734375 226.375 109.277344 228.074219 110.816406 229.773438 C 111.808594 230.863281 113.449219 231.046875 114.65625 230.230469 C 115.839844 229.429688 116.34375 227.8125 115.667969 226.496094 C 115.507812 226.195312 115.351562 225.890625 115.195312 225.585938 C 115.730469 226.058594 116.261719 226.527344 116.808594 226.992188 C 117.742188 227.785156 119.535156 227.527344 120.375 226.714844 C 121.335938 225.773438 121.59375 224.4375 121.054688 223.203125 C 120.078125 220.972656 119.105469 218.742188 118.132812 216.511719 C 119.140625 217.640625 120.152344 218.773438 121.164062 219.902344 C 122.144531 221.003906 123.804688 221.175781 125.003906 220.363281 C 126.242188 219.527344 126.617188 217.988281 126.011719 216.628906 C 125.984375 216.566406 125.957031 216.503906 125.929688 216.441406 C 126.832031 217.636719 127.730469 218.828125 128.632812 220.023438 C 129.015625 220.53125 129.65625 220.847656 130.328125 220.957031 C 129.152344 222.027344 127.964844 223.082031 126.746094 224.105469 Z M 100.777344 237.359375 C 100.628906 237.375 100.679688 237.367188 100.777344 237.359375 Z M 131.117188 183.34375 C 131.257812 183.296875 131.820312 183.109375 131.925781 183.074219 C 132.316406 182.945312 132.707031 182.816406 133.097656 182.691406 C 134.054688 182.386719 135.015625 182.09375 135.980469 181.816406 C 137.679688 181.320312 139.390625 180.867188 141.109375 180.449219 C 141.058594 180.644531 141.023438 180.847656 141.03125 181.054688 C 141.074219 182.566406 141.121094 184.078125 141.167969 185.589844 C 140.820312 184.816406 140.476562 184.039062 140.128906 183.265625 C 139.527344 181.921875 137.867188 181.351562 136.535156 181.804688 C 135.0625 182.308594 134.4375 183.675781 134.589844 185.160156 C 134.828125 187.507812 135.070312 189.859375 135.308594 192.210938 C 134.523438 190.949219 133.734375 189.691406 132.949219 188.433594 C 132.160156 187.171875 130.835938 186.464844 129.355469 186.972656 C 127.953125 187.453125 127.15625 188.863281 127.410156 190.324219 C 127.71875 192.113281 128.027344 193.898438 128.332031 195.679688 C 127.378906 194.066406 126.429688 192.453125 125.472656 190.835938 C 124.71875 189.558594 123.332031 188.882812 121.882812 189.378906 C 120.609375 189.8125 119.5 191.324219 119.933594 192.730469 C 120.984375 196.121094 122.03125 199.511719 123.078125 202.902344 C 120.402344 199.359375 117.726562 195.816406 115.054688 192.273438 C 114.585938 191.652344 113.851562 191.355469 113.09375 191.320312 C 115.652344 189.917969 118.265625 188.609375 120.921875 187.40625 C 124.253906 185.894531 127.660156 184.539062 131.117188 183.34375 Z M 154.335938 180.226562 C 154.320312 180.441406 154.300781 180.65625 154.28125 180.867188 C 153.972656 180.195312 153.683594 179.511719 153.4375 178.808594 C 153.355469 178.585938 153.222656 178.390625 153.066406 178.203125 C 153.984375 178.082031 154.902344 177.96875 155.824219 177.867188 C 154.976562 178.351562 154.421875 179.222656 154.335938 180.226562 Z M 146.621094 179.914062 C 146.519531 179.703125 146.378906 179.511719 146.222656 179.332031 C 146.839844 179.210938 147.457031 179.101562 148.074219 178.988281 C 147.945312 179.285156 147.867188 179.609375 147.84375 179.949219 C 147.796875 180.671875 147.75 181.398438 147.703125 182.121094 C 147.34375 181.382812 146.984375 180.648438 146.621094 179.914062 Z M 171.035156 174.4375 C 171.058594 172.910156 169.90625 171.324219 168.257812 171.324219 C 152.652344 171.304688 137.164062 174.367188 122.707031 180.226562 C 115.601562 183.105469 108.773438 186.675781 102.375 190.902344 C 95.574219 195.386719 88.882812 200.5 84.417969 207.441406 C 80.300781 213.84375 78.449219 221.933594 80.734375 229.351562 C 81.902344 233.140625 83.914062 236.449219 86.96875 239 C 89.519531 241.136719 92.609375 242.378906 95.859375 242.960938 C 102.261719 244.113281 109.015625 242.121094 114.746094 239.34375 C 118.082031 237.726562 121.179688 235.683594 124.195312 233.53125 C 127.746094 231 131.128906 228.234375 134.347656 225.292969 C 147.566406 213.234375 158.035156 198.515625 167.996094 183.757812 C 169.210938 181.953125 170.421875 180.144531 171.632812 178.339844 C 172.425781 177.152344 172.152344 175.363281 171.03125 174.46875 C 171.03125 174.457031 171.035156 174.449219 171.035156 174.4375 " fill-opacity="1" fill-rule="nonzero"/></g></g></g><g clip-path="url(#b3d3b9775d)"><g clip-path="url(#4812a7c86c)"><g clip-path="url(#dce5a89e52)"><path fill="#89d0d3" d="M 86.511719 228.136719 C 86.535156 228.222656 86.5625 228.304688 86.585938 228.386719 C 86.585938 228.390625 86.585938 228.390625 86.585938 228.390625 C 86.511719 228.121094 86.5 228.085938 86.511719 228.136719 " fill-opacity="1" fill-rule="nonzero"/></g></g></g><g clip-path="url(#6190474fd4)"><g clip-path="url(#a59038c980)"><g clip-path="url(#e9ec50ff45)"><g clip-path="url(#79d6a9cb75)"><path fill="#89d0d3" d="M 249.347656 134.003906 C 249.34375 134.023438 249.34375 134.027344 249.339844 134.046875 C 249.292969 134.257812 249.257812 134.46875 249.210938 134.679688 C 249.140625 135.015625 249.066406 135.351562 248.988281 135.683594 C 248.789062 136.515625 248.566406 137.347656 248.324219 138.167969 C 247.855469 139.726562 247.308594 141.265625 246.675781 142.765625 C 246.527344 143.121094 246.371094 143.476562 246.214844 143.828125 C 246.132812 144.011719 246.050781 144.191406 245.964844 144.371094 C 245.957031 144.390625 245.953125 144.398438 245.941406 144.417969 C 245.5625 145.191406 245.171875 145.953125 244.753906 146.703125 C 244.246094 147.613281 243.695312 148.503906 243.128906 149.378906 C 241.164062 144.769531 238.972656 140.265625 236.558594 135.878906 C 235.964844 134.550781 235.375 133.21875 234.800781 131.882812 C 234.21875 130.511719 233.648438 129.140625 233.085938 127.761719 C 233.265625 128.015625 233.449219 128.265625 233.625 128.519531 C 233.734375 128.683594 233.839844 128.84375 233.945312 129.007812 C 234.109375 129.257812 234.269531 129.507812 234.429688 129.757812 C 234.800781 130.347656 235.164062 130.9375 235.515625 131.539062 C 236.191406 132.695312 236.832031 133.871094 237.433594 135.070312 C 238.035156 136.265625 238.597656 137.484375 239.121094 138.71875 C 239.390625 139.355469 239.652344 140 239.898438 140.648438 C 240.003906 140.929688 240.109375 141.207031 240.210938 141.488281 C 240.246094 141.582031 240.613281 142.609375 240.460938 142.167969 C 240.957031 143.621094 242.253906 144.890625 243.9375 144.472656 C 245.355469 144.125 246.742188 142.566406 246.246094 140.996094 C 244.855469 136.585938 243.46875 132.179688 242.078125 127.769531 C 243.386719 129.195312 244.699219 130.625 246.007812 132.050781 C 247.03125 133.167969 248.457031 133.226562 249.546875 132.640625 C 249.488281 133.0625 249.433594 133.484375 249.367188 133.90625 C 249.359375 133.953125 249.355469 133.972656 249.347656 134.003906 Z M 246 144.300781 C 246.054688 144.1875 246.113281 144.074219 246 144.300781 Z M 239.589844 154.179688 C 239.582031 154.1875 239.582031 154.1875 239.574219 154.195312 C 238.660156 155.207031 237.722656 156.183594 236.746094 157.125 C 236.964844 156.4375 236.933594 155.667969 236.609375 154.925781 C 234.488281 150.113281 232.535156 145.230469 230.765625 140.277344 C 230.558594 139.699219 230.355469 139.121094 230.152344 138.542969 C 230.050781 138.253906 229.953125 137.964844 229.851562 137.675781 C 229.742188 137.355469 229.832031 137.609375 229.851562 137.675781 C 229.789062 137.480469 229.722656 137.289062 229.65625 137.09375 C 229.289062 136 228.933594 134.898438 228.582031 133.796875 C 228.839844 134.230469 229.101562 134.664062 229.355469 135.101562 C 230.015625 136.230469 230.65625 137.371094 231.289062 138.515625 C 233.363281 143.15625 235.582031 147.738281 237.945312 152.25 C 238.34375 153.011719 239.089844 153.566406 239.914062 153.789062 C 239.851562 153.863281 239.789062 153.9375 239.726562 154.011719 C 239.679688 154.070312 239.636719 154.121094 239.589844 154.179688 Z M 231.480469 161.507812 C 231.40625 161.558594 231.335938 161.609375 231.261719 161.660156 C 231.214844 161.691406 231.144531 161.742188 231.09375 161.777344 C 231.082031 161.785156 231.070312 161.792969 231.054688 161.804688 C 231.070312 161.792969 231.074219 161.792969 231.082031 161.785156 C 231.082031 161.785156 231.074219 161.789062 231.074219 161.792969 C 230.355469 162.261719 229.628906 162.71875 228.886719 163.148438 C 227.523438 163.941406 226.113281 164.660156 224.667969 165.296875 C 224.003906 165.589844 223.332031 165.867188 222.65625 166.125 C 222.355469 166.242188 222.050781 166.351562 221.75 166.460938 C 221.746094 166.464844 221.476562 166.554688 221.355469 166.597656 C 221.210938 166.644531 221.023438 166.707031 220.984375 166.71875 C 219.527344 167.183594 218.042969 167.574219 216.546875 167.886719 C 215.085938 168.195312 213.609375 168.429688 212.128906 168.597656 C 211.726562 168.640625 211.324219 168.679688 210.925781 168.714844 C 210.824219 168.722656 210.726562 168.730469 210.628906 168.738281 C 210.570312 168.742188 210.507812 168.746094 210.46875 168.75 C 210.375 168.753906 210.277344 168.753906 210.179688 168.757812 C 210.433594 168.222656 210.527344 167.621094 210.359375 167.03125 C 210.09375 166.097656 209.828125 165.164062 209.5625 164.230469 C 209.933594 164.910156 210.304688 165.59375 210.675781 166.273438 C 211.410156 167.628906 213.195312 168.402344 214.628906 167.609375 C 216.019531 166.84375 216.710938 165.128906 215.964844 163.65625 C 213.429688 158.648438 211.542969 153.804688 210.140625 148.789062 C 212.730469 153.828125 215.027344 159.011719 217.023438 164.316406 C 217.570312 165.765625 219.679688 166.371094 220.980469 165.652344 C 222.511719 164.804688 222.878906 163.257812 222.316406 161.699219 C 222.039062 160.925781 221.761719 160.15625 221.492188 159.382812 C 221.371094 159.035156 221.25 158.679688 221.128906 158.328125 C 221.097656 158.238281 220.949219 157.800781 220.945312 157.785156 C 220.777344 157.285156 220.621094 156.785156 220.453125 156.285156 C 220.992188 157.246094 221.539062 158.199219 222.109375 159.140625 C 222.878906 160.410156 224.238281 161.101562 225.703125 160.601562 C 226.957031 160.171875 228.109375 158.640625 227.648438 157.246094 C 227.570312 157.003906 227.480469 156.765625 227.398438 156.523438 C 227.398438 156.523438 227.398438 156.523438 227.402344 156.523438 C 227.398438 156.515625 227.394531 156.511719 227.394531 156.507812 C 224.871094 148.992188 221.726562 141.71875 217.945312 134.773438 C 217.496094 133.160156 217.097656 131.535156 216.742188 129.898438 C 217.144531 130.4375 217.539062 130.980469 217.925781 131.53125 C 218.101562 131.78125 218.28125 132.039062 218.457031 132.292969 C 218.808594 132.804688 218.609375 132.523438 218.535156 132.410156 C 218.621094 132.542969 218.707031 132.671875 218.792969 132.800781 C 219.164062 133.363281 219.53125 133.933594 219.886719 134.503906 C 222.800781 139.160156 225.265625 144.085938 227.558594 149.070312 C 228.851562 151.878906 230.085938 154.710938 231.320312 157.542969 C 231.839844 158.71875 233.292969 159.371094 234.546875 159.128906 C 233.886719 159.6875 233.214844 160.230469 232.519531 160.753906 C 232.175781 161.011719 231.828125 161.261719 231.480469 161.507812 Z M 210.707031 168.734375 C 210.753906 168.730469 210.742188 168.730469 210.707031 168.734375 Z M 201.292969 168.402344 C 201.171875 168.386719 201.054688 168.367188 200.9375 168.347656 C 201.308594 167.769531 201.480469 167.0625 201.3125 166.285156 C 201.039062 165.019531 200.761719 163.757812 200.488281 162.496094 C 201.886719 164.570312 203.285156 166.648438 204.683594 168.726562 C 204.277344 168.699219 203.867188 168.683594 203.457031 168.644531 C 202.734375 168.582031 202.011719 168.5 201.292969 168.402344 Z M 193.746094 166.308594 C 193.679688 166.09375 193.617188 165.882812 193.550781 165.667969 C 193.890625 166.070312 194.226562 166.46875 194.566406 166.871094 C 194.308594 166.792969 194.054688 166.707031 193.800781 166.621094 C 193.785156 166.515625 193.777344 166.414062 193.746094 166.308594 Z M 192.3125 152.691406 C 192.542969 153.742188 192.773438 154.796875 193 155.851562 C 192.523438 155.285156 192.046875 154.71875 191.570312 154.152344 C 191.816406 153.664062 192.070312 153.179688 192.3125 152.691406 Z M 197.195312 142.230469 C 198 145.058594 198.800781 147.886719 199.605469 150.714844 C 198.734375 149.421875 197.859375 148.125 196.988281 146.832031 C 196.625 146.292969 196.179688 145.855469 195.671875 145.570312 C 195.777344 145.34375 195.878906 145.113281 195.984375 144.886719 C 196.386719 144 196.792969 143.113281 197.195312 142.230469 Z M 201.457031 133.300781 C 201.457031 133.433594 201.457031 133.566406 201.46875 133.703125 C 201.578125 135.09375 201.726562 136.480469 201.902344 137.863281 C 201.390625 137.152344 200.628906 136.703125 199.796875 136.613281 C 200.011719 136.160156 200.25 135.679688 200.535156 135.105469 C 200.835938 134.5 201.148438 133.902344 201.457031 133.300781 Z M 209.363281 120.914062 C 209.363281 120.929688 209.363281 120.941406 209.363281 120.957031 C 209.472656 122.070312 209.609375 123.175781 209.761719 124.28125 C 209.53125 124.304688 209.300781 124.34375 209.058594 124.425781 C 207.664062 124.902344 206.847656 126.320312 207.113281 127.78125 C 207.484375 129.808594 207.890625 131.828125 208.320312 133.847656 C 207.882812 133.164062 207.453125 132.480469 207.007812 131.808594 C 206.179688 130.566406 204.921875 129.832031 203.414062 130.347656 C 203.242188 130.40625 203.082031 130.480469 202.933594 130.5625 C 203.964844 128.714844 205.058594 126.90625 206.238281 125.152344 C 207.214844 123.695312 208.257812 122.277344 209.363281 120.914062 Z M 233.632812 128.53125 C 233.636719 128.535156 233.640625 128.542969 233.644531 128.546875 C 233.761719 128.71875 233.753906 128.707031 233.632812 128.53125 Z M 217.308594 113.449219 C 217.378906 113.398438 217.429688 113.363281 217.46875 113.332031 C 217.511719 113.304688 217.5625 113.273438 217.632812 113.230469 C 217.796875 113.125 217.964844 113.015625 218.128906 112.910156 C 218.507812 112.671875 218.890625 112.445312 219.277344 112.222656 C 220.023438 111.792969 220.789062 111.386719 221.570312 111.027344 C 222.21875 110.726562 222.882812 110.46875 223.546875 110.210938 C 223.574219 110.199219 223.597656 110.191406 223.621094 110.183594 C 223.808594 110.125 223.992188 110.0625 224.179688 110.003906 C 224.5625 109.890625 224.949219 109.78125 225.332031 109.679688 C 226.808594 109.300781 228.304688 109.070312 229.820312 108.914062 C 229.835938 108.914062 229.855469 108.910156 229.875 108.910156 C 229.847656 108.910156 229.824219 108.914062 229.785156 108.914062 C 229.816406 108.914062 229.847656 108.910156 229.878906 108.910156 C 229.988281 108.902344 230.136719 108.894531 230.066406 108.902344 C 230.171875 108.894531 230.277344 108.886719 230.382812 108.882812 C 230.742188 108.871094 231.101562 108.863281 231.460938 108.863281 C 232.253906 108.863281 233.046875 108.894531 233.839844 108.964844 C 234.476562 109.023438 235.105469 109.113281 235.738281 109.210938 C 235.789062 109.222656 236.210938 109.296875 236.359375 109.332031 C 236.777344 109.425781 237.195312 109.527344 237.605469 109.644531 C 238.277344 109.832031 238.941406 110.050781 239.589844 110.300781 C 239.914062 110.421875 240.234375 110.554688 240.550781 110.691406 C 240.59375 110.714844 240.640625 110.734375 240.6875 110.753906 C 240.726562 110.773438 241.007812 110.914062 241.101562 110.960938 C 241.742188 111.292969 242.367188 111.664062 242.964844 112.066406 C 243.25 112.257812 243.527344 112.457031 243.800781 112.660156 C 243.921875 112.753906 244.042969 112.847656 244.164062 112.941406 C 244.230469 112.996094 244.296875 113.042969 244.351562 113.082031 C 244.773438 113.382812 245.160156 113.820312 245.511719 114.222656 C 245.363281 114.246094 245.222656 114.28125 245.085938 114.328125 C 243.675781 114.808594 242.894531 116.21875 243.140625 117.679688 C 243.308594 118.707031 243.484375 119.730469 243.65625 120.757812 C 241.601562 118.523438 239.550781 116.289062 237.5 114.050781 C 236.65625 113.132812 235.128906 112.742188 233.988281 113.371094 C 232.925781 113.957031 232.007812 115.335938 232.40625 116.601562 C 232.558594 117.089844 232.714844 117.582031 232.867188 118.070312 C 231.117188 116.128906 229.246094 114.285156 227.25 112.570312 C 226.285156 111.742188 224.972656 111.210938 223.738281 111.890625 C 222.777344 112.421875 221.902344 113.648438 222.09375 114.820312 C 220.167969 114.160156 217.660156 115.980469 218.1875 118.234375 C 218.640625 120.175781 219.128906 122.113281 219.636719 124.042969 C 218.03125 122.058594 216.308594 120.171875 214.457031 118.410156 C 213.933594 117.910156 213.246094 117.550781 212.53125 117.453125 C 212.714844 117.273438 212.894531 117.089844 213.082031 116.917969 C 214.410156 115.660156 215.828125 114.519531 217.308594 113.449219 Z M 244.90625 106.328125 C 239.023438 103 231.898438 102.238281 225.332031 103.621094 C 217.871094 105.195312 211.359375 109.753906 206.363281 115.394531 C 200.847656 121.628906 196.933594 128.878906 193.429688 136.378906 C 191.777344 139.914062 190.207031 143.488281 188.546875 147.019531 C 188.570312 146.96875 188.378906 147.375 188.308594 147.515625 C 188.226562 147.6875 188.078125 148 188.101562 147.953125 C 187.882812 148.402344 187.664062 148.851562 187.445312 149.300781 C 187.332031 149.53125 187.214844 149.753906 187.101562 149.980469 C 186.492188 149.882812 185.859375 149.949219 185.339844 150.238281 C 184.265625 150.832031 183.371094 152.195312 183.753906 153.46875 C 183.933594 154.0625 184.109375 154.65625 184.289062 155.25 C 183.945312 155.847656 183.601562 156.449219 183.242188 157.042969 C 182.234375 158.699219 181.15625 160.316406 180.007812 161.878906 C 179.09375 163.125 179.566406 165.191406 180.886719 165.960938 C 181.464844 166.300781 182.074219 166.433594 182.664062 166.394531 C 182.679688 167.339844 183.089844 168.273438 183.976562 168.753906 C 195.621094 175.097656 209.867188 176.535156 222.5 172.394531 C 236.058594 167.945312 246.867188 157.609375 252.339844 144.46875 C 257.523438 132.027344 258.316406 113.914062 244.90625 106.328125 " fill-opacity="1" fill-rule="nonzero"/></g></g></g></g><g clip-path="url(#ff8a2cc92a)"><g clip-path="url(#2f16d269b7)"><g clip-path="url(#9007549433)"><path fill="#89d0d3" d="M 229.878906 108.910156 C 229.878906 108.910156 229.878906 108.910156 229.875 108.910156 C 229.976562 108.90625 230.039062 108.902344 230.066406 108.902344 C 230.003906 108.902344 229.941406 108.90625 229.878906 108.910156 " fill-opacity="1" fill-rule="nonzero"/></g></g></g><g clip-path="url(#3c579c934d)"><g clip-path="url(#3bf842f502)"><g clip-path="url(#b7ac6fe419)"><path fill="#89d0d3" d="M 231.082031 161.785156 C 231.089844 161.78125 231.089844 161.777344 231.09375 161.777344 C 231.152344 161.738281 231.207031 161.699219 231.261719 161.660156 C 231.332031 161.609375 231.335938 161.605469 231.082031 161.785156 " fill-opacity="1" fill-rule="nonzero"/></g></g></g><g clip-path="url(#1d234d834a)"><g clip-path="url(#c496b24428)"><g clip-path="url(#bd83bbf2d0)"><path fill="#a6b9d9" d="M 182.996094 214.199219 C 183.007812 214.230469 183.035156 214.308594 183.058594 214.371094 C 183.132812 214.601562 183.210938 214.832031 183.285156 215.066406 C 183.417969 215.460938 183.546875 215.859375 183.671875 216.257812 C 183.96875 217.191406 184.253906 218.125 184.523438 219.0625 C 185.066406 220.941406 185.5625 222.832031 186.007812 224.734375 C 186.207031 225.605469 186.398438 226.476562 186.582031 227.351562 C 184.507812 225.832031 182.433594 224.3125 180.359375 222.796875 C 180.421875 222.820312 180.480469 222.839844 180.539062 222.863281 C 181.917969 223.382812 183.496094 222.574219 184.09375 221.3125 C 184.773438 219.882812 184.203125 218.535156 183.050781 217.574219 C 181.371094 216.175781 179.6875 214.769531 178.003906 213.367188 C 178.808594 213.226562 179.5625 212.777344 179.972656 212.078125 C 180.660156 210.902344 180.535156 209.570312 179.695312 208.511719 C 178.675781 207.21875 177.65625 205.929688 176.632812 204.640625 C 177.425781 204.320312 178.074219 203.675781 178.371094 202.875 C 178.464844 203.070312 178.566406 203.265625 178.65625 203.464844 C 180.285156 206.964844 181.726562 210.550781 182.996094 214.199219 Z M 183.082031 214.449219 C 183.09375 214.480469 183.09375 214.484375 183.082031 214.449219 Z M 188.164062 237.140625 C 188.003906 236.972656 187.824219 236.816406 187.613281 236.695312 C 183.058594 234.113281 178.625 231.320312 174.324219 228.34375 C 175.703125 228.898438 177.078125 229.472656 178.433594 230.085938 C 178.945312 230.320312 179.453125 230.554688 179.960938 230.792969 C 180.042969 230.832031 180.210938 230.914062 180.285156 230.949219 C 180.550781 231.078125 180.816406 231.207031 181.082031 231.339844 C 182.183594 231.882812 183.277344 232.449219 184.363281 233.03125 C 185.371094 233.570312 186.664062 233.625 187.613281 233.019531 C 187.765625 234.011719 187.910156 235.003906 188.035156 235.996094 C 188.082031 236.375 188.121094 236.761719 188.164062 237.140625 Z M 188.667969 242.585938 C 188.691406 242.984375 188.714844 243.382812 188.730469 243.785156 C 188.777344 244.761719 188.808594 245.742188 188.816406 246.71875 C 188.835938 248.59375 188.789062 250.46875 188.644531 252.335938 C 188.578125 253.175781 188.492188 254.015625 188.386719 254.851562 C 188.332031 255.292969 188.269531 255.730469 188.203125 256.167969 C 188.167969 256.386719 188.132812 256.605469 188.097656 256.824219 C 188.089844 256.855469 188.019531 257.222656 188.003906 257.308594 C 187.640625 259.054688 187.199219 260.777344 186.605469 262.460938 C 186.3125 263.289062 185.988281 264.101562 185.632812 264.902344 C 185.59375 264.996094 185.546875 265.085938 185.507812 265.175781 C 185.503906 265.183594 185.5 265.191406 185.492188 265.207031 C 185.347656 264.128906 184.59375 263.289062 183.5 262.773438 C 183.429688 262.738281 183.359375 262.707031 183.289062 262.671875 C 183.953125 262.339844 184.488281 261.777344 184.699219 261.011719 C 185.039062 259.777344 184.652344 258.625 183.773438 257.871094 C 184.910156 257.894531 185.996094 257.253906 186.5 256.195312 C 187.09375 254.941406 186.746094 253.179688 185.457031 252.460938 C 183.472656 251.351562 181.492188 250.238281 179.507812 249.132812 C 181.246094 249.628906 182.984375 250.125 184.722656 250.625 C 186.140625 251.03125 187.632812 250.417969 188.273438 249.070312 C 188.839844 247.878906 188.5625 245.972656 187.230469 245.335938 C 182.878906 243.253906 178.613281 241 174.4375 238.589844 C 177.992188 239.71875 181.546875 240.851562 185.101562 241.984375 C 186.417969 242.402344 187.832031 241.820312 188.519531 240.660156 C 188.550781 241.003906 188.582031 241.34375 188.613281 241.6875 C 188.613281 241.71875 188.617188 241.746094 188.617188 241.765625 C 188.621094 241.804688 188.625 241.855469 188.625 241.910156 C 188.640625 242.136719 188.65625 242.363281 188.667969 242.585938 Z M 182.734375 269.679688 C 182.617188 269.832031 182.496094 269.984375 182.375 270.132812 C 182.320312 270.203125 182.121094 270.429688 182.035156 270.523438 C 181.875 270.695312 181.71875 270.863281 181.554688 271.03125 C 181.769531 270.003906 181.460938 268.84375 180.628906 268.171875 C 180.980469 268.242188 181.328125 268.320312 181.679688 268.386719 C 182.371094 268.519531 183.113281 268.480469 183.757812 268.238281 C 183.648438 268.410156 183.539062 268.582031 183.421875 268.746094 C 183.199219 269.0625 182.972656 269.375 182.734375 269.679688 Z M 177.925781 274.207031 C 177.898438 274.230469 177.875 274.246094 177.851562 274.265625 C 177.839844 274.269531 177.832031 274.277344 177.820312 274.285156 C 177.691406 274.367188 177.5625 274.449219 177.433594 274.53125 C 176.722656 274.980469 175.988281 275.386719 175.230469 275.753906 C 175.058594 275.835938 174.882812 275.90625 174.710938 275.984375 C 172.441406 274.269531 170.167969 272.558594 167.898438 270.84375 C 171.199219 271.640625 174.496094 272.4375 177.796875 273.230469 C 178.242188 273.339844 178.6875 273.355469 179.113281 273.296875 C 178.992188 273.394531 178.882812 273.492188 178.761719 273.585938 C 178.488281 273.800781 178.203125 274 177.925781 274.207031 Z M 150.71875 255.765625 C 150.703125 255.578125 150.6875 255.390625 150.671875 255.203125 C 150.667969 255.128906 150.664062 255.035156 150.660156 255 C 150.640625 254.539062 150.613281 254.074219 150.601562 253.613281 C 150.566406 252.597656 150.5625 251.578125 150.582031 250.558594 C 150.648438 246.785156 151 243.011719 151.539062 239.277344 C 151.667969 238.367188 151.8125 237.460938 151.96875 236.558594 C 152.039062 236.148438 152.109375 235.738281 152.183594 235.328125 C 152.207031 235.226562 152.238281 235.058594 152.246094 235 C 152.308594 234.683594 152.371094 234.371094 152.433594 234.054688 C 152.605469 233.210938 152.785156 232.371094 152.976562 231.53125 C 153.046875 231.59375 153.113281 231.660156 153.191406 231.71875 C 156.179688 233.933594 159.238281 236.050781 162.351562 238.085938 C 160.515625 237.558594 158.675781 237.03125 156.839844 236.507812 C 155.417969 236.101562 153.925781 236.710938 153.285156 238.058594 C 152.691406 239.3125 153.039062 241.074219 154.328125 241.796875 C 155.089844 242.222656 155.851562 242.648438 156.613281 243.074219 C 155.992188 242.871094 155.371094 242.671875 154.753906 242.472656 C 153.347656 242.023438 151.824219 242.710938 151.199219 244.027344 C 150.566406 245.359375 151.011719 246.925781 152.242188 247.761719 C 153.179688 248.398438 154.128906 249.015625 155.078125 249.628906 C 153.777344 249.578125 152.441406 250.296875 152.074219 251.628906 C 151.792969 252.648438 152 253.527344 152.527344 254.21875 C 152.027344 254.535156 151.613281 254.976562 151.378906 255.46875 C 150.789062 256.71875 151.128906 258.488281 152.421875 259.203125 C 154.390625 260.296875 156.359375 261.390625 158.324219 262.480469 C 157.457031 262.273438 156.59375 262.0625 155.726562 261.851562 C 154.285156 261.507812 152.832031 262.015625 152.171875 263.40625 C 152.167969 263.410156 152.167969 263.417969 152.164062 263.421875 C 151.953125 262.734375 151.765625 262.042969 151.601562 261.347656 C 151.167969 259.511719 150.886719 257.644531 150.71875 255.765625 Z M 164.417969 198.695312 C 165.984375 200.675781 167.550781 202.65625 169.117188 204.636719 C 168.085938 204.300781 167.054688 203.960938 166.023438 203.625 C 164.621094 203.167969 163.089844 203.867188 162.46875 205.179688 C 161.792969 206.605469 162.359375 207.953125 163.511719 208.914062 C 164.402344 209.65625 165.292969 210.398438 166.183594 211.140625 C 164.816406 210.625 163.453125 210.109375 162.085938 209.59375 C 161.296875 209.296875 160.449219 209.445312 159.75 209.855469 C 160.113281 208.914062 160.484375 207.976562 160.863281 207.039062 C 161.996094 204.238281 163.195312 201.460938 164.417969 198.695312 Z M 168.5 194.078125 C 168.230469 193.914062 167.960938 193.746094 167.691406 193.578125 C 167.433594 193.421875 167.160156 193.316406 166.882812 193.242188 C 167.078125 192.8125 167.273438 192.386719 167.46875 191.960938 C 167.8125 192.667969 168.15625 193.375 168.5 194.078125 Z M 160.132812 217.667969 C 158.691406 217.328125 157.246094 217.820312 156.582031 219.21875 C 155.898438 220.65625 156.480469 221.984375 157.625 222.953125 C 160.417969 225.324219 163.289062 227.59375 166.226562 229.78125 C 162.71875 228.664062 159.210938 227.546875 155.703125 226.429688 C 155.222656 226.277344 154.730469 226.265625 154.261719 226.355469 C 155.449219 221.964844 156.859375 217.636719 158.425781 213.367188 C 158.636719 213.949219 159.027344 214.480469 159.574219 214.882812 C 161.445312 216.25 163.316406 217.617188 165.183594 218.988281 C 163.511719 218.511719 161.832031 218.0625 160.132812 217.667969 Z M 171.5625 177.394531 C 170.324219 176.671875 168.199219 176.785156 167.484375 178.273438 C 160.546875 192.722656 153.546875 207.28125 149.140625 222.742188 C 146.945312 230.4375 145.394531 238.359375 144.859375 246.347656 C 144.316406 254.421875 144.785156 263.054688 148.671875 270.335938 C 152.375 277.273438 159.144531 282.875 167.234375 283.304688 C 174.328125 283.679688 181.328125 280.117188 185.996094 274.90625 C 191.25 269.035156 193.6875 261.480469 194.441406 253.734375 C 195.214844 245.820312 194.429688 237.664062 193.070312 229.855469 C 190.320312 214.035156 184.210938 198.75 175.234375 185.429688 C 174.332031 184.085938 173.402344 182.769531 172.449219 181.460938 C 173.105469 180.078125 173.054688 178.265625 171.5625 177.394531 " fill-opacity="1" fill-rule="nonzero"/></g></g></g><g clip-path="url(#c3c62af1c3)"><g clip-path="url(#82a766e461)"><g clip-path="url(#83a1390703)"><g clip-path="url(#2225296ba4)"><path fill="#a6b9d9" d="M 267.667969 208.71875 C 266.878906 208.882812 266.082031 208.980469 265.277344 209.058594 C 265.265625 209.058594 265.265625 209.058594 265.253906 209.058594 C 265.214844 209.058594 265.1875 209.058594 265.128906 209.0625 C 264.953125 209.0625 264.78125 209.074219 264.609375 209.078125 C 264.257812 209.085938 263.910156 209.089844 263.5625 209.085938 C 262.683594 209.070312 261.808594 209.019531 260.933594 208.9375 C 260.238281 208.871094 259.542969 208.785156 258.847656 208.683594 C 258.421875 208.621094 257.996094 208.546875 257.566406 208.476562 C 257.539062 208.472656 257.484375 208.460938 257.429688 208.449219 C 257.207031 208.40625 256.984375 208.363281 256.761719 208.316406 C 253.515625 207.65625 250.304688 206.839844 247.140625 205.871094 C 243.972656 204.902344 240.855469 203.78125 237.796875 202.515625 C 236.265625 201.882812 234.753906 201.210938 233.253906 200.511719 C 233.210938 200.492188 233.171875 200.472656 233.136719 200.460938 C 233.121094 200.449219 233.101562 200.4375 233.074219 200.425781 C 232.90625 200.34375 232.742188 200.265625 232.574219 200.1875 C 232.203125 200.003906 231.832031 199.820312 231.464844 199.636719 C 230.722656 199.265625 229.988281 198.886719 229.253906 198.5 C 223.324219 195.355469 217.6875 191.652344 212.445312 187.453125 C 212.359375 187.382812 212.269531 187.3125 212.183594 187.238281 C 212.277344 187.191406 212.375 187.144531 212.46875 187.082031 C 212.644531 186.964844 212.800781 186.820312 212.949219 186.664062 C 213.679688 187.421875 214.410156 188.175781 215.144531 188.933594 C 216.167969 189.996094 217.746094 190.230469 218.980469 189.394531 C 219.371094 189.128906 219.65625 188.804688 219.863281 188.449219 C 221.214844 190.171875 222.566406 191.898438 223.914062 193.621094 C 224.820312 194.777344 226.617188 194.851562 227.753906 194.082031 C 228.160156 193.808594 228.457031 193.460938 228.667969 193.078125 C 229.199219 193.878906 229.734375 194.679688 230.269531 195.480469 C 231.125 196.757812 232.707031 197.65625 234.226562 196.816406 C 234.671875 196.570312 235.054688 196.195312 235.347656 195.761719 C 235.601562 196.191406 235.859375 196.625 236.109375 197.058594 C 236.742188 198.300781 237.429688 199.515625 238.183594 200.691406 C 239.011719 201.988281 240.636719 202.859375 242.136719 202.03125 C 243.183594 201.453125 243.886719 200.253906 243.773438 199.066406 C 243.859375 199.207031 243.941406 199.347656 244.027344 199.484375 C 244.800781 200.753906 246.152344 201.445312 247.617188 200.945312 C 248.984375 200.480469 249.875 199.039062 249.566406 197.589844 C 249.421875 196.921875 249.28125 196.253906 249.136719 195.585938 C 250.859375 198.496094 252.578125 201.40625 254.296875 204.316406 C 255.082031 205.640625 256.785156 206.464844 258.253906 205.652344 C 259.039062 205.21875 259.511719 204.601562 259.714844 203.894531 C 260.136719 204.621094 260.5625 205.34375 260.980469 206.070312 C 261.730469 207.351562 263.128906 208.023438 264.574219 207.53125 C 265.695312 207.148438 266.652344 205.960938 266.609375 204.730469 C 266.960938 205.375 267.316406 206.019531 267.671875 206.664062 C 268.09375 207.433594 268.777344 207.964844 269.5625 208.175781 C 269.441406 208.226562 269.328125 208.277344 269.210938 208.328125 C 269.203125 208.328125 269.203125 208.328125 269.195312 208.332031 C 269.171875 208.339844 269.148438 208.34375 269.117188 208.351562 C 268.957031 208.394531 268.800781 208.445312 268.640625 208.488281 C 268.320312 208.574219 267.996094 208.652344 267.667969 208.71875 Z M 257.402344 208.445312 C 257.296875 208.425781 257.226562 208.410156 257.402344 208.445312 Z M 222.164062 172.808594 C 222.109375 172.722656 222.050781 172.636719 221.996094 172.550781 C 222.117188 172.546875 222.242188 172.546875 222.367188 172.542969 C 222.292969 172.628906 222.226562 172.714844 222.164062 172.808594 Z M 209.363281 174.46875 C 208.9375 174.027344 208.511719 173.585938 208.089844 173.148438 C 208.527344 173.128906 208.964844 173.109375 209.402344 173.09375 C 209.289062 173.53125 209.28125 173.996094 209.363281 174.46875 Z M 240.054688 173.113281 C 240.871094 173.214844 241.6875 173.328125 242.496094 173.460938 C 242.859375 173.515625 243.222656 173.574219 243.582031 173.640625 C 243.703125 173.660156 243.824219 173.683594 243.945312 173.703125 C 243.992188 173.714844 244.390625 173.789062 244.464844 173.804688 C 247.746094 174.460938 250.980469 175.355469 254.109375 176.535156 C 254.511719 176.6875 254.910156 176.859375 255.308594 177.019531 C 254.03125 177.464844 252.960938 178.960938 253.375 180.367188 C 253.5625 180.996094 253.746094 181.621094 253.929688 182.246094 C 252.878906 180.445312 251.832031 178.640625 250.78125 176.835938 C 250.007812 175.503906 248.285156 174.695312 246.824219 175.5 C 245.941406 175.988281 245.457031 176.710938 245.304688 177.53125 C 245.25 177.433594 245.191406 177.335938 245.136719 177.242188 C 244.378906 175.960938 242.996094 175.28125 241.542969 175.777344 C 240.179688 176.246094 239.289062 177.6875 239.597656 179.132812 C 239.785156 180.03125 239.976562 180.925781 240.167969 181.820312 C 239.089844 180.046875 238.015625 178.277344 236.9375 176.503906 C 236.273438 175.414062 235.039062 174.589844 233.707031 174.921875 C 232.496094 175.21875 231.320312 176.3125 231.34375 177.648438 C 231.351562 177.992188 231.367188 178.335938 231.382812 178.679688 C 229.929688 176.582031 228.441406 174.511719 226.925781 172.460938 C 229.640625 172.445312 232.351562 172.496094 235.066406 172.664062 C 236.734375 172.761719 238.398438 172.90625 240.054688 173.113281 Z M 266.164062 183.449219 C 266.21875 183.496094 266.636719 183.855469 266.71875 183.925781 C 266.835938 184.03125 266.945312 184.140625 267.0625 184.246094 C 266.601562 184.242188 266.148438 184.335938 265.765625 184.546875 C 264.597656 185.191406 263.941406 186.445312 264.179688 187.777344 C 264.203125 187.917969 264.230469 188.054688 264.253906 188.191406 C 262.527344 185.050781 260.800781 181.90625 259.074219 178.761719 C 260.191406 179.351562 261.289062 179.972656 262.351562 180.65625 C 263.679688 181.511719 264.945312 182.445312 266.164062 183.449219 Z M 273.253906 205.238281 C 273.3125 205.296875 273.378906 205.347656 273.441406 205.402344 C 273.371094 205.5 273.300781 205.597656 273.226562 205.691406 C 273.246094 205.542969 273.253906 205.390625 273.253906 205.238281 Z M 242.019531 167.441406 C 227.558594 165.316406 212.910156 167.589844 198.390625 167.464844 C 196.585938 167.449219 194.78125 167.394531 192.980469 167.300781 C 191.4375 167.214844 189.886719 168.480469 189.863281 170.078125 C 189.855469 170.730469 190.050781 171.347656 190.386719 171.863281 C 190.34375 172.605469 190.585938 173.363281 191.097656 174.027344 C 199.664062 185.15625 210.519531 194.570312 222.671875 201.589844 C 228.78125 205.113281 235.242188 208.082031 241.910156 210.375 C 245.214844 211.515625 248.574219 212.488281 251.976562 213.285156 C 255.367188 214.078125 258.820312 214.796875 262.308594 214.949219 C 265.808594 215.105469 269.390625 214.722656 272.621094 213.300781 C 275.90625 211.847656 278.457031 209.207031 279.890625 205.9375 C 282.378906 200.261719 280.78125 193.253906 277.753906 188.109375 C 270.335938 175.527344 255.898438 169.480469 242.019531 167.441406 " fill-opacity="1" fill-rule="nonzero"/></g></g></g></g><g clip-path="url(#73992d7acb)"><g clip-path="url(#d4f7b66e97)"><g clip-path="url(#6b25e922d5)"><path fill="#ed853e" d="M 153.992188 156.789062 C 153.992188 156.792969 153.996094 156.792969 153.996094 156.796875 C 154.015625 156.828125 154.03125 156.863281 154.050781 156.902344 C 154.035156 156.855469 153.988281 156.75 153.960938 156.71875 C 153.972656 156.742188 153.980469 156.765625 153.992188 156.789062 " fill-opacity="1" fill-rule="nonzero"/></g></g></g><g clip-path="url(#e2f785f84d)"><g clip-path="url(#e6cc37553d)"><g clip-path="url(#23b93d7ede)"><path fill="#ed853e" d="M 167.800781 154.429688 C 167.867188 154.398438 167.949219 154.351562 168.015625 154.328125 C 168.023438 154.324219 168.027344 154.320312 168.035156 154.316406 C 167.910156 154.3125 167.804688 154.398438 167.800781 154.429688 " fill-opacity="1" fill-rule="nonzero"/></g></g></g><g clip-path="url(#cd8d8f8a1b)"><g clip-path="url(#7f8cdb0563)"><g clip-path="url(#912466e85f)"><path fill="#ed853e" d="M 165.179688 154.042969 C 165.195312 154.054688 165.210938 154.070312 165.226562 154.082031 C 165.277344 154.113281 165.332031 154.15625 165.367188 154.171875 C 165.371094 154.175781 165.378906 154.179688 165.382812 154.183594 C 165.414062 154.175781 165.332031 154.082031 165.179688 154.042969 " fill-opacity="1" fill-rule="nonzero"/></g></g></g><g clip-path="url(#c05fb78be7)"><g clip-path="url(#b3fc48c7ba)"><g clip-path="url(#11fcbc91f7)"><path fill="#ed853e" d="M 169.632812 150.121094 C 169.617188 150.042969 169.613281 149.972656 169.625 149.9375 C 169.625 149.933594 169.625 149.933594 169.625 149.933594 C 169.601562 149.984375 169.609375 150.0625 169.632812 150.121094 " fill-opacity="1" fill-rule="nonzero"/></g></g></g><g clip-path="url(#9d725b8b81)"><g clip-path="url(#2b19c5bcad)"><g clip-path="url(#a28126aafe)"><path fill="#ed853e" d="M 165.945312 147.707031 C 165.941406 147.707031 165.9375 147.707031 165.933594 147.710938 C 165.921875 147.710938 165.777344 147.746094 165.695312 147.753906 C 165.683594 147.757812 165.675781 147.757812 165.667969 147.761719 C 165.78125 147.792969 165.933594 147.734375 165.945312 147.707031 " fill-opacity="1" fill-rule="nonzero"/></g></g></g><g clip-path="url(#fc43d74d3c)"><g clip-path="url(#34a3800039)"><g clip-path="url(#eb5a89009d)"><path fill="#ed853e" d="M 164.355469 153.277344 C 164.414062 153.339844 164.464844 153.402344 164.5 153.46875 C 164.503906 153.472656 164.507812 153.476562 164.511719 153.476562 C 164.449219 153.308594 164.367188 153.25 164.355469 153.277344 " fill-opacity="1" fill-rule="nonzero"/></g></g></g><g clip-path="url(#4df904953e)"><g clip-path="url(#1e5b832e6d)"><g clip-path="url(#669c6e6bf6)"><path fill="#ed853e" d="M 168.460938 148.148438 C 168.4375 148.136719 168.417969 148.125 168.394531 148.113281 C 168.433594 148.144531 168.496094 148.1875 168.535156 148.207031 C 168.503906 148.183594 168.480469 148.164062 168.460938 148.148438 " fill-opacity="1" fill-rule="nonzero"/></g></g></g><g clip-path="url(#b8f6cc147d)"><g clip-path="url(#db321e81e1)"><g clip-path="url(#8bda1df017)"><path fill="#ed853e" d="M 167.277344 154.566406 C 167.347656 154.550781 167.410156 154.546875 167.46875 154.550781 C 167.476562 154.546875 167.480469 154.542969 167.488281 154.542969 C 167.394531 154.527344 167.320312 154.542969 167.277344 154.566406 " fill-opacity="1" fill-rule="nonzero"/></g></g></g><g clip-path="url(#d9cb295bef)"><g clip-path="url(#e78d4c951c)"><g clip-path="url(#0d174cebfb)"><path fill="#ed853e" d="M 217.285156 222.261719 C 217.292969 222.300781 217.300781 222.332031 217.308594 222.359375 C 217.3125 222.394531 217.320312 222.445312 217.335938 222.527344 C 217.382812 222.792969 217.425781 223.058594 217.460938 223.328125 C 217.53125 223.824219 217.574219 224.328125 217.59375 224.828125 C 217.605469 225.089844 217.605469 225.351562 217.601562 225.613281 C 217.601562 225.660156 217.601562 225.714844 217.601562 225.765625 C 217.597656 225.792969 217.59375 225.820312 217.585938 225.859375 C 217.523438 226.332031 217.445312 226.789062 217.332031 227.25 C 217.324219 227.285156 217.320312 227.320312 217.316406 227.347656 C 217.289062 227.421875 217.25 227.5 217.238281 227.53125 C 217.15625 227.730469 217.0625 227.925781 216.960938 228.113281 C 216.945312 228.140625 216.917969 228.203125 216.886719 228.265625 C 216.875 228.277344 216.871094 228.285156 216.859375 228.300781 C 216.6875 228.515625 216.507812 228.722656 216.328125 228.929688 C 216.316406 228.945312 216.300781 228.964844 216.285156 228.984375 C 216.222656 229.035156 216.152344 229.085938 216.101562 229.121094 C 215.890625 229.28125 215.667969 229.410156 215.445312 229.546875 C 215.886719 229.277344 215.289062 229.601562 215.121094 229.660156 C 215 229.707031 214.875 229.746094 214.75 229.78125 C 214.671875 229.804688 214.390625 229.84375 214.382812 229.847656 C 213.941406 229.890625 213.507812 229.925781 213.058594 229.925781 C 213.046875 229.925781 213.035156 229.925781 213.027344 229.925781 C 212.894531 229.90625 212.761719 229.894531 212.628906 229.871094 C 212.296875 229.820312 211.96875 229.75 211.640625 229.664062 C 211.539062 229.636719 211.4375 229.605469 211.335938 229.574219 C 211.3125 229.5625 211.289062 229.554688 211.257812 229.539062 C 211.003906 229.433594 210.753906 229.332031 210.507812 229.210938 C 210.246094 229.082031 209.992188 228.941406 209.742188 228.792969 C 209.65625 228.742188 209.570312 228.691406 209.488281 228.640625 C 209.4375 228.601562 209.167969 228.414062 209.152344 228.40625 C 208.148438 227.671875 207.242188 226.8125 206.386719 225.914062 C 206.207031 225.726562 206.03125 225.535156 205.855469 225.34375 C 205.820312 225.300781 205.527344 224.976562 205.457031 224.898438 C 204.988281 224.359375 204.519531 223.816406 204.054688 223.273438 C 203.195312 222.265625 202.347656 221.246094 201.507812 220.21875 C 201.605469 220.027344 201.671875 219.820312 201.699219 219.59375 C 201.71875 219.40625 201.734375 219.21875 201.746094 219.035156 C 202.101562 219.222656 202.460938 219.402344 202.828125 219.5625 C 204.71875 220.394531 206.660156 218.644531 206.0625 216.683594 C 206.054688 216.652344 206.046875 216.625 206.035156 216.597656 C 206.097656 216.648438 206.15625 216.703125 206.214844 216.757812 C 206.914062 217.382812 207.980469 217.457031 208.789062 217.046875 C 209.671875 216.601562 210.046875 215.777344 210.078125 214.820312 C 210.125 213.34375 210.171875 211.867188 210.21875 210.390625 C 210.382812 210.617188 210.546875 210.84375 210.710938 211.070312 C 211.382812 212 212.75 212.378906 213.765625 211.792969 C 214.257812 213.03125 214.730469 214.277344 215.183594 215.53125 C 215.976562 217.734375 216.78125 219.972656 217.285156 222.261719 Z M 216.800781 228.394531 C 216.800781 228.394531 216.820312 228.371094 216.84375 228.339844 C 216.828125 228.367188 216.8125 228.390625 216.800781 228.394531 Z M 213.078125 229.929688 C 213.367188 229.929688 213.199219 229.933594 213.078125 229.929688 Z M 188.277344 201.726562 C 188.613281 201.671875 188.929688 201.554688 189.1875 201.359375 C 190.046875 200.707031 190.363281 199.691406 190.070312 198.65625 C 189.667969 197.226562 189.261719 195.800781 188.855469 194.371094 C 189.117188 194.773438 189.371094 195.183594 189.609375 195.597656 C 189.738281 195.824219 189.867188 196.050781 189.988281 196.28125 C 190.035156 196.367188 190.078125 196.449219 190.121094 196.53125 C 190.128906 196.554688 190.15625 196.609375 190.210938 196.714844 C 190.742188 197.816406 191.921875 198.667969 193.195312 198.160156 C 194.371094 197.691406 195.074219 196.414062 194.636719 195.175781 C 194.289062 194.183594 193.9375 193.1875 193.589844 192.199219 C 194.128906 192.339844 194.71875 192.292969 195.25 192.023438 C 196.300781 191.492188 196.765625 190.304688 196.414062 189.183594 C 196.105469 188.203125 195.800781 187.222656 195.492188 186.242188 C 196.207031 186.394531 196.945312 186.472656 197.699219 186.449219 C 198.203125 186.429688 198.675781 186.207031 199.058594 185.875 C 199.703125 186.726562 200.335938 187.582031 200.957031 188.445312 C 203.878906 192.535156 206.53125 196.816406 208.890625 201.253906 C 208.390625 201.066406 207.839844 201.03125 207.335938 201.234375 C 206.308594 201.644531 205.800781 202.519531 205.769531 203.601562 C 205.699219 205.695312 205.632812 207.789062 205.566406 209.882812 C 204.671875 209.085938 203.777344 208.285156 202.882812 207.484375 C 202.144531 206.820312 200.839844 206.726562 200.03125 207.335938 C 199.316406 207.875 198.96875 208.691406 199.054688 209.542969 C 198.597656 208.925781 198.09375 208.335938 197.53125 207.78125 C 196.027344 206.300781 193.339844 207.9375 193.660156 209.859375 C 192.121094 207.671875 190.628906 205.445312 189.1875 203.191406 C 188.878906 202.707031 188.582031 202.214844 188.277344 201.726562 Z M 163.207031 138.371094 C 163.304688 138.347656 163.414062 138.316406 163.519531 138.292969 C 163.550781 138.289062 163.589844 138.28125 163.640625 138.273438 C 164.664062 138.089844 165.6875 138.046875 166.722656 138.058594 C 166.675781 138.066406 167.195312 138.09375 167.3125 138.105469 C 167.582031 138.140625 167.851562 138.179688 168.121094 138.226562 C 168.6875 138.324219 169.246094 138.460938 169.792969 138.625 C 169.808594 138.628906 169.832031 138.636719 169.855469 138.640625 C 169.9375 138.671875 170.160156 138.746094 170.167969 138.746094 C 170.394531 138.832031 170.621094 138.921875 170.84375 139.015625 C 171.398438 139.25 171.941406 139.515625 172.46875 139.808594 C 172.679688 139.929688 172.886719 140.058594 173.09375 140.179688 C 173.117188 140.191406 173.125 140.195312 173.140625 140.203125 C 173.234375 140.269531 173.332031 140.335938 173.425781 140.402344 C 173.898438 140.730469 174.351562 141.085938 174.789062 141.460938 C 175.203125 141.820312 175.597656 142.195312 175.976562 142.589844 C 176.007812 142.617188 176.035156 142.648438 176.0625 142.679688 C 176.09375 142.714844 176.199219 142.828125 176.242188 142.878906 C 176.441406 143.109375 176.632812 143.347656 176.816406 143.585938 C 177.152344 144.019531 177.464844 144.46875 177.753906 144.929688 C 177.898438 145.160156 178.039062 145.394531 178.171875 145.632812 C 178.230469 145.738281 178.289062 145.84375 178.347656 145.949219 C 178.355469 145.96875 178.363281 145.980469 178.371094 145.992188 C 178.378906 146.007812 178.382812 146.019531 178.390625 146.035156 C 178.863281 147.054688 179.253906 148.101562 179.511719 149.195312 C 179.515625 149.210938 179.519531 149.238281 179.527344 149.269531 C 179.546875 149.371094 179.582031 149.542969 179.585938 149.558594 C 179.625 149.800781 179.660156 150.042969 179.6875 150.285156 C 179.757812 150.898438 179.792969 151.515625 179.789062 152.128906 C 179.789062 152.308594 179.78125 152.488281 179.773438 152.667969 C 179.769531 152.605469 179.734375 153.175781 179.726562 153.269531 C 179.65625 153.847656 179.5625 154.421875 179.433594 154.992188 C 179.328125 155.472656 179.195312 155.945312 179.046875 156.417969 C 179.035156 156.433594 178.878906 156.886719 178.839844 156.980469 C 178.730469 157.269531 178.609375 157.554688 178.480469 157.832031 C 178.46875 157.867188 178.449219 157.898438 178.433594 157.929688 C 178.519531 157.691406 178.605469 157.453125 178.679688 157.207031 C 179.5 154.464844 179.335938 151.292969 178.28125 148.632812 C 177.199219 145.910156 175.136719 143.417969 172.355469 142.332031 C 171.292969 141.921875 170.167969 141.675781 169.035156 141.59375 C 166.816406 141.0625 164.417969 141.21875 162.289062 142.175781 C 159.644531 143.363281 157.765625 145.445312 156.914062 148.222656 C 156.195312 150.570312 156.40625 153.289062 157.367188 155.539062 C 158.398438 157.957031 160.167969 160.027344 162.59375 161.121094 C 163.402344 161.488281 164.40625 161.367188 165.097656 160.824219 C 166.238281 161.09375 167.417969 161.144531 168.582031 160.917969 C 170.027344 160.644531 171.351562 160.003906 172.496094 159.113281 C 172.265625 159.390625 172.035156 159.660156 171.785156 159.910156 C 171.691406 160.007812 171.578125 160.09375 171.492188 160.199219 C 171.316406 160.339844 171.144531 160.492188 170.964844 160.632812 C 170.539062 160.964844 170.09375 161.269531 169.628906 161.546875 C 169.410156 161.679688 169.1875 161.804688 168.960938 161.925781 C 168.910156 161.953125 168.875 161.972656 168.847656 161.988281 C 168.785156 162.011719 168.722656 162.035156 168.671875 162.054688 C 168.175781 162.277344 167.667969 162.472656 167.148438 162.636719 C 166.902344 162.710938 166.65625 162.785156 166.40625 162.847656 C 166.292969 162.875 166.179688 162.902344 166.070312 162.929688 C 166.023438 162.941406 165.96875 162.960938 165.925781 162.980469 C 165.492188 163.113281 164.898438 163.109375 164.480469 163.140625 C 163.996094 163.171875 163.511719 163.167969 163.023438 163.164062 C 163.019531 163.164062 163.015625 163.164062 163.011719 163.164062 C 162.878906 163.140625 162.742188 163.136719 162.609375 163.121094 C 162.324219 163.089844 162.042969 163.046875 161.761719 162.996094 C 161.320312 162.910156 160.886719 162.796875 160.453125 162.667969 C 160.386719 162.640625 160.136719 162.554688 160.03125 162.511719 C 159.757812 162.398438 159.484375 162.273438 159.214844 162.140625 C 158.976562 162.023438 158.742188 161.898438 158.507812 161.761719 C 158.390625 161.695312 158.277344 161.625 158.160156 161.554688 C 157.707031 161.238281 157.269531 160.902344 156.855469 160.535156 C 156.65625 160.359375 156.460938 160.175781 156.273438 159.988281 C 156.1875 159.90625 156.105469 159.820312 156.023438 159.734375 C 156.007812 159.722656 156 159.710938 155.988281 159.703125 C 155.628906 159.277344 155.28125 158.847656 154.964844 158.394531 C 154.660156 157.953125 154.375 157.496094 154.117188 157.027344 C 154.109375 157.011719 154.082031 156.957031 154.050781 156.902344 C 154.066406 156.941406 154.058594 156.933594 153.996094 156.796875 C 153.972656 156.75 153.949219 156.707031 153.949219 156.710938 C 153.953125 156.707031 153.957031 156.714844 153.960938 156.71875 C 153.835938 156.441406 153.710938 156.167969 153.597656 155.882812 C 153.40625 155.410156 153.238281 154.929688 153.09375 154.441406 C 153.007812 154.152344 152.941406 153.863281 152.863281 153.574219 C 152.859375 153.550781 152.851562 153.523438 152.84375 153.492188 C 152.820312 153.371094 152.800781 153.25 152.78125 153.132812 C 152.636719 152.230469 152.578125 151.316406 152.597656 150.40625 C 152.636719 150.273438 152.667969 150.140625 152.707031 150.007812 C 152.722656 149.960938 152.753906 149.863281 152.777344 149.796875 C 152.824219 149.667969 152.871094 149.539062 152.921875 149.410156 C 153.117188 148.910156 153.339844 148.417969 153.589844 147.941406 C 153.71875 147.6875 153.855469 147.4375 154 147.191406 C 154.066406 147.082031 154.132812 146.976562 154.199219 146.867188 C 154.21875 146.835938 154.226562 146.820312 154.238281 146.800781 C 154.253906 146.78125 154.265625 146.765625 154.289062 146.730469 C 154.933594 145.847656 155.621094 145.019531 156.410156 144.261719 C 156.476562 144.207031 156.699219 144.007812 156.785156 143.9375 C 157.03125 143.738281 157.28125 143.542969 157.539062 143.359375 C 158.003906 143.027344 158.488281 142.730469 158.988281 142.453125 C 159.621094 142.101562 159.960938 141.359375 159.988281 140.621094 C 161.308594 141.714844 162.992188 139.972656 162.285156 138.632812 C 162.335938 138.617188 162.382812 138.597656 162.433594 138.582031 C 162.691406 138.507812 162.949219 138.433594 163.207031 138.371094 Z M 162.171875 152.265625 C 162.167969 152.230469 162.164062 152.195312 162.160156 152.164062 C 162.191406 152.28125 162.195312 152.566406 162.171875 152.265625 Z M 164.40625 148.214844 C 164.429688 148.203125 164.457031 148.191406 164.480469 148.183594 C 164.34375 148.25 164.109375 148.34375 164.40625 148.214844 Z M 168.441406 154.035156 C 168.414062 154.0625 168.390625 154.085938 168.390625 154.089844 C 168.390625 154.082031 168.414062 154.0625 168.441406 154.035156 Z M 168.515625 153.976562 C 168.511719 153.980469 168.507812 153.980469 168.5 153.984375 C 168.613281 153.898438 168.738281 153.808594 168.515625 153.976562 Z M 169.730469 151.125 C 169.730469 151.214844 169.730469 151.277344 169.722656 151.277344 C 169.714844 151.277344 169.722656 151.203125 169.730469 151.125 Z M 169.730469 151.113281 C 169.730469 151.121094 169.730469 151.121094 169.726562 151.132812 C 169.707031 151.285156 169.691406 151.433594 169.667969 151.585938 C 169.632812 151.789062 169.59375 151.988281 169.542969 152.1875 C 169.527344 152.234375 169.515625 152.285156 169.503906 152.332031 C 169.496094 152.355469 169.492188 152.367188 169.488281 152.386719 C 169.472656 152.417969 169.460938 152.453125 169.449219 152.488281 C 169.375 152.675781 169.289062 152.859375 169.199219 153.039062 C 169.152344 153.128906 169.101562 153.210938 169.054688 153.304688 C 169.050781 153.316406 169.050781 153.316406 169.046875 153.328125 C 168.902344 153.515625 168.757812 153.703125 168.597656 153.878906 C 168.582031 153.898438 168.519531 153.957031 168.46875 154.007812 C 168.324219 154.113281 168.179688 154.214844 168.035156 154.316406 C 168.050781 154.316406 168.066406 154.316406 168.082031 154.320312 C 168.066406 154.316406 168.042969 154.320312 168.015625 154.328125 C 168.003906 154.335938 167.988281 154.347656 167.972656 154.359375 C 167.847656 154.449219 167.796875 154.453125 167.800781 154.429688 C 167.773438 154.445312 167.75 154.457031 167.734375 154.460938 C 167.65625 154.492188 167.574219 154.515625 167.488281 154.542969 C 167.511719 154.546875 167.53125 154.546875 167.550781 154.554688 C 167.53125 154.546875 167.496094 154.550781 167.46875 154.550781 C 167.4375 154.558594 167.40625 154.570312 167.375 154.578125 C 167.226562 154.632812 167.214844 154.59375 167.277344 154.566406 C 167.140625 154.585938 166.996094 154.621094 166.910156 154.625 C 166.851562 154.625 166.722656 154.609375 166.632812 154.613281 C 166.457031 154.582031 166.285156 154.546875 166.113281 154.511719 C 166.046875 154.488281 165.976562 154.472656 165.925781 154.449219 C 165.738281 154.367188 165.558594 154.28125 165.382812 154.183594 C 165.371094 154.183594 165.335938 154.171875 165.277344 154.125 C 165.257812 154.109375 165.242188 154.09375 165.226562 154.082031 C 165.183594 154.054688 165.148438 154.035156 165.125 154.03125 C 165.144531 154.035156 165.160156 154.039062 165.179688 154.042969 C 165.007812 153.910156 164.832031 153.777344 164.671875 153.632812 C 164.617188 153.582031 164.566406 153.53125 164.511719 153.476562 C 164.519531 153.492188 164.523438 153.503906 164.527344 153.519531 C 164.523438 153.5 164.507812 153.484375 164.5 153.46875 C 164.488281 153.457031 164.476562 153.445312 164.464844 153.433594 C 164.375 153.347656 164.347656 153.292969 164.355469 153.277344 C 164.285156 153.203125 164.214844 153.132812 164.167969 153.070312 C 164.023438 152.875 163.886719 152.675781 163.761719 152.46875 C 163.71875 152.394531 163.675781 152.320312 163.636719 152.25 C 163.472656 151.84375 163.332031 151.449219 163.207031 151.03125 C 163.207031 151.03125 163.207031 151.03125 163.207031 151.027344 C 163.203125 151.003906 163.199219 150.976562 163.195312 150.941406 C 163.164062 150.707031 163.140625 150.46875 163.136719 150.230469 C 163.132812 150.15625 163.136719 150.078125 163.140625 150.003906 C 163.183594 149.816406 163.195312 149.609375 163.238281 149.417969 C 163.253906 149.351562 163.269531 149.285156 163.289062 149.222656 C 163.351562 149.128906 163.40625 149.011719 163.457031 148.894531 C 163.550781 148.808594 163.636719 148.722656 163.675781 148.695312 C 163.878906 148.546875 164.085938 148.40625 164.300781 148.28125 C 164.332031 148.261719 164.449219 148.207031 164.515625 148.164062 C 164.710938 148.082031 164.902344 148 165.101562 147.929688 C 165.289062 147.863281 165.480469 147.8125 165.667969 147.761719 C 165.660156 147.757812 165.648438 147.757812 165.640625 147.753906 C 165.648438 147.757812 165.667969 147.757812 165.695312 147.753906 C 165.738281 147.742188 165.777344 147.730469 165.820312 147.71875 C 165.917969 147.691406 165.949219 147.695312 165.945312 147.707031 C 166.160156 147.679688 166.378906 147.660156 166.597656 147.65625 C 166.699219 147.652344 166.800781 147.652344 166.902344 147.652344 C 167.097656 147.699219 167.3125 147.707031 167.511719 147.753906 C 167.597656 147.769531 167.675781 147.792969 167.757812 147.8125 C 167.933594 147.90625 168.132812 147.96875 168.3125 148.066406 C 168.320312 148.070312 168.355469 148.089844 168.394531 148.113281 C 168.351562 148.074219 168.347656 148.066406 168.460938 148.148438 C 168.515625 148.179688 168.566406 148.210938 168.566406 148.210938 C 168.5625 148.214844 168.550781 148.214844 168.535156 148.207031 C 168.542969 148.214844 168.546875 148.214844 168.558594 148.226562 C 168.640625 148.289062 168.71875 148.351562 168.792969 148.421875 C 168.832031 148.457031 168.871094 148.492188 168.90625 148.523438 C 168.921875 148.542969 168.933594 148.550781 168.945312 148.5625 C 168.964844 148.589844 168.984375 148.609375 169.003906 148.636719 C 169.0625 148.714844 169.121094 148.796875 169.179688 148.878906 C 169.210938 148.925781 169.238281 148.972656 169.269531 149.023438 C 169.304688 149.21875 169.519531 149.574219 169.566406 149.726562 C 169.585938 149.792969 169.605469 149.863281 169.625 149.933594 C 169.628906 149.925781 169.628906 149.917969 169.632812 149.914062 C 169.628906 149.917969 169.628906 149.929688 169.625 149.9375 C 169.632812 149.960938 169.640625 149.988281 169.648438 150.015625 C 169.722656 150.273438 169.667969 150.226562 169.632812 150.121094 C 169.65625 150.269531 169.699219 150.453125 169.707031 150.515625 C 169.707031 150.550781 169.726562 150.898438 169.730469 151.113281 Z M 168.914062 161.960938 C 168.976562 161.925781 169.046875 161.886719 169.0625 161.875 C 169.027344 161.910156 168.972656 161.9375 168.914062 161.960938 Z M 158.183594 161.570312 C 158.289062 161.644531 158.46875 161.773438 158.183594 161.570312 Z M 152.355469 156.246094 C 152.34375 156.175781 152.332031 156.101562 152.320312 156.03125 C 152.316406 156.007812 152.328125 156.050781 152.355469 156.25 C 152.355469 156.25 152.355469 156.25 152.355469 156.246094 Z M 156.84375 141.726562 C 156.847656 141.726562 156.847656 141.722656 156.851562 141.722656 C 156.851562 141.722656 156.855469 141.71875 156.855469 141.714844 C 156.902344 141.675781 156.949219 141.640625 156.992188 141.597656 C 157.027344 141.574219 157.003906 141.59375 156.84375 141.726562 Z M 179.804688 166.164062 C 183.585938 169.175781 187.171875 172.433594 190.535156 175.910156 C 190.378906 175.910156 190.222656 175.921875 190.070312 175.953125 C 189.277344 176.113281 188.535156 176.738281 188.273438 177.523438 C 186.714844 175.578125 183.355469 177.261719 184.230469 179.742188 C 184.78125 181.304688 185.332031 182.867188 185.882812 184.429688 C 185.773438 184.351562 185.671875 184.261719 185.566406 184.1875 C 184.746094 183.59375 183.578125 183.378906 182.710938 184.039062 C 182.566406 184.148438 182.441406 184.273438 182.328125 184.402344 C 181.785156 183.910156 181.027344 183.675781 180.277344 183.828125 C 179.753906 183.933594 179.238281 184.253906 178.875 184.691406 C 178.378906 183.660156 177.890625 182.628906 177.414062 181.589844 C 176.265625 179.078125 175.175781 176.535156 174.144531 173.96875 C 173.628906 172.6875 173.128906 171.398438 172.640625 170.105469 C 172.613281 170.023438 172.566406 169.953125 172.527344 169.875 C 172.671875 169.8125 172.816406 169.757812 172.960938 169.695312 C 175.332031 168.601562 177.410156 167.058594 179.132812 165.1875 C 179.257812 165.558594 179.472656 165.898438 179.804688 166.164062 Z M 195.386719 181.277344 C 195.253906 181.214844 195.117188 181.15625 194.984375 181.089844 C 194.957031 181.074219 194.949219 181.070312 194.929688 181.0625 C 194.914062 181.046875 194.90625 181.042969 194.886719 181.027344 C 194.746094 180.914062 194.601562 180.8125 194.460938 180.695312 C 194.324219 180.582031 194.191406 180.460938 194.0625 180.335938 C 193.964844 180.242188 193.660156 179.820312 193.980469 180.265625 C 193.769531 179.972656 193.542969 179.703125 193.355469 179.394531 C 193.351562 179.394531 193.351562 179.390625 193.347656 179.386719 C 193.273438 179.148438 193.199219 178.910156 193.125 178.671875 C 193.304688 178.871094 193.480469 179.070312 193.65625 179.269531 C 194.242188 179.929688 194.816406 180.601562 195.386719 181.277344 Z M 163.886719 121.535156 C 163.875 121.558594 163.875 121.554688 163.886719 121.535156 Z M 165.015625 120.53125 C 165.070312 120.507812 165.097656 120.496094 165.015625 120.53125 Z M 166.390625 120.394531 C 166.335938 120.351562 166.296875 120.3125 166.390625 120.394531 Z M 215.515625 204.101562 C 213.164062 199.105469 210.480469 194.261719 207.453125 189.636719 C 201.484375 180.523438 194.203125 172.21875 185.925781 165.132812 C 184.914062 164.269531 183.886719 163.425781 182.847656 162.597656 C 182.464844 162.292969 181.984375 162.113281 181.492188 162.070312 C 182.429688 160.546875 183.175781 158.890625 183.707031 157.144531 C 185.34375 151.753906 184.261719 145.828125 180.949219 141.285156 C 177.589844 136.675781 172.34375 133.648438 166.621094 133.382812 C 163.898438 133.257812 161.179688 133.855469 158.695312 134.988281 C 155.609375 131.695312 152.941406 127.871094 152.328125 123.503906 C 151.988281 121.09375 152.167969 118.632812 153.113281 116.464844 C 153.621094 115.296875 154.214844 114.394531 155.121094 113.480469 C 155.382812 113.214844 155.253906 113.332031 155.539062 113.101562 C 155.746094 112.933594 155.960938 112.777344 156.179688 112.628906 C 156.757812 112.242188 156.917969 112.160156 157.476562 111.933594 C 161.152344 110.441406 165.769531 111.429688 168.566406 114.425781 C 168.601562 114.472656 168.757812 114.648438 168.757812 114.652344 C 168.824219 114.734375 168.890625 114.816406 168.953125 114.898438 C 169.113281 115.109375 169.265625 115.324219 169.40625 115.546875 C 169.78125 116.136719 169.824219 116.230469 170.0625 116.886719 C 170.445312 117.933594 170.609375 119.125 170.472656 120.214844 C 170.335938 121.335938 169.992188 122.324219 169.324219 123.121094 C 169.011719 123.496094 168.710938 123.773438 168.246094 124.027344 C 168.222656 124.03125 167.953125 124.152344 167.949219 124.152344 C 167.847656 124.191406 167.746094 124.226562 167.640625 124.253906 C 167.636719 124.257812 167.378906 124.3125 167.335938 124.324219 C 167.199219 124.347656 167.0625 124.363281 166.925781 124.375 C 166.363281 124.414062 165.933594 124.363281 165.425781 124.203125 C 164.921875 124.039062 164.597656 123.835938 164.195312 123.460938 C 164.167969 123.4375 164.15625 123.421875 164.136719 123.40625 C 164.132812 123.398438 164.125 123.382812 164.105469 123.363281 C 164.011719 123.238281 163.921875 123.109375 163.84375 122.972656 C 163.824219 122.9375 163.796875 122.882812 163.792969 122.863281 C 163.765625 122.785156 163.683594 122.375 163.675781 122.441406 C 163.671875 122.390625 163.667969 122.34375 163.65625 122.308594 C 163.648438 122.285156 163.640625 122.269531 163.632812 122.257812 C 163.640625 122.238281 163.652344 122.210938 163.660156 122.160156 C 163.683594 122.0625 163.703125 121.960938 163.726562 121.859375 C 163.660156 122.183594 163.71875 121.867188 163.765625 121.777344 C 163.808594 121.6875 163.855469 121.597656 163.902344 121.507812 C 163.925781 121.46875 163.964844 121.410156 164 121.367188 C 164.066406 121.285156 164.132812 121.203125 164.203125 121.125 C 164.238281 121.089844 164.375 120.972656 164.417969 120.933594 C 164.570312 120.816406 164.730469 120.703125 164.890625 120.597656 C 164.914062 120.582031 164.949219 120.566406 164.980469 120.546875 C 165.070312 120.507812 165.164062 120.46875 165.257812 120.433594 C 165.371094 120.390625 165.492188 120.363281 165.609375 120.324219 C 165.621094 120.320312 165.625 120.320312 165.632812 120.316406 C 165.648438 120.316406 165.65625 120.320312 165.675781 120.320312 C 165.777344 120.324219 165.90625 120.3125 166.011719 120.300781 C 166.027344 120.304688 166.050781 120.308594 166.089844 120.3125 C 166.097656 120.320312 166.277344 120.355469 166.3125 120.359375 C 165.960938 120.292969 166.304688 120.382812 166.4375 120.4375 C 166.488281 120.480469 166.539062 120.519531 166.585938 120.566406 C 167.113281 121.226562 168.03125 121.46875 168.761719 120.964844 C 169.417969 120.511719 169.691406 119.453125 169.160156 118.792969 C 167.3125 116.484375 164.144531 116.914062 162.144531 118.785156 C 159.976562 120.8125 160.082031 124.140625 162.398438 126.042969 C 164.722656 127.953125 168.457031 128.03125 170.769531 126.066406 C 173.421875 123.816406 174.089844 120.140625 173.316406 116.875 C 171.976562 111.210938 165.9375 107.910156 160.410156 108.148438 C 157.585938 108.265625 154.890625 109.359375 152.859375 111.335938 C 150.617188 113.519531 149.386719 116.667969 149.125 119.753906 C 148.800781 123.609375 149.757812 127.289062 151.59375 130.671875 C 152.761719 132.816406 154.253906 134.753906 155.898438 136.5625 C 154.539062 137.476562 153.300781 138.554688 152.226562 139.765625 C 150.714844 141.472656 149.550781 143.472656 148.800781 145.628906 C 145.082031 139.875 139.921875 134.9375 133.363281 132.699219 C 129.601562 131.417969 125.5625 130.964844 121.648438 131.753906 C 117.851562 132.515625 114.421875 134.398438 111.773438 137.234375 C 109.296875 139.886719 107.613281 143.367188 107.363281 147.007812 C 107.125 150.484375 108.238281 153.972656 110.402344 156.710938 C 112.496094 159.355469 115.519531 161.398438 118.917969 161.832031 C 122.820312 162.328125 127.132812 160.808594 129.082031 157.214844 C 130.832031 154 129.726562 149.226562 126.269531 147.632812 C 123.1875 146.210938 119.304688 148.152344 118.359375 151.351562 C 118.117188 152.167969 118.179688 152.972656 118.355469 153.792969 C 118.535156 154.621094 119.617188 155.011719 120.34375 154.757812 C 121.222656 154.449219 121.484375 153.597656 121.308594 152.769531 C 121.382812 153.117188 121.316406 152.664062 121.3125 152.621094 C 121.304688 152.582031 121.300781 152.5625 121.296875 152.539062 C 121.300781 152.523438 121.304688 152.507812 121.308594 152.480469 C 121.324219 152.386719 121.34375 152.292969 121.363281 152.203125 C 121.371094 152.191406 121.425781 151.992188 121.445312 151.953125 C 121.621094 151.558594 121.9375 151.183594 122.238281 150.957031 C 122.351562 150.871094 122.46875 150.789062 122.589844 150.714844 C 122.613281 150.699219 122.773438 150.617188 122.824219 150.585938 C 123.050781 150.484375 123.285156 150.40625 123.523438 150.332031 C 123.558594 150.320312 123.574219 150.316406 123.59375 150.308594 C 123.613281 150.308594 123.632812 150.308594 123.671875 150.304688 C 123.8125 150.296875 123.957031 150.289062 124.09375 150.273438 C 124.136719 150.269531 124.160156 150.265625 124.183594 150.261719 C 124.203125 150.265625 124.21875 150.269531 124.253906 150.273438 C 124.441406 150.304688 124.625 150.335938 124.808594 150.390625 C 124.507812 150.296875 125.359375 150.691406 125.234375 150.609375 C 125.375 150.703125 125.503906 150.8125 125.628906 150.921875 C 125.621094 150.914062 125.894531 151.207031 125.859375 151.152344 C 126.335938 151.722656 126.492188 152.097656 126.679688 152.839844 C 126.925781 153.839844 126.757812 155.195312 126.074219 156.179688 C 124.402344 158.578125 121.144531 159.191406 118.53125 158.585938 C 117.40625 158.324219 116.097656 157.703125 115.1875 157.039062 C 114 156.167969 113.222656 155.351562 112.421875 154.179688 C 110.96875 152.058594 110.191406 149.484375 110.496094 146.871094 C 110.84375 143.867188 112.246094 141.234375 114.34375 139.0625 C 118.808594 134.441406 125.664062 133.558594 131.789062 135.449219 C 139.027344 137.6875 144.324219 143.675781 147.871094 150.15625 C 147.664062 151.082031 147.523438 152.023438 147.464844 152.972656 C 147.105469 159.25 150.484375 165.363281 155.75 168.6875 C 159.335938 170.949219 163.851562 171.742188 168.09375 171.117188 C 168.113281 171.292969 168.148438 171.46875 168.214844 171.644531 C 172.324219 182.570312 177.484375 193.109375 183.582031 203.0625 C 186.601562 207.984375 189.851562 212.761719 193.324219 217.375 C 195.085938 219.710938 196.90625 222.007812 198.777344 224.257812 C 200.578125 226.417969 202.375 228.644531 204.429688 230.566406 C 206.453125 232.464844 208.941406 234.042969 211.722656 234.472656 C 214.621094 234.921875 217.488281 234.234375 219.652344 232.214844 C 223.238281 228.855469 222.5 223.226562 221.269531 219 C 219.785156 213.898438 217.78125 208.90625 215.515625 204.101562 " fill-opacity="1" fill-rule="nonzero"/></g></g></g></svg>