<svg xmlns="http://www.w3.org/2000/svg" xmlns:xlink="http://www.w3.org/1999/xlink" width="500" zoomAndPan="magnify" viewBox="0 0 375 374.999991" height="500" preserveAspectRatio="xMidYMid meet" version="1.0"><defs><clipPath id="98e61ef1a8"><path d="M 64 111.972656 L 305 111.972656 L 305 257 L 64 257 Z M 64 111.972656 " clip-rule="nonzero"/></clipPath></defs><path fill="#bfe5e2" d="M 164.085938 133.507812 C 164.410156 133.507812 164.738281 133.542969 165.066406 133.617188 C 167.261719 134.113281 168.292969 136.496094 167.859375 138.535156 C 166.238281 146.195312 164.617188 153.851562 162.996094 161.507812 C 160.339844 174.03125 157.6875 186.550781 155.035156 199.074219 C 163.160156 179.332031 171.285156 159.589844 179.414062 139.84375 C 180.132812 138.09375 181.484375 136.929688 183.292969 136.929688 C 183.625 136.929688 183.972656 136.96875 184.335938 137.050781 C 186.449219 137.53125 187.679688 139.957031 187.132812 141.976562 C 185.1875 149.125 183.238281 156.269531 181.292969 163.421875 C 178.671875 173.054688 176.050781 182.6875 173.425781 192.324219 C 181.738281 174.019531 190.058594 155.71875 198.375 137.417969 C 198.960938 136.117188 200.410156 135.476562 201.796875 135.476562 C 202.347656 135.476562 202.890625 135.578125 203.367188 135.777344 C 205.160156 136.53125 206.25 138.582031 205.6875 140.5 C 203.992188 146.257812 202.300781 152.015625 200.605469 157.773438 C 197.351562 168.851562 194.09375 179.925781 190.835938 191.003906 C 198.933594 177.21875 206.324219 163.023438 212.953125 148.476562 C 213.542969 147.175781 214.988281 146.535156 216.378906 146.535156 C 216.929688 146.535156 217.472656 146.636719 217.949219 146.835938 C 219.730469 147.589844 220.84375 149.644531 220.269531 151.5625 C 218.640625 156.945312 217.015625 162.332031 215.386719 167.71875 C 211.792969 179.613281 208.203125 191.503906 204.605469 203.394531 C 216.441406 186.960938 226.925781 169.5625 235.917969 151.414062 C 236.597656 150.035156 237.816406 149.457031 239.085938 149.457031 C 241.5625 149.457031 244.195312 151.679688 243.230469 154.496094 C 241.363281 159.941406 239.394531 165.347656 237.316406 170.714844 C 235.785156 174.664062 234.1875 178.589844 232.546875 182.492188 C 234.898438 179.175781 237.246094 175.863281 239.597656 172.546875 C 240.449219 171.339844 241.695312 170.582031 243.058594 170.582031 C 243.558594 170.582031 244.078125 170.6875 244.59375 170.910156 C 246.296875 171.625 247.59375 173.753906 246.914062 175.628906 C 246.15625 177.703125 245.398438 179.777344 244.644531 181.855469 C 247.1875 178.449219 249.730469 175.050781 252.273438 171.648438 C 253.164062 170.460938 254.382812 169.6875 255.738281 169.6875 C 256.238281 169.6875 256.75 169.789062 257.273438 170.007812 C 258.988281 170.730469 260.253906 172.851562 259.59375 174.734375 C 257.492188 180.667969 255.398438 186.605469 253.296875 192.542969 C 253.960938 191.816406 254.636719 191.101562 255.269531 190.355469 C 255.785156 189.746094 256.289062 189.132812 256.789062 188.515625 C 256.964844 188.292969 257.140625 188.066406 257.3125 187.84375 L 257.734375 187.296875 C 258.683594 186.023438 259.597656 184.722656 260.476562 183.398438 C 262.164062 180.847656 263.695312 178.199219 265.082031 175.476562 C 265.734375 174.195312 267.132812 173.53125 268.515625 173.53125 C 269.054688 173.53125 269.589844 173.632812 270.082031 173.839844 C 271.765625 174.550781 273.097656 176.699219 272.398438 178.558594 C 271.171875 181.808594 269.949219 185.054688 268.726562 188.304688 C 271.246094 185.4375 273.769531 182.570312 276.292969 179.703125 C 277.027344 178.871094 277.964844 178.515625 278.910156 178.515625 C 281.359375 178.515625 283.855469 180.910156 282.980469 183.597656 C 281.925781 186.851562 280.867188 190.101562 279.808594 193.355469 C 281.6875 190.984375 283.5625 188.609375 285.4375 186.242188 C 286.074219 185.433594 287.074219 185.082031 288.085938 185.082031 C 289.039062 185.082031 290 185.394531 290.691406 185.925781 C 292.40625 187.25 292.515625 189.226562 291.722656 191.089844 C 288.371094 198.976562 285.019531 206.859375 281.664062 214.746094 C 281.097656 216.078125 279.679688 216.667969 278.285156 216.667969 C 277.535156 216.667969 276.789062 216.5 276.191406 216.179688 C 274.9375 215.519531 274.382812 214.359375 274.316406 213.125 C 273.535156 214.113281 272.75 215.105469 271.96875 216.09375 C 271.328125 216.902344 270.308594 217.238281 269.285156 217.238281 C 268.515625 217.238281 267.738281 217.050781 267.117188 216.722656 C 265.609375 215.921875 264.753906 213.8125 265.277344 212.203125 C 266.628906 208.035156 267.984375 203.867188 269.339844 199.703125 C 266.265625 203.195312 263.199219 206.683594 260.125 210.171875 C 259.410156 210.984375 258.46875 211.332031 257.515625 211.332031 C 255.019531 211.332031 252.417969 208.976562 253.4375 206.28125 C 253.941406 204.933594 254.449219 203.589844 254.957031 202.242188 C 252.238281 204.824219 249.359375 207.246094 246.324219 209.472656 C 245.796875 209.859375 245.144531 210.023438 244.480469 210.023438 C 243.535156 210.023438 242.5625 209.6875 241.878906 209.160156 C 240.695312 208.246094 239.914062 206.453125 240.445312 204.953125 C 241.382812 202.300781 242.320312 199.644531 243.257812 196.984375 C 240.535156 200.625 237.8125 204.269531 235.085938 207.910156 C 234.199219 209.101562 232.984375 209.875 231.625 209.875 C 231.128906 209.875 230.613281 209.765625 230.09375 209.550781 C 228.386719 208.828125 227.089844 206.699219 227.773438 204.824219 C 228.222656 203.589844 228.675781 202.359375 229.121094 201.125 C 223.148438 209.554688 217.175781 217.984375 211.203125 226.414062 C 210.328125 227.648438 209.078125 228.367188 207.71875 228.367188 C 207.070312 228.367188 206.394531 228.199219 205.730469 227.851562 C 203.789062 226.824219 203.273438 224.203125 204.292969 222.371094 C 207.058594 217.40625 209.734375 212.390625 212.304688 207.316406 C 212.871094 206.195312 213.445312 205.058594 214.007812 203.914062 C 208.695312 211.480469 203.121094 218.871094 197.273438 226.039062 C 196.617188 226.839844 195.601562 227.179688 194.574219 227.179688 C 193.8125 227.179688 193.046875 226.992188 192.421875 226.664062 C 190.894531 225.855469 190.089844 223.769531 190.582031 222.144531 C 192.210938 216.757812 193.835938 211.371094 195.460938 205.984375 C 196.933594 201.117188 198.40625 196.25 199.875 191.382812 C 194.363281 200.957031 188.515625 210.347656 182.332031 219.503906 C 181.511719 220.726562 180.238281 221.460938 178.878906 221.460938 C 178.371094 221.460938 177.847656 221.359375 177.332031 221.144531 C 175.542969 220.386719 174.449219 218.339844 175.015625 216.421875 C 176.707031 210.664062 178.402344 204.90625 180.09375 199.148438 C 180.722656 197.019531 181.347656 194.890625 181.972656 192.761719 C 174.644531 208.894531 167.316406 225.023438 159.988281 241.148438 C 159.398438 242.449219 157.953125 243.089844 156.566406 243.089844 C 156.011719 243.089844 155.46875 242.988281 154.992188 242.789062 C 153.175781 242.019531 152.148438 239.996094 152.671875 238.0625 C 154.621094 230.917969 156.566406 223.769531 158.511719 216.617188 C 159.882812 211.585938 161.253906 206.550781 162.625 201.511719 C 157.054688 215.046875 151.484375 228.582031 145.914062 242.113281 C 145.191406 243.867188 143.839844 245.03125 142.035156 245.03125 C 141.703125 245.03125 141.351562 244.992188 140.988281 244.910156 C 138.796875 244.410156 137.761719 242.03125 138.191406 239.984375 C 138.765625 237.28125 139.339844 234.574219 139.914062 231.871094 C 139.726562 231.894531 139.542969 231.910156 139.355469 231.910156 C 139.207031 231.910156 139.058594 231.898438 138.910156 231.878906 C 138.023438 231.761719 137.191406 231.316406 136.558594 230.675781 C 136.40625 232.035156 136.25 233.398438 136.097656 234.753906 C 135.84375 236.992188 134.460938 238.652344 132.09375 238.757812 C 132.039062 238.757812 131.984375 238.761719 131.933594 238.761719 C 129.777344 238.761719 128.191406 236.792969 128.089844 234.753906 C 127.761719 228.121094 127.4375 221.484375 127.109375 214.84375 C 126.789062 208.308594 126.472656 201.769531 126.148438 195.234375 C 125.996094 196.648438 125.847656 198.058594 125.695312 199.46875 C 125.457031 201.707031 124.050781 203.367188 121.691406 203.472656 C 121.640625 203.472656 121.585938 203.476562 121.535156 203.476562 C 119.402344 203.476562 117.75 201.511719 117.691406 199.46875 C 117.570312 195.582031 117.453125 191.695312 117.332031 187.808594 C 116.492188 193.867188 115.652344 199.929688 114.8125 205.988281 C 114.5625 207.789062 112.574219 208.886719 110.898438 208.886719 C 110.734375 208.886719 110.574219 208.878906 110.421875 208.855469 C 108.285156 208.566406 107.195312 206.925781 106.949219 204.921875 C 106.367188 200.199219 105.785156 195.472656 105.203125 190.75 C 104.316406 194.246094 103.433594 197.746094 102.542969 201.246094 C 102.09375 203.007812 100.417969 204.144531 98.675781 204.144531 C 98.503906 204.144531 98.328125 204.132812 98.152344 204.109375 C 96.109375 203.832031 94.804688 202.183594 94.683594 200.179688 C 94.65625 199.726562 94.625 199.277344 94.597656 198.824219 C 94.027344 200.640625 93.453125 202.457031 92.882812 204.273438 C 92.316406 206.082031 90.75 207.183594 88.960938 207.183594 C 88.632812 207.183594 88.296875 207.148438 87.957031 207.074219 C 85.878906 206.597656 84.566406 204.15625 85.164062 202.148438 C 85.332031 201.574219 85.464844 200.992188 85.589844 200.40625 L 85.621094 200.277344 L 85.621094 200.234375 C 85.628906 199.996094 85.660156 199.757812 85.671875 199.519531 C 85.699219 198.984375 85.703125 198.445312 85.675781 197.910156 C 85.660156 197.621094 85.628906 197.339844 85.605469 197.050781 L 85.597656 197.019531 C 85.464844 196.496094 85.386719 195.964844 85.242188 195.449219 C 85.160156 195.160156 85.070312 194.875 84.972656 194.59375 C 84.941406 194.507812 84.832031 194.210938 84.804688 194.117188 C 84.402344 193.226562 83.894531 192.382812 83.332031 191.589844 C 82.042969 189.757812 83.074219 187.203125 84.769531 186.109375 C 85.371094 185.722656 86.015625 185.550781 86.652344 185.550781 C 87.867188 185.550781 89.058594 186.171875 89.890625 187.109375 C 91.050781 183.414062 92.214844 179.722656 93.375 176.027344 C 93.921875 174.285156 95.445312 173.125 97.214844 173.125 C 97.394531 173.125 97.578125 173.132812 97.765625 173.164062 C 99.210938 173.351562 100.269531 174.242188 100.820312 175.453125 C 101.441406 172.996094 102.0625 170.546875 102.6875 168.089844 C 103.136719 166.324219 104.8125 165.191406 106.554688 165.191406 C 106.726562 165.191406 106.902344 165.199219 107.078125 165.226562 C 109.214844 165.511719 110.300781 167.15625 110.546875 169.15625 C 110.757812 170.882812 110.972656 172.609375 111.1875 174.335938 C 112.800781 162.691406 114.414062 151.050781 116.03125 139.410156 C 116.28125 137.609375 118.265625 136.511719 119.945312 136.511719 C 120.109375 136.511719 120.265625 136.523438 120.421875 136.539062 C 122.414062 136.808594 123.828125 138.472656 123.894531 140.472656 C 123.914062 141.21875 123.9375 141.964844 123.960938 142.710938 C 124.53125 141.1875 125.785156 140.136719 127.640625 140.054688 C 127.691406 140.050781 127.746094 140.050781 127.796875 140.050781 C 129.953125 140.050781 131.542969 142.019531 131.640625 144.054688 C 131.96875 150.691406 132.292969 157.328125 132.617188 163.964844 C 132.972656 171.199219 133.332031 178.433594 133.6875 185.667969 C 135.414062 170.496094 137.144531 155.324219 138.871094 140.148438 C 139.125 137.914062 140.503906 136.25 142.875 136.144531 C 142.921875 136.144531 142.972656 136.140625 143.019531 136.140625 C 145.066406 136.140625 146.957031 138.101562 146.878906 140.148438 C 146.625 146.652344 146.371094 153.15625 146.113281 159.65625 C 145.679688 170.726562 145.25 181.796875 144.816406 192.871094 C 149.925781 174.046875 155.035156 155.230469 160.140625 136.410156 C 160.640625 134.582031 162.308594 133.507812 164.085938 133.507812 " fill-opacity="1" fill-rule="nonzero"/><g clip-path="url(#98e61ef1a8)"><path fill="#89d0d3" d="M 72.234375 190.585938 C 74.832031 185.339844 79.550781 181.367188 85.523438 179.398438 C 93.453125 176.789062 102.003906 177.203125 110.277344 177.605469 L 110.449219 177.613281 C 111.667969 177.671875 112.753906 176.964844 113.269531 175.765625 C 113.808594 174.523438 113.570312 173.164062 112.664062 172.292969 C 105.3125 165.222656 103.683594 152.726562 108.875 143.230469 C 111.429688 138.566406 115.496094 135.105469 120.332031 133.488281 C 125.261719 131.839844 130.429688 131.796875 135.691406 133.359375 C 141.605469 135.109375 146.417969 138.78125 149.234375 143.679688 C 149.84375 144.742188 151.128906 145.355469 152.34375 145.175781 C 153.546875 144.992188 154.386719 144.28125 154.910156 142.988281 C 160.453125 129.3125 170.875 119.191406 182.785156 115.917969 C 189.4375 114.09375 196.46875 114.308594 202.585938 116.527344 C 208.421875 118.644531 213.09375 122.722656 216.101562 128.324219 C 219.375 134.421875 219.902344 141.367188 217.566406 147.375 C 217.046875 148.703125 217.878906 150.289062 218.980469 150.933594 C 219.445312 151.207031 219.96875 151.339844 220.492188 151.339844 C 221.28125 151.339844 222.082031 151.039062 222.734375 150.460938 C 226.96875 146.6875 231.652344 142.808594 237.160156 140.035156 C 242.117188 137.542969 246.890625 136.554688 251.75 137.015625 C 256.332031 137.453125 260.519531 139.445312 263.234375 142.488281 C 264.574219 143.992188 265.300781 145.425781 265.742188 147.445312 C 265.929688 148.328125 265.988281 148.769531 265.976562 149.992188 C 265.972656 150.433594 265.953125 150.871094 265.914062 151.300781 L 265.898438 151.414062 C 265.882812 151.542969 265.855469 151.738281 265.855469 151.78125 C 265.800781 152.082031 265.746094 152.378906 265.679688 152.679688 C 265.425781 153.792969 265.125 154.679688 264.730469 155.464844 C 264.226562 156.484375 263.746094 157.214844 263.183594 157.847656 C 262.539062 158.5625 261.933594 159.082031 261.285156 159.480469 C 260.175781 159.8125 259.214844 160.152344 258.339844 160.519531 C 256.613281 161.242188 255.785156 162.738281 256.21875 164.328125 C 256.660156 165.933594 258.222656 166.832031 260.011719 166.511719 C 261.300781 166.285156 262.539062 165.867188 263.695312 165.28125 C 270.175781 163.589844 277.144531 164.332031 283.328125 167.378906 C 291.019531 171.164062 296.164062 177.558594 297.816406 185.386719 C 298.558594 188.902344 298.535156 193.214844 297.746094 196.914062 C 296.867188 201.050781 295.359375 204.550781 293.011719 207.9375 C 288.5625 214.339844 281.089844 218.355469 273.019531 218.675781 C 263.636719 219.050781 254.617188 215.101562 249.480469 208.378906 C 248.601562 207.226562 247.597656 206.753906 246.40625 206.933594 C 245.296875 207.101562 244.050781 207.933594 243.816406 209.203125 C 241.78125 220.128906 234.558594 229.625 224.964844 233.988281 C 220.324219 236.101562 214.964844 236.726562 210.253906 235.703125 C 205.222656 234.605469 200.640625 232.0625 197.019531 228.347656 C 192.859375 224.082031 190.648438 218.757812 190.796875 213.347656 C 190.847656 211.324219 189.304688 210.355469 187.851562 210.316406 C 186.234375 210.269531 184.621094 211.296875 184.570312 213.328125 C 184.554688 213.839844 184.5625 214.351562 184.582031 214.859375 C 184.433594 215.089844 184.320312 215.320312 184.246094 215.554688 C 178.171875 233.160156 165.542969 245.816406 150.453125 249.40625 C 142.3125 251.34375 133.703125 250.613281 126.824219 247.40625 C 119.78125 244.117188 114.503906 238.429688 111.96875 231.378906 C 109.011719 223.148438 109.769531 214.71875 114.054688 208.25 C 114.785156 207.144531 114.574219 205.445312 113.582031 204.453125 C 112.632812 203.503906 111.199219 203.316406 109.84375 203.949219 L 109.570312 204.082031 C 102.753906 207.289062 95.710938 210.605469 88.175781 210.765625 C 82.117188 210.902344 76.675781 208.71875 73.292969 204.789062 C 70.167969 201.167969 69.753906 195.589844 72.234375 190.585938 Z M 85.078125 216.867188 C 92.398438 217.613281 99.539062 215.226562 105.109375 212.898438 C 101.148438 226.695312 107.730469 243.269531 120.378906 251.007812 C 128.121094 255.746094 137.894531 257.585938 147.914062 256.195312 C 156.972656 254.933594 165.671875 250.738281 173.0625 244.066406 C 178.757812 238.917969 183.480469 232.46875 187.101562 224.890625 C 190.707031 232.40625 197.757812 238.40625 206.15625 241.054688 C 217.929688 244.765625 231.367188 240.429688 240.402344 230.015625 C 243.9375 225.941406 246.695312 221.167969 248.402344 216.175781 C 254.128906 221.277344 261.632812 224.355469 269.621094 224.859375 C 279.59375 225.492188 289.316406 221.65625 295.621094 214.609375 C 302.0625 207.398438 305.363281 197.40625 304.445312 187.878906 C 303.492188 177.941406 298.058594 169.140625 289.542969 163.730469 C 283.882812 160.128906 277.125 158.164062 270.4375 158.167969 L 270.335938 158.167969 C 272.855469 152.800781 272.75 146.121094 270.011719 141.316406 C 263.832031 130.472656 248.738281 128.574219 237.710938 133.003906 C 233.613281 134.648438 229.640625 136.976562 225.273438 140.289062 C 225.53125 128.816406 218.585938 117.355469 208.117188 112.167969 C 203.175781 109.71875 197.683594 108.476562 191.9375 108.476562 C 189.449219 108.476562 186.910156 108.707031 184.355469 109.179688 C 176.949219 110.539062 169.761719 114.1875 163.574219 119.730469 C 158.734375 124.0625 154.617188 129.539062 151.332031 136.023438 C 143.957031 127.808594 131.695312 124.15625 120.585938 126.929688 C 114.15625 128.53125 108.546875 132.453125 104.792969 137.972656 C 101.269531 143.15625 99.402344 149.953125 99.671875 156.625 C 99.882812 161.871094 101.332031 166.867188 103.875 171.128906 C 98.167969 171 91.574219 171.164062 85.175781 172.992188 C 77.367188 175.230469 71.074219 179.96875 67.449219 186.335938 C 63.597656 193.09375 63.429688 200.882812 67.007812 206.660156 C 70.519531 212.332031 77.101562 216.054688 85.078125 216.867188 " fill-opacity="1" fill-rule="nonzero"/></g></svg>