<svg xmlns="http://www.w3.org/2000/svg" xmlns:xlink="http://www.w3.org/1999/xlink" width="500" zoomAndPan="magnify" viewBox="0 0 375 374.999991" height="500" preserveAspectRatio="xMidYMid meet" version="1.0"><defs><clipPath id="f8cd8b9da5"><path d="M 79 77 L 290 77 L 290 279 L 79 279 Z M 79 77 " clip-rule="nonzero"/></clipPath><clipPath id="c8f2efb41e"><path d="M 222.582031 310.382812 L 43 197.25 L 143.742188 37.335938 L 323.324219 150.46875 Z M 222.582031 310.382812 " clip-rule="nonzero"/></clipPath><clipPath id="a3e94e1d16"><path d="M 222.582031 310.382812 L 43 197.25 L 143.742188 37.335938 L 323.324219 150.46875 Z M 222.582031 310.382812 " clip-rule="nonzero"/></clipPath><clipPath id="1fb2d2c5d8"><path d="M 158 152 L 215 152 L 215 208 L 158 208 Z M 158 152 " clip-rule="nonzero"/></clipPath><clipPath id="7f6455c55d"><path d="M 222.582031 310.382812 L 43 197.25 L 143.742188 37.335938 L 323.324219 150.46875 Z M 222.582031 310.382812 " clip-rule="nonzero"/></clipPath><clipPath id="ebadb04e64"><path d="M 222.582031 310.382812 L 43 197.25 L 143.742188 37.335938 L 323.324219 150.46875 Z M 222.582031 310.382812 " clip-rule="nonzero"/></clipPath></defs><g clip-path="url(#f8cd8b9da5)"><g clip-path="url(#c8f2efb41e)"><g clip-path="url(#a3e94e1d16)"><path fill="#fdb034" d="M 210.222656 88.960938 C 209.671875 88.535156 209.96875 88.753906 210.222656 88.960938 Z M 181.199219 96.589844 C 181.007812 96.824219 180.851562 97.019531 181.199219 96.589844 Z M 216.132812 115.808594 C 215.964844 116.703125 216.070312 116.160156 216.132812 115.808594 Z M 114.957031 132.722656 C 114.972656 132.75 114.984375 132.765625 115 132.789062 C 115.03125 132.835938 115.066406 132.882812 115.097656 132.925781 C 115.097656 132.929688 115.101562 132.929688 115.101562 132.933594 C 115.070312 132.882812 114.996094 132.777344 114.917969 132.667969 C 114.929688 132.6875 114.941406 132.707031 114.957031 132.722656 Z M 86.964844 183.808594 C 86.964844 183.804688 86.96875 183.804688 86.96875 183.796875 C 86.96875 183.800781 86.964844 183.804688 86.964844 183.808594 Z M 105.273438 100.105469 C 110.964844 93.289062 120.546875 93.296875 128.503906 95.199219 C 133.164062 96.3125 137.636719 98.195312 141.882812 100.394531 C 146.113281 102.585938 150.113281 105.226562 153.796875 108.253906 C 153.75 108.238281 153.703125 108.226562 153.652344 108.210938 C 154.460938 108.695312 155.175781 109.40625 155.867188 110.003906 C 156.523438 110.570312 157.171875 111.140625 157.816406 111.71875 C 159.050781 112.832031 160.261719 113.976562 161.4375 115.152344 C 161.941406 115.65625 162.433594 116.171875 162.925781 116.6875 C 163.347656 114.710938 163.894531 112.765625 164.527344 110.882812 C 167.773438 101.230469 173.519531 91.792969 181.480469 85.320312 C 185.410156 82.128906 189.9375 79.578125 194.914062 78.472656 C 200.023438 77.335938 205.441406 77.800781 210.289062 79.773438 C 210.367188 79.804688 210.433594 79.851562 210.507812 79.882812 C 210.761719 79.96875 211.007812 80.078125 211.242188 80.210938 C 215.941406 82.890625 219.835938 87.015625 222.003906 91.996094 C 225.925781 101.003906 225.027344 111.15625 223.171875 120.550781 C 222.058594 126.1875 220.449219 131.691406 218.789062 137.179688 C 230.195312 131.539062 243.035156 127.753906 255.8125 128.789062 C 265.625 129.585938 275.5625 133.308594 282.203125 140.828125 C 287.871094 147.246094 290.433594 155.890625 288.390625 164.285156 C 286.066406 173.816406 278.023438 180.8125 269.414062 184.761719 C 264.117188 187.191406 258.457031 188.765625 252.710938 189.722656 C 257.160156 191.878906 261.292969 194.578125 264.808594 198.117188 C 268.238281 201.566406 270.78125 205.714844 272.386719 210.289062 C 273.726562 214.117188 274.207031 218.34375 273.796875 222.375 C 273.363281 226.691406 272.074219 230.796875 269.980469 234.597656 C 268.074219 238.0625 265.402344 241.234375 262.285156 243.667969 C 258.820312 246.367188 254.871094 248.347656 250.582031 249.34375 C 245.914062 250.433594 241.082031 250.285156 236.417969 249.253906 C 231.1875 248.09375 226.195312 245.628906 221.8125 242.578125 C 219.480469 240.957031 217.277344 239.15625 215.1875 237.234375 C 215.152344 238.40625 215.082031 239.574219 214.972656 240.722656 C 214.457031 246.285156 213.183594 251.839844 210.894531 256.949219 C 208.402344 262.515625 204.945312 267.707031 200.105469 271.511719 C 197.5625 273.507812 194.78125 275.171875 191.75 276.316406 C 190.09375 276.941406 188.308594 277.664062 186.53125 277.851562 C 184.757812 278.042969 182.980469 278.175781 181.191406 278.148438 C 175.28125 278.058594 169.421875 276.46875 164.316406 273.472656 C 159.449219 270.613281 155.46875 266.472656 152.484375 261.714844 C 146.460938 252.117188 145.160156 239.816406 148.34375 229.019531 C 149.210938 226.070312 150.449219 223.207031 151.933594 220.515625 C 152.796875 218.953125 153.824219 217.5 154.726562 215.964844 C 154.878906 215.707031 155.03125 215.453125 155.179688 215.195312 C 146.4375 216.757812 137.519531 217.695312 128.632812 217.554688 C 121.410156 217.441406 114.101562 216.597656 107.136719 214.636719 C 101.738281 213.117188 96.390625 210.859375 91.796875 207.609375 C 87.871094 204.832031 84.433594 201.375 82.066406 197.164062 C 80.035156 193.558594 78.929688 189.382812 79.023438 185.238281 C 79.117188 181.132812 80.4375 177.058594 82.640625 173.597656 C 85.128906 169.691406 88.660156 166.601562 92.597656 164.21875 C 97.136719 161.472656 102.351562 159.761719 107.546875 158.804688 C 114.234375 157.570312 121.128906 157.449219 127.890625 158.085938 C 128.4375 158.136719 128.984375 158.207031 129.535156 158.269531 C 127.570312 156.742188 125.652344 155.160156 123.777344 153.550781 C 119.789062 150.125 116.007812 146.445312 112.613281 142.425781 C 109.535156 138.78125 106.617188 134.789062 104.574219 130.453125 C 102.011719 125.015625 100.878906 118.804688 101.039062 112.804688 C 101.160156 108.261719 102.316406 103.644531 105.273438 100.105469 Z M 110.6875 124.914062 C 110.628906 124.695312 110.460938 124.328125 110.628906 124.761719 C 110.648438 124.8125 110.667969 124.863281 110.6875 124.914062 Z M 95.167969 171.820312 C 95.164062 171.820312 95.160156 171.824219 95.15625 171.828125 C 95.035156 171.90625 94.914062 171.988281 94.796875 172.066406 C 94.339844 172.371094 94.960938 171.984375 95.167969 171.820312 Z M 89.78125 194.828125 C 89.789062 194.835938 89.792969 194.84375 89.796875 194.851562 C 89.867188 194.960938 89.941406 195.066406 90.011719 195.175781 C 90.285156 195.589844 89.960938 195.074219 89.78125 194.828125 Z M 188.695312 269.15625 C 188.546875 269.171875 187.898438 269.472656 188.601562 269.195312 C 188.632812 269.183594 188.664062 269.171875 188.695312 269.15625 Z M 248.25 196.1875 C 248.335938 196.226562 248.992188 196.542969 248.90625 196.488281 C 248.703125 196.367188 248.476562 196.277344 248.25 196.1875 Z M 198.859375 85.726562 C 199.089844 85.699219 199.234375 85.675781 198.859375 85.726562 Z M 110.890625 105.5625 C 110.675781 105.875 110.480469 106.199219 110.292969 106.53125 C 110.207031 106.691406 110.125 106.855469 110.039062 107.015625 C 109.898438 107.382812 109.753906 107.746094 109.632812 108.121094 C 109.480469 108.597656 109.347656 109.082031 109.234375 109.566406 C 109.183594 109.789062 109.140625 110.007812 109.097656 110.226562 C 108.960938 111.285156 108.871094 112.34375 108.855469 113.410156 C 108.84375 114.015625 108.855469 114.617188 108.882812 115.21875 C 108.894531 115.511719 108.910156 115.804688 108.929688 116.097656 C 108.949219 116.363281 109.152344 117.433594 108.945312 116.40625 C 109.238281 117.875 109.273438 119.390625 109.566406 120.863281 C 109.714844 121.585938 109.886719 122.304688 110.085938 123.015625 C 110.257812 123.640625 110.554688 124.277344 110.6875 124.914062 C 110.730469 125.019531 110.769531 125.121094 110.8125 125.226562 C 110.917969 125.488281 111.027344 125.75 111.140625 126.007812 C 111.363281 126.519531 111.597656 127.027344 111.851562 127.523438 C 112.257812 128.339844 112.710938 129.125 113.171875 129.910156 C 113.726562 130.847656 114.3125 131.761719 114.917969 132.667969 C 114.890625 132.628906 114.859375 132.585938 114.832031 132.550781 C 114.890625 132.625 114.945312 132.707031 115 132.789062 C 115.113281 132.957031 115.132812 132.984375 115.101562 132.933594 C 115.257812 133.152344 115.417969 133.371094 115.574219 133.585938 C 115.902344 134.03125 116.234375 134.46875 116.570312 134.902344 C 118.078125 136.84375 119.691406 138.699219 121.375 140.488281 C 123.128906 142.355469 124.960938 144.144531 126.847656 145.875 C 127.800781 146.746094 128.769531 147.601562 129.753906 148.441406 C 129.992188 148.648438 130.234375 148.851562 130.472656 149.054688 C 130.523438 149.097656 130.574219 149.136719 130.625 149.179688 C 131.089844 149.5625 131.554688 149.9375 132.019531 150.3125 C 135.8125 153.347656 139.777344 156.175781 143.925781 158.695312 C 145.71875 159.785156 147.546875 160.816406 149.421875 161.753906 C 149.84375 161.964844 150.269531 162.167969 150.695312 162.367188 C 150.84375 162.433594 150.996094 162.5 151.144531 162.566406 C 151.902344 162.894531 152.671875 163.195312 153.449219 163.46875 C 155.519531 164.199219 156.609375 166.214844 156.066406 168.347656 C 155.546875 170.378906 153.140625 171.582031 151.1875 170.964844 C 149.085938 170.300781 146.972656 169.675781 144.84375 169.109375 C 142.761719 168.554688 140.667969 168.046875 138.558594 167.597656 C 137.59375 167.394531 136.621094 167.199219 135.652344 167.019531 C 135.121094 166.917969 134.585938 166.828125 134.054688 166.734375 C 134.011719 166.726562 133.96875 166.71875 133.929688 166.710938 C 133.777344 166.6875 133.628906 166.664062 133.480469 166.640625 C 129.886719 166.082031 126.257812 165.710938 122.621094 165.582031 C 120.988281 165.523438 119.351562 165.515625 117.714844 165.5625 C 116.921875 165.585938 116.125 165.621094 115.332031 165.671875 C 114.945312 165.695312 114.558594 165.726562 114.175781 165.757812 C 114.066406 165.765625 113.960938 165.773438 113.855469 165.785156 C 111.09375 166.089844 108.351562 166.53125 105.65625 167.234375 C 104.445312 167.550781 103.25 167.921875 102.066406 168.332031 C 102.011719 168.351562 101.960938 168.371094 101.90625 168.390625 C 101.644531 168.492188 101.382812 168.597656 101.125 168.703125 C 100.574219 168.925781 100.03125 169.164062 99.492188 169.414062 C 98.484375 169.882812 97.496094 170.398438 96.535156 170.964844 C 96.078125 171.234375 95.625 171.519531 95.179688 171.8125 C 95.039062 171.953125 94.792969 172.078125 94.640625 172.191406 C 93.101562 173.332031 91.773438 174.640625 90.484375 176.042969 C 90.351562 176.214844 90.21875 176.382812 90.09375 176.558594 C 89.832031 176.910156 89.582031 177.269531 89.34375 177.640625 C 88.890625 178.339844 88.496094 179.070312 88.125 179.816406 C 88.0625 179.960938 88 180.105469 87.945312 180.25 C 87.789062 180.652344 87.644531 181.054688 87.515625 181.464844 C 87.386719 181.871094 87.273438 182.28125 87.175781 182.695312 C 87.113281 182.957031 87.097656 183.523438 86.96875 183.796875 C 87.054688 183.511719 87.09375 182.78125 87.019531 183.371094 C 87.007812 183.464844 86.992188 183.5625 86.980469 183.660156 C 86.976562 183.707031 86.96875 183.757812 86.964844 183.808594 C 86.953125 183.832031 86.945312 183.871094 86.929688 183.890625 C 86.941406 183.875 86.953125 183.84375 86.964844 183.808594 C 86.949219 183.953125 86.929688 184.09375 86.917969 184.238281 C 86.878906 184.65625 86.855469 185.078125 86.84375 185.5 C 86.835938 185.90625 86.839844 186.3125 86.859375 186.714844 C 86.863281 186.863281 86.875 187.007812 86.886719 187.152344 C 86.996094 187.96875 87.140625 188.773438 87.347656 189.570312 C 87.457031 189.992188 87.582031 190.410156 87.71875 190.828125 C 87.726562 190.84375 87.730469 190.859375 87.734375 190.875 C 87.78125 190.996094 87.828125 191.113281 87.878906 191.230469 C 88.21875 192.0625 88.617188 192.867188 89.058594 193.644531 C 89.277344 194.027344 89.507812 194.398438 89.746094 194.765625 C 89.847656 194.894531 90.042969 195.207031 90.078125 195.253906 C 91.230469 196.796875 92.558594 198.179688 93.992188 199.457031 C 93.957031 199.433594 93.925781 199.414062 93.902344 199.40625 C 93.953125 199.425781 94.011719 199.476562 94.070312 199.527344 C 94.042969 199.503906 94.019531 199.480469 93.992188 199.457031 C 94.15625 199.566406 94.398438 199.792969 94.453125 199.851562 C 94.386719 199.796875 94.316406 199.746094 94.25 199.691406 C 94.242188 199.683594 94.234375 199.675781 94.222656 199.667969 C 94.230469 199.671875 94.242188 199.683594 94.246094 199.691406 C 94.25 199.691406 94.25 199.691406 94.25 199.691406 C 94.257812 199.699219 94.265625 199.707031 94.273438 199.710938 C 94.449219 199.863281 94.484375 199.890625 94.453125 199.851562 C 94.585938 199.957031 94.71875 200.066406 94.855469 200.167969 C 95.308594 200.519531 95.773438 200.855469 96.242188 201.179688 C 97.207031 201.851562 98.207031 202.472656 99.230469 203.050781 C 99.777344 203.363281 100.332031 203.660156 100.890625 203.941406 C 101.175781 204.089844 101.464844 204.230469 101.757812 204.371094 C 101.839844 204.410156 102.03125 204.5 102.195312 204.578125 C 102.214844 204.585938 102.234375 204.59375 102.25 204.601562 C 102.414062 204.675781 102.578125 204.746094 102.746094 204.816406 C 103.03125 204.9375 103.320312 205.058594 103.613281 205.175781 C 104.253906 205.4375 104.902344 205.683594 105.558594 205.917969 C 108.339844 206.917969 111.203125 207.6875 114.101562 208.277344 C 114.875 208.433594 115.652344 208.570312 116.425781 208.710938 C 116.601562 208.738281 116.773438 208.761719 116.949219 208.789062 C 117.371094 208.851562 117.792969 208.910156 118.21875 208.96875 C 119.949219 209.199219 121.6875 209.371094 123.425781 209.496094 C 127.304688 209.773438 131.195312 209.808594 135.078125 209.65625 C 137.195312 209.570312 139.304688 209.429688 141.414062 209.242188 C 141.511719 209.234375 141.613281 209.222656 141.714844 209.214844 C 141.925781 209.191406 142.140625 209.171875 142.351562 209.148438 C 142.917969 209.089844 143.488281 209.027344 144.054688 208.960938 C 145.167969 208.832031 146.285156 208.6875 147.398438 208.535156 C 152.347656 207.84375 157.257812 206.910156 162.128906 205.800781 C 165.507812 205.027344 168 208.816406 166.304688 211.699219 C 166.136719 211.984375 165.96875 212.269531 165.804688 212.554688 C 164.117188 215.425781 162.492188 218.34375 160.738281 221.171875 C 160.238281 221.980469 159.683594 222.753906 159.195312 223.570312 C 158.816406 224.207031 158.457031 224.851562 158.117188 225.507812 C 157.972656 225.78125 157.835938 226.054688 157.699219 226.332031 C 157.648438 226.4375 157.597656 226.539062 157.546875 226.644531 C 156.515625 229.050781 155.671875 231.511719 155.128906 234.078125 C 155.058594 234.394531 154.996094 234.714844 154.9375 235.035156 C 154.921875 235.09375 154.90625 235.171875 154.898438 235.234375 C 154.894531 235.25 154.894531 235.269531 154.890625 235.285156 C 154.875 235.386719 154.859375 235.488281 154.835938 235.589844 C 154.851562 235.527344 154.859375 235.484375 154.871094 235.433594 C 154.789062 236.015625 154.710938 236.597656 154.652344 237.183594 C 154.527344 238.4375 154.46875 239.695312 154.46875 240.957031 C 154.46875 241.636719 154.488281 242.3125 154.527344 242.992188 C 154.542969 243.273438 154.5625 243.558594 154.585938 243.839844 C 154.585938 243.859375 154.589844 243.878906 154.589844 243.898438 C 154.589844 243.90625 154.589844 243.914062 154.59375 243.921875 C 154.601562 244.035156 154.617188 244.152344 154.621094 244.265625 C 154.617188 244.203125 154.617188 244.160156 154.613281 244.105469 C 154.757812 245.300781 154.9375 246.484375 155.191406 247.660156 C 155.453125 248.886719 155.777344 250.101562 156.164062 251.296875 C 156.273438 251.625 156.402344 251.949219 156.5 252.28125 C 156.484375 252.222656 156.472656 252.1875 156.457031 252.140625 C 156.480469 252.207031 156.5 252.269531 156.519531 252.316406 C 156.746094 252.894531 156.984375 253.464844 157.242188 254.03125 C 157.75 255.15625 158.320312 256.25 158.945312 257.316406 C 159.210938 257.761719 159.488281 258.195312 159.773438 258.628906 C 159.78125 258.660156 159.855469 258.785156 159.925781 258.882812 C 159.949219 258.917969 159.980469 258.957031 160.003906 258.992188 C 160.054688 259.066406 160.109375 259.136719 160.152344 259.210938 C 160.125 259.167969 160.109375 259.140625 160.085938 259.101562 C 160.210938 259.273438 160.335938 259.449219 160.46875 259.621094 C 161.183594 260.566406 161.953125 261.472656 162.769531 262.332031 C 163.210938 262.800781 163.671875 263.253906 164.144531 263.691406 C 164.285156 263.820312 164.425781 263.945312 164.570312 264.074219 C 164.585938 264.097656 164.695312 264.207031 164.796875 264.285156 C 164.816406 264.304688 164.839844 264.320312 164.863281 264.335938 C 164.953125 264.414062 165.046875 264.488281 165.132812 264.566406 C 165.0625 264.503906 165.015625 264.460938 164.960938 264.410156 C 165.871094 265.128906 166.800781 265.8125 167.785156 266.425781 C 168.308594 266.753906 168.84375 267.0625 169.386719 267.359375 C 169.660156 267.507812 169.9375 267.648438 170.214844 267.789062 C 170.394531 267.875 170.902344 268.089844 170.902344 268.089844 C 171.839844 268.472656 172.78125 268.847656 173.757812 269.148438 C 174.976562 269.523438 176.230469 269.707031 177.460938 270.03125 C 176.265625 269.714844 177.457031 270.023438 177.785156 270.066406 C 178.125 270.109375 178.460938 270.148438 178.796875 270.179688 C 179.449219 270.242188 180.097656 270.285156 180.75 270.308594 C 182.175781 270.363281 183.585938 270.203125 185.003906 270.199219 C 185.019531 270.195312 185.035156 270.195312 185.046875 270.195312 C 185.222656 270.167969 185.378906 270.144531 185.550781 270.105469 C 185.890625 270.03125 186.222656 269.9375 186.558594 269.847656 C 186.746094 269.796875 188.476562 269.15625 188.703125 269.15625 C 188.859375 269.09375 189.015625 269.03125 189.171875 268.964844 C 189.46875 268.839844 189.765625 268.710938 190.0625 268.574219 C 190.679688 268.289062 191.285156 267.984375 191.878906 267.65625 C 192.53125 267.296875 193.167969 266.910156 193.789062 266.5 C 193.867188 266.449219 193.957031 266.382812 194.042969 266.324219 C 194.246094 266.171875 194.449219 266.023438 194.648438 265.871094 C 195.730469 265.035156 196.75 264.121094 197.703125 263.144531 C 198.160156 262.675781 198.585938 262.183594 199.019531 261.699219 C 199.097656 261.601562 199.179688 261.503906 199.253906 261.402344 C 199.441406 261.167969 199.621094 260.929688 199.800781 260.691406 C 200.601562 259.609375 201.335938 258.480469 202.011719 257.316406 C 202.34375 256.734375 202.664062 256.144531 202.96875 255.546875 C 203.105469 255.28125 203.238281 255.015625 203.367188 254.746094 C 203.40625 254.667969 203.441406 254.589844 203.476562 254.511719 C 203.960938 253.335938 204.457031 252.171875 204.867188 250.96875 C 205.710938 248.515625 206.324219 246 206.785156 243.449219 C 206.800781 243.34375 206.816406 243.242188 206.832031 243.136719 C 206.871094 242.859375 206.910156 242.582031 206.945312 242.308594 C 207.027344 241.695312 207.09375 241.078125 207.152344 240.460938 C 207.257812 239.308594 207.328125 238.148438 207.351562 236.988281 C 207.375 235.863281 207.359375 234.738281 207.300781 233.617188 C 207.28125 233.320312 207.265625 233.027344 207.242188 232.730469 C 207.238281 232.710938 207.238281 232.683594 207.234375 232.648438 C 207.21875 232.492188 207.1875 232.195312 207.175781 232.101562 C 207.148438 231.882812 207.121094 231.664062 207.089844 231.445312 C 206.957031 230.527344 206.789062 229.613281 206.566406 228.714844 C 206.464844 228.308594 206.351562 227.902344 206.226562 227.503906 C 206.164062 227.3125 206.09375 227.128906 206.039062 226.941406 C 206.03125 226.917969 206.027344 226.90625 206.027344 226.894531 C 205.453125 225.160156 205.792969 223.355469 207.386719 222.242188 C 208.878906 221.199219 211.285156 221.261719 212.5 222.785156 C 213.617188 224.195312 214.769531 225.570312 215.972656 226.910156 C 217.089844 228.152344 218.246094 229.359375 219.445312 230.523438 C 220.023438 231.085938 220.609375 231.636719 221.210938 232.179688 C 221.511719 232.449219 221.816406 232.71875 222.121094 232.988281 C 222.273438 233.117188 222.425781 233.246094 222.578125 233.378906 C 222.957031 233.703125 222.722656 233.515625 222.492188 233.320312 C 224.515625 235.132812 226.910156 236.683594 229.25 238.039062 C 229.8125 238.367188 230.382812 238.679688 230.960938 238.980469 C 231.410156 239.214844 231.945312 239.570312 232.453125 239.742188 C 232.136719 239.617188 231.753906 239.410156 232.265625 239.632812 C 232.410156 239.695312 232.554688 239.757812 232.703125 239.820312 C 232.96875 239.9375 233.238281 240.046875 233.507812 240.15625 C 234.058594 240.375 234.613281 240.578125 235.171875 240.769531 C 236.246094 241.136719 237.335938 241.453125 238.441406 241.707031 C 238.921875 241.816406 239.402344 241.910156 239.886719 242 C 239.898438 242 239.914062 242.003906 239.925781 242.003906 C 240.175781 242.042969 240.429688 242.074219 240.683594 242.105469 C 241.707031 242.222656 242.734375 242.289062 243.765625 242.292969 C 244.265625 242.296875 244.765625 242.285156 245.265625 242.261719 C 245.488281 242.25 245.707031 242.230469 245.929688 242.21875 C 247.777344 241.988281 249.59375 241.597656 251.355469 240.992188 C 251.527344 240.925781 251.695312 240.859375 251.867188 240.789062 C 252.277344 240.617188 252.679688 240.4375 253.082031 240.246094 C 253.90625 239.855469 254.707031 239.417969 255.488281 238.9375 C 255.796875 238.746094 256.097656 238.542969 256.402344 238.339844 C 256.417969 238.332031 256.433594 238.320312 256.449219 238.308594 C 256.625 238.179688 256.796875 238.046875 256.96875 237.914062 C 257.679688 237.363281 258.363281 236.773438 259.015625 236.152344 C 259.632812 235.5625 260.210938 234.933594 260.777344 234.292969 C 260.886719 234.15625 260.996094 234.019531 261.101562 233.882812 C 261.375 233.527344 261.640625 233.164062 261.894531 232.796875 C 262.402344 232.058594 262.878906 231.296875 263.3125 230.515625 C 263.523438 230.136719 263.722656 229.753906 263.914062 229.367188 C 263.96875 229.253906 264.023438 229.140625 264.078125 229.023438 C 264.082031 229.019531 264.082031 229.015625 264.082031 229.011719 C 264.792969 227.363281 265.339844 225.644531 265.710938 223.886719 C 265.753906 223.691406 265.789062 223.496094 265.828125 223.300781 C 265.882812 222.90625 265.9375 222.511719 265.976562 222.117188 C 266.066406 221.210938 266.113281 220.304688 266.109375 219.398438 C 266.105469 218.941406 266.09375 218.484375 266.066406 218.027344 C 266.054688 217.863281 266.042969 217.703125 266.03125 217.542969 C 265.925781 216.636719 265.773438 215.738281 265.570312 214.851562 C 265.367188 213.945312 265.101562 213.058594 264.808594 212.179688 C 264.734375 211.992188 264.65625 211.800781 264.578125 211.609375 C 264.390625 211.160156 264.191406 210.714844 263.976562 210.273438 C 263.539062 209.371094 263.050781 208.492188 262.519531 207.644531 C 262.382812 207.433594 262.246094 207.222656 262.109375 207.011719 C 261.816406 206.617188 261.523438 206.21875 261.214844 205.835938 C 260.542969 205 259.828125 204.199219 259.074219 203.4375 C 258.671875 203.035156 258.261719 202.640625 257.84375 202.257812 C 257.625 202.058594 257.402344 201.863281 257.179688 201.667969 C 255.21875 200.097656 253.125 198.714844 250.914062 197.519531 C 250.3125 197.195312 249.699219 196.882812 249.082031 196.582031 C 248.921875 196.503906 248.757812 196.425781 248.59375 196.347656 C 248.496094 196.304688 248.402344 196.261719 248.308594 196.214844 C 248.269531 196.195312 248.253906 196.1875 248.242188 196.183594 C 248.144531 196.144531 248.046875 196.109375 247.957031 196.070312 C 246.578125 195.476562 245.175781 194.941406 243.753906 194.457031 C 240.613281 193.390625 237.386719 192.578125 234.128906 191.960938 C 233.667969 191.871094 233.203125 191.789062 232.738281 191.707031 C 232.699219 191.699219 232.628906 191.6875 232.550781 191.675781 C 232.429688 191.65625 232.277344 191.632812 232.214844 191.621094 C 231.273438 191.476562 230.328125 191.34375 229.382812 191.226562 C 227.382812 190.976562 225.371094 190.792969 223.359375 190.65625 C 221.175781 190.507812 219.601562 188.792969 219.578125 186.613281 C 219.558594 184.53125 221.574219 182.726562 223.621094 182.832031 C 225.945312 182.957031 228.269531 183.128906 230.597656 183.207031 C 234.761719 183.347656 238.933594 183.308594 243.09375 183.023438 C 243.652344 182.984375 244.210938 182.941406 244.765625 182.894531 C 244.972656 182.875 245.179688 182.855469 245.386719 182.839844 C 245.394531 182.835938 245.398438 182.835938 245.410156 182.835938 C 246.316406 182.738281 247.226562 182.636719 248.132812 182.519531 C 249.847656 182.292969 251.558594 182.015625 253.253906 181.683594 C 256.296875 181.085938 259.308594 180.304688 262.234375 179.285156 C 262.195312 179.300781 262.445312 179.214844 262.609375 179.152344 C 262.714844 179.113281 262.820312 179.074219 262.925781 179.039062 C 262.8125 179.078125 262.734375 179.105469 262.65625 179.132812 C 262.980469 179.007812 263.300781 178.886719 263.625 178.757812 C 264.253906 178.503906 264.878906 178.238281 265.5 177.957031 C 266.675781 177.429688 267.828125 176.851562 268.953125 176.222656 C 269.847656 175.722656 270.703125 175.167969 271.558594 174.613281 C 271.730469 174.5 271.996094 174.320312 272.121094 174.226562 C 272.347656 174.058594 272.574219 173.890625 272.796875 173.714844 C 273.195312 173.402344 273.585938 173.082031 273.972656 172.753906 C 274.804688 172.035156 275.601562 171.273438 276.351562 170.46875 C 276.53125 170.273438 276.707031 170.074219 276.882812 169.875 C 277.144531 169.542969 277.410156 169.214844 277.660156 168.871094 C 278.21875 168.101562 278.734375 167.300781 279.195312 166.472656 C 279.417969 166.078125 279.613281 165.675781 279.816406 165.273438 C 279.886719 165.101562 279.960938 164.925781 280.03125 164.753906 C 280.355469 163.929688 280.625 163.089844 280.84375 162.234375 C 280.949219 161.828125 281.03125 161.417969 281.117188 161.007812 C 281.136719 160.867188 281.15625 160.726562 281.171875 160.582031 C 281.273438 159.738281 281.320312 158.882812 281.3125 158.03125 C 281.308594 157.597656 281.285156 157.167969 281.257812 156.734375 C 281.238281 156.582031 281.21875 156.429688 281.199219 156.277344 C 281.078125 155.433594 280.902344 154.597656 280.679688 153.773438 C 280.570312 153.367188 280.445312 152.964844 280.3125 152.5625 C 280.339844 152.628906 280.367188 152.695312 280.398438 152.769531 C 280.359375 152.679688 280.328125 152.585938 280.292969 152.496094 C 280.292969 152.492188 280.289062 152.492188 280.289062 152.492188 C 280.230469 152.308594 280.101562 152.015625 280.074219 151.96875 C 279.765625 151.226562 279.421875 150.5 279.035156 149.796875 C 278.800781 149.371094 278.558594 148.957031 278.300781 148.550781 C 278.199219 148.386719 278.089844 148.222656 277.984375 148.058594 C 276.898438 146.597656 275.703125 145.234375 274.355469 144.003906 C 274.175781 143.84375 273.996094 143.6875 273.816406 143.527344 C 273.46875 143.246094 273.113281 142.972656 272.753906 142.710938 C 271.917969 142.097656 271.054688 141.53125 270.167969 141.007812 C 269.292969 140.492188 268.394531 140.027344 267.484375 139.589844 C 267.441406 139.570312 267.398438 139.550781 267.355469 139.53125 C 267.105469 139.425781 266.855469 139.320312 266.601562 139.21875 C 266.132812 139.027344 265.660156 138.847656 265.183594 138.675781 C 264.0625 138.277344 262.925781 137.929688 261.773438 137.636719 C 261.203125 137.492188 260.625 137.359375 260.050781 137.234375 C 259.757812 137.175781 259.460938 137.117188 259.167969 137.0625 C 259.085938 137.046875 258.957031 137.023438 258.828125 137.003906 C 256.375 136.675781 253.933594 136.445312 251.453125 136.453125 C 250.011719 136.457031 248.570312 136.523438 247.136719 136.640625 C 247.105469 136.644531 247.0625 136.648438 247.019531 136.652344 C 247.085938 136.644531 247.160156 136.636719 247.242188 136.625 C 247.125 136.640625 247.003906 136.652344 246.882812 136.664062 C 246.523438 136.703125 246.164062 136.742188 245.800781 136.789062 C 245.066406 136.878906 244.335938 136.984375 243.601562 137.101562 C 240.472656 137.609375 237.378906 138.351562 234.351562 139.285156 C 233.46875 139.558594 232.59375 139.84375 231.722656 140.144531 C 231.433594 140.246094 230.003906 140.792969 231.226562 140.316406 C 230.816406 140.476562 230.398438 140.625 229.988281 140.78125 C 228.277344 141.441406 226.589844 142.15625 224.925781 142.917969 C 221.207031 144.621094 217.609375 146.5625 214.113281 148.675781 C 212.78125 149.476562 210.949219 149.121094 209.820312 148.175781 C 208.625 147.179688 208.128906 145.574219 208.558594 144.070312 C 209.832031 139.632812 211.261719 135.238281 212.546875 130.804688 C 213.824219 126.410156 214.988281 121.980469 215.835938 117.484375 C 215.949219 116.882812 216.042969 116.277344 216.15625 115.671875 C 216.148438 115.726562 216.140625 115.765625 216.132812 115.808594 C 216.140625 115.757812 216.148438 115.707031 216.15625 115.671875 C 216.195312 115.402344 216.238281 115.136719 216.277344 114.867188 C 216.4375 113.742188 216.578125 112.609375 216.683594 111.476562 C 216.894531 109.277344 216.988281 107.0625 216.914062 104.851562 C 216.898438 104.285156 216.867188 103.714844 216.824219 103.152344 C 216.820312 103.074219 216.8125 103 216.804688 102.925781 C 216.789062 102.777344 216.773438 102.625 216.757812 102.476562 C 216.632812 101.445312 216.460938 100.421875 216.238281 99.40625 C 216.019531 98.417969 215.746094 97.4375 215.417969 96.480469 C 215.414062 96.46875 215.414062 96.464844 215.410156 96.453125 C 215.40625 96.441406 215.402344 96.433594 215.398438 96.421875 C 215.308594 96.203125 215.222656 95.984375 215.128906 95.769531 C 214.945312 95.335938 214.75 94.910156 214.539062 94.492188 C 214.113281 93.644531 213.539062 92.878906 213.09375 92.050781 C 213.054688 92 213.011719 91.945312 212.972656 91.890625 C 212.828125 91.699219 212.679688 91.515625 212.527344 91.332031 C 212.21875 90.960938 211.898438 90.601562 211.570312 90.25 C 211.1875 89.851562 210.792969 89.464844 210.382812 89.097656 C 210.339844 89.058594 210.28125 89.011719 210.222656 88.960938 C 210.292969 89.015625 210.375 89.078125 210.476562 89.15625 C 210.277344 89.003906 210.082031 88.839844 209.882812 88.683594 C 209.082031 88.070312 208.242188 87.523438 207.375 87.015625 C 206.300781 86.613281 205.207031 86.273438 204.089844 86.023438 C 203.84375 85.96875 203.597656 85.925781 203.355469 85.878906 C 203.285156 85.867188 203.21875 85.859375 203.152344 85.847656 C 202.515625 85.765625 201.878906 85.714844 201.238281 85.6875 C 200.636719 85.664062 200.03125 85.667969 199.429688 85.695312 C 199.199219 85.703125 198.96875 85.726562 198.734375 85.742188 C 198.652344 85.753906 198.566406 85.761719 198.480469 85.773438 C 197.304688 85.933594 196.144531 86.191406 195.007812 86.53125 C 194.710938 86.621094 194.417969 86.714844 194.125 86.8125 C 193.667969 87.003906 193.207031 87.183594 192.757812 87.386719 C 191.757812 87.839844 190.785156 88.355469 189.84375 88.921875 C 189.351562 89.21875 188.867188 89.527344 188.390625 89.851562 C 188.175781 90.007812 187.960938 90.164062 187.746094 90.324219 C 186.832031 91.015625 185.953125 91.753906 185.105469 92.523438 C 184.242188 93.308594 183.414062 94.132812 182.617188 94.988281 C 182.214844 95.417969 181.820312 95.859375 181.433594 96.304688 C 181.375 96.375 181.28125 96.484375 181.199219 96.589844 C 181.261719 96.511719 181.339844 96.414062 181.4375 96.289062 C 181.242188 96.535156 181.039062 96.773438 180.84375 97.019531 C 179.367188 98.875 178.019531 100.832031 176.796875 102.863281 C 176.179688 103.890625 175.589844 104.941406 175.039062 106.003906 C 174.761719 106.535156 174.496094 107.070312 174.234375 107.605469 C 174.132812 107.824219 174.03125 108.042969 173.929688 108.257812 C 173.914062 108.289062 173.898438 108.320312 173.886719 108.351562 C 172.949219 110.464844 172.140625 112.636719 171.480469 114.851562 C 171.164062 115.910156 170.882812 116.976562 170.640625 118.054688 C 170.515625 118.601562 170.402344 119.15625 170.300781 119.710938 C 170.292969 119.746094 170.28125 119.816406 170.269531 119.890625 C 170.246094 120.042969 170.210938 120.253906 170.203125 120.335938 C 169.929688 122.265625 169.804688 124.214844 169.894531 126.164062 C 169.96875 127.71875 168.695312 129.175781 167.320312 129.679688 C 165.917969 130.191406 164.09375 129.871094 163.09375 128.671875 C 158.867188 123.609375 154.335938 118.929688 149.332031 114.640625 C 148.675781 114.183594 148.070312 113.625 147.46875 113.171875 C 143.824219 110.414062 139.898438 108.015625 135.773438 106.050781 C 135.503906 105.921875 134.378906 105.460938 135.601562 105.964844 C 135.359375 105.863281 135.121094 105.75 134.882812 105.644531 C 134.40625 105.433594 133.929688 105.234375 133.445312 105.039062 C 132.433594 104.625 131.410156 104.242188 130.375 103.890625 C 128.414062 103.226562 126.40625 102.675781 124.367188 102.292969 C 124.300781 102.277344 124.160156 102.253906 124.023438 102.230469 C 123.902344 102.210938 123.777344 102.191406 123.722656 102.183594 C 123.25 102.117188 122.773438 102.0625 122.300781 102.015625 C 121.382812 101.929688 120.464844 101.882812 119.546875 101.886719 C 119.117188 101.890625 118.6875 101.90625 118.257812 101.933594 C 118.292969 101.921875 118.316406 101.917969 118.359375 101.910156 C 118.269531 101.929688 118.175781 101.941406 118.078125 101.949219 C 118.128906 101.941406 118.175781 101.9375 118.222656 101.933594 C 118.234375 101.933594 118.246094 101.933594 118.257812 101.933594 C 117.382812 102.128906 117.71875 102.003906 118.066406 101.953125 C 117.964844 101.960938 117.867188 101.96875 117.769531 101.980469 C 116.980469 102.085938 116.199219 102.242188 115.433594 102.453125 C 115.234375 102.511719 115.035156 102.574219 114.839844 102.636719 C 114.5625 102.75 114.289062 102.859375 114.019531 102.988281 C 113.652344 103.167969 113.289062 103.363281 112.941406 103.574219 C 112.871094 103.617188 112.804688 103.660156 112.738281 103.703125 C 112.183594 104.148438 111.691406 104.628906 111.199219 105.136719 C 111.09375 105.277344 110.992188 105.417969 110.890625 105.5625 Z M 110.203125 106.632812 C 110.1875 106.65625 110.171875 106.691406 110.15625 106.726562 C 110.1875 106.667969 110.207031 106.628906 110.203125 106.632812 Z M 159.773438 258.628906 C 159.824219 258.710938 159.871094 258.792969 159.925781 258.875 C 159.953125 258.914062 159.976562 258.953125 160.003906 258.992188 C 160.03125 259.027344 160.058594 259.066406 160.085938 259.101562 C 159.835938 258.695312 159.761719 258.597656 159.773438 258.628906 Z M 247.019531 136.652344 C 246.6875 136.683594 246.132812 136.753906 247.019531 136.652344 Z M 164.570312 264.074219 C 164.65625 264.148438 164.738281 264.226562 164.824219 264.300781 C 164.835938 264.3125 164.851562 264.324219 164.863281 264.335938 C 164.894531 264.363281 164.929688 264.386719 164.960938 264.410156 C 164.648438 264.125 164.554688 264.050781 164.570312 264.074219 Z M 154.589844 243.898438 C 154.589844 243.90625 154.589844 243.914062 154.59375 243.921875 C 154.59375 243.953125 154.597656 243.980469 154.601562 244.011719 C 154.605469 244.042969 154.609375 244.074219 154.613281 244.105469 C 154.578125 243.371094 154.570312 243.640625 154.589844 243.898438 Z M 156.457031 252.140625 C 156.234375 251.386719 156.347656 251.808594 156.457031 252.140625 Z M 262.25 179.28125 C 262.371094 179.238281 262.488281 179.195312 262.609375 179.152344 C 262.621094 179.144531 262.636719 179.140625 262.648438 179.136719 C 262.652344 179.136719 262.652344 179.132812 262.65625 179.132812 C 262.382812 179.230469 262.257812 179.273438 262.234375 179.285156 C 262.238281 179.28125 262.246094 179.28125 262.25 179.28125 Z M 280.3125 152.5625 C 280.304688 152.542969 280.300781 152.515625 280.292969 152.496094 C 280.25 152.382812 280.207031 152.273438 280.164062 152.164062 C 280.136719 152.097656 280.105469 152.035156 280.074219 151.96875 C 280.054688 151.929688 280.101562 152.0625 280.3125 152.5625 Z M 154.9375 235.035156 C 154.929688 235.074219 154.921875 235.117188 154.914062 235.15625 C 154.90625 235.199219 154.898438 235.242188 154.890625 235.285156 C 154.882812 235.332031 154.878906 235.382812 154.871094 235.433594 C 155.003906 234.851562 154.976562 234.878906 154.9375 235.035156 Z M 154.9375 235.035156 " fill-opacity="1" fill-rule="nonzero"/></g></g></g><g clip-path="url(#1fb2d2c5d8)"><g clip-path="url(#7f6455c55d)"><g clip-path="url(#ebadb04e64)"><path fill="#ed664f" d="M 178.367188 198.195312 C 178.292969 198.152344 178.277344 198.140625 178.367188 198.195312 Z M 170.460938 157.550781 C 175.335938 154.109375 180.953125 152.253906 186.941406 152.226562 C 188.261719 152.234375 189.566406 152.34375 190.871094 152.550781 C 196.71875 153.488281 202.007812 156.074219 206.28125 160.195312 C 210.238281 164.007812 213.027344 169.175781 214.085938 174.566406 C 215.25 180.507812 214.4375 186.542969 211.902344 192.011719 C 209.574219 197.035156 205.652344 201.191406 200.925781 204.039062 C 191.1875 209.902344 178.070312 208.945312 169.320312 201.6875 C 164.804688 197.941406 161.546875 193.089844 159.949219 187.421875 C 158.414062 181.984375 158.648438 175.886719 160.617188 170.589844 C 162.542969 165.410156 165.933594 160.75 170.460938 157.550781 Z M 169.148438 170.597656 C 168.996094 170.871094 168.851562 171.148438 168.710938 171.425781 C 168.691406 171.46875 168.644531 171.566406 168.59375 171.671875 C 168.53125 171.816406 168.40625 172.09375 168.367188 172.1875 C 168.265625 172.445312 168.164062 172.703125 168.070312 172.960938 C 167.660156 174.085938 167.332031 175.238281 167.09375 176.410156 C 167.066406 176.546875 167.046875 176.6875 167.019531 176.824219 C 166.992188 177.03125 166.960938 177.242188 166.9375 177.449219 C 166.871094 178.023438 166.828125 178.597656 166.804688 179.171875 C 166.773438 179.835938 166.773438 180.503906 166.800781 181.167969 C 166.8125 181.445312 166.835938 181.722656 166.851562 182 C 166.855469 182.046875 166.859375 182.09375 166.867188 182.136719 C 167.011719 183.335938 167.25 184.527344 167.578125 185.6875 C 167.664062 185.996094 167.757812 186.300781 167.855469 186.601562 C 167.871094 186.644531 167.898438 186.738281 167.933594 186.835938 C 167.972656 186.925781 168.128906 187.34375 168.167969 187.441406 C 168.273438 187.695312 168.386719 187.945312 168.5 188.195312 C 168.988281 189.261719 169.554688 190.289062 170.191406 191.273438 C 170.261719 191.378906 170.34375 191.492188 170.421875 191.601562 C 170.53125 191.753906 170.644531 191.90625 170.757812 192.054688 C 171.113281 192.515625 171.488281 192.964844 171.875 193.394531 C 172.265625 193.828125 172.667969 194.246094 173.085938 194.652344 C 173.28125 194.839844 173.480469 195.023438 173.683594 195.203125 C 173.71875 195.238281 173.757812 195.269531 173.792969 195.304688 C 174.714844 195.933594 175.558594 196.65625 176.519531 197.238281 C 177.054688 197.558594 177.601562 197.863281 178.160156 198.144531 C 178.367188 198.246094 178.597656 198.332031 178.796875 198.449219 C 178.566406 198.3125 178.433594 198.234375 178.367188 198.195312 C 178.488281 198.265625 178.769531 198.421875 178.921875 198.484375 C 179.988281 198.917969 181.085938 199.273438 182.203125 199.546875 C 182.554688 199.632812 182.90625 199.710938 183.261719 199.78125 C 183.332031 199.796875 183.398438 199.808594 183.46875 199.820312 C 183.992188 199.890625 184.515625 199.957031 185.042969 199.996094 C 186.277344 200.09375 187.5 200.054688 188.738281 200.003906 C 188.820312 199.992188 188.90625 199.984375 188.992188 199.972656 C 189.273438 199.9375 189.558594 199.894531 189.835938 199.847656 C 190.394531 199.757812 190.945312 199.644531 191.496094 199.515625 C 192.113281 199.367188 192.730469 199.195312 193.335938 198.996094 C 193.375 198.984375 193.476562 198.949219 193.585938 198.914062 C 193.683594 198.871094 194.066406 198.726562 194.171875 198.683594 C 195.257812 198.230469 196.308594 197.699219 197.3125 197.09375 C 197.582031 196.933594 197.84375 196.769531 198.105469 196.597656 C 198.167969 196.554688 198.238281 196.5 198.308594 196.453125 C 198.679688 196.164062 199.0625 195.886719 199.425781 195.585938 C 200.320312 194.839844 201.160156 194.035156 201.9375 193.171875 C 202.03125 193.066406 202.125 192.941406 202.226562 192.835938 C 202.328125 192.707031 202.429688 192.582031 202.527344 192.453125 C 202.882812 191.988281 203.21875 191.511719 203.535156 191.023438 C 204.160156 190.070312 204.601562 189.027344 205.183594 188.058594 C 205.066406 188.25 204.992188 188.378906 204.949219 188.453125 C 205.023438 188.320312 205.160156 188.074219 205.21875 187.929688 C 205.335938 187.636719 205.449219 187.34375 205.558594 187.046875 C 205.746094 186.523438 205.914062 185.996094 206.066406 185.460938 C 206.230469 184.882812 206.371094 184.296875 206.492188 183.707031 C 206.511719 183.613281 206.527344 183.515625 206.546875 183.417969 C 206.578125 183.167969 206.621094 182.917969 206.648438 182.667969 C 206.785156 181.476562 206.832031 180.273438 206.789062 179.074219 C 206.777344 178.742188 206.722656 178.390625 206.730469 178.054688 C 206.722656 177.992188 206.714844 177.925781 206.707031 177.859375 C 206.632812 177.296875 206.542969 176.738281 206.429688 176.183594 C 206.199219 175.039062 205.847656 173.953125 205.5 172.84375 C 205.851562 173.96875 205.476562 172.824219 205.371094 172.570312 C 205.265625 172.316406 205.152344 172.066406 205.039062 171.816406 C 204.808594 171.320312 204.558594 170.832031 204.296875 170.351562 C 203.996094 169.804688 203.671875 169.269531 203.332031 168.75 C 203.308594 168.710938 203.285156 168.675781 203.257812 168.640625 C 203.113281 168.449219 202.976562 168.253906 202.828125 168.0625 C 202.117188 167.144531 201.335938 166.277344 200.5 165.46875 C 200.277344 165.253906 200.050781 165.042969 199.816406 164.835938 C 199.773438 164.796875 199.730469 164.761719 199.6875 164.722656 C 199.300781 164.429688 198.925781 164.125 198.53125 163.84375 C 197.574219 163.167969 196.574219 162.558594 195.53125 162.03125 C 195.46875 161.996094 195.324219 161.929688 195.183594 161.859375 C 195.027344 161.792969 194.742188 161.667969 194.664062 161.636719 C 194.152344 161.425781 193.632812 161.234375 193.105469 161.0625 C 192.5 160.867188 191.886719 160.691406 191.265625 160.542969 C 190.992188 160.476562 190.71875 160.417969 190.441406 160.363281 C 190.402344 160.351562 190.359375 160.34375 190.320312 160.339844 C 189.769531 160.410156 188.980469 160.152344 188.421875 160.113281 C 187.84375 160.070312 187.261719 160.050781 186.683594 160.046875 C 186.066406 160.050781 185.457031 160.085938 184.84375 160.117188 C 184.800781 160.121094 184.757812 160.125 184.714844 160.132812 C 184.390625 160.171875 184.070312 160.21875 183.75 160.269531 C 182.601562 160.457031 181.472656 160.730469 180.363281 161.085938 C 180.074219 161.179688 179.035156 161.664062 180.070312 161.171875 C 179.859375 161.273438 179.628906 161.34375 179.414062 161.4375 C 178.871094 161.660156 178.335938 161.910156 177.808594 162.175781 C 177.289062 162.4375 176.773438 162.722656 176.273438 163.023438 C 176.039062 163.164062 175.808594 163.308594 175.578125 163.457031 C 175.550781 163.476562 175.523438 163.496094 175.492188 163.515625 C 175.101562 163.925781 174.507812 164.246094 174.070312 164.609375 C 173.65625 164.957031 173.25 165.320312 172.859375 165.695312 C 172.414062 166.125 171.984375 166.574219 171.570312 167.035156 C 171.523438 167.085938 171.476562 167.140625 171.433594 167.191406 C 171.308594 167.351562 171.179688 167.503906 171.058594 167.664062 C 170.351562 168.59375 169.710938 169.574219 169.148438 170.597656 Z M 204.949219 188.453125 C 204.863281 188.59375 204.886719 188.558594 204.949219 188.453125 Z M 204.949219 188.453125 " fill-opacity="1" fill-rule="nonzero"/></g></g></g></svg>